<svg id="svg" version="1.1" xmlns="http://www.w3.org/2000/svg" xmlns:xlink="http://www.w3.org/1999/xlink" width="400" height="400" viewBox="0, 0, 400,400"><g id="svgg"><path id="path0" d="M200.000 99.204 L 200.000 103.607 242.900 103.485 C 273.865 103.398,286.324 103.234,287.682 102.897 C 289.761 102.382,296.940 100.119,298.200 99.582 C 298.640 99.395,300.260 98.851,301.800 98.374 C 303.340 97.898,304.913 97.349,305.295 97.154 C 305.677 96.959,306.234 96.800,306.533 96.800 C 307.339 96.800,309.600 95.599,309.600 95.171 C 309.600 94.945,288.179 94.800,254.800 94.800 L 200.000 94.800 200.000 99.204 M146.600 109.100 L 200.200 109.202 200.060 112.814 C 199.983 114.800,200.031 116.869,200.167 117.412 L 200.415 118.400 223.308 118.369 L 246.200 118.337 248.000 117.184 C 250.120 115.825,251.615 115.111,253.803 114.412 C 254.681 114.131,255.713 113.744,256.095 113.551 C 256.477 113.358,257.141 113.200,257.571 113.200 C 258.001 113.200,258.464 113.020,258.600 112.800 C 258.736 112.580,259.276 112.400,259.800 112.400 C 260.324 112.400,260.864 112.220,261.000 112.000 C 261.136 111.780,261.676 111.600,262.200 111.600 C 262.724 111.600,263.264 111.420,263.400 111.200 C 263.536 110.980,264.002 110.800,264.436 110.800 C 264.870 110.800,265.329 110.530,265.455 110.200 C 265.582 109.870,265.936 109.600,266.243 109.600 C 266.549 109.600,266.800 109.420,266.800 109.200 C 266.800 108.934,237.632 108.833,179.900 108.899 C 118.681 108.968,108.840 109.027,146.600 109.100 M324.180 121.530 C 323.971 121.712,322.990 122.096,322.000 122.382 C 321.010 122.669,319.615 123.159,318.900 123.471 L 317.600 124.038 317.600 182.442 C 317.600 221.277,317.466 240.764,317.200 240.600 C 316.980 240.464,316.800 240.543,316.800 240.776 C 316.800 241.072,299.204 241.230,258.500 241.298 L 200.200 241.396 258.600 241.600 L 317.000 241.804 258.500 241.902 L 200.000 242.000 200.000 246.200 L 200.000 250.400 258.400 250.400 C 299.236 250.400,316.800 250.527,316.800 250.824 C 316.800 251.057,316.980 251.136,317.200 251.000 C 317.463 250.837,317.600 254.937,317.600 263.000 C 317.600 271.063,317.463 275.163,317.200 275.000 C 316.864 274.792,316.544 277.670,316.763 278.930 C 316.794 279.111,316.674 279.169,316.495 279.059 C 316.316 278.948,315.918 279.426,315.610 280.122 C 314.991 281.520,313.468 283.200,312.818 283.200 C 312.588 283.200,312.400 283.380,312.400 283.600 C 312.400 283.820,312.130 284.000,311.800 284.000 C 311.470 284.000,311.200 284.180,311.200 284.400 C 311.200 284.620,310.761 284.800,310.224 284.800 C 309.687 284.800,309.136 284.980,309.000 285.200 C 308.837 285.463,290.277 285.600,254.619 285.600 C 205.625 285.600,200.463 285.660,200.243 286.233 C 200.109 286.581,200.000 288.471,200.000 290.433 L 200.000 294.000 210.157 294.000 C 221.381 294.000,220.800 293.856,220.800 296.633 C 220.800 297.385,220.980 298.000,221.200 298.000 C 221.420 298.000,221.606 298.585,221.613 299.300 C 221.620 300.015,221.877 300.932,222.185 301.339 C 222.493 301.745,222.655 302.312,222.545 302.598 C 222.435 302.885,222.538 303.238,222.773 303.383 C 223.008 303.528,223.200 304.252,223.200 304.990 C 223.200 305.729,223.403 306.401,223.650 306.483 C 223.898 306.566,224.100 307.121,224.100 307.717 C 224.100 308.313,224.257 308.800,224.450 308.800 C 224.643 308.800,224.800 309.329,224.800 309.976 C 224.800 310.623,224.996 311.274,225.235 311.422 C 225.474 311.569,225.581 312.030,225.472 312.445 C 225.364 312.860,225.438 313.300,225.638 313.423 C 225.837 313.546,226.000 313.982,226.000 314.390 C 226.000 314.799,226.160 315.193,226.355 315.267 C 226.551 315.340,227.057 316.120,227.480 317.000 C 227.903 317.880,228.426 318.567,228.642 318.528 C 228.857 318.488,229.060 318.803,229.092 319.228 C 229.149 319.978,228.730 320.000,214.575 320.000 L 200.000 320.000 200.000 324.200 L 200.000 328.400 239.018 328.400 L 278.036 328.400 279.018 327.418 C 279.558 326.878,280.000 326.158,280.000 325.818 C 280.000 325.478,280.180 325.200,280.400 325.200 C 280.620 325.200,280.800 324.750,280.800 324.200 C 280.800 323.650,280.620 323.200,280.400 323.200 C 280.180 323.200,280.000 322.829,280.000 322.376 C 280.000 321.923,279.820 321.664,279.600 321.800 C 279.380 321.936,279.200 321.844,279.200 321.595 C 279.200 320.058,278.587 320.000,262.229 320.000 C 251.943 320.000,246.400 319.860,246.400 319.600 C 246.400 319.380,245.860 319.200,245.200 319.200 C 244.540 319.200,244.000 319.020,244.000 318.800 C 244.000 318.580,243.500 318.400,242.888 318.400 C 242.235 318.400,241.539 318.070,241.200 317.600 C 240.883 317.160,240.479 316.800,240.303 316.800 C 239.861 316.800,235.600 312.503,235.600 312.058 C 235.600 311.860,235.332 311.476,235.004 311.204 C 234.677 310.932,234.500 310.562,234.611 310.382 C 234.722 310.202,234.630 309.942,234.407 309.804 C 234.183 309.666,234.000 309.113,234.000 308.576 C 234.000 308.039,233.820 307.600,233.600 307.600 C 233.380 307.600,233.200 306.981,233.200 306.224 C 233.200 305.467,233.020 304.736,232.800 304.600 C 232.580 304.464,232.400 303.823,232.400 303.176 C 232.400 302.529,232.220 302.000,232.000 302.000 C 231.780 302.000,231.600 301.460,231.600 300.800 C 231.600 300.140,231.420 299.600,231.200 299.600 C 230.980 299.600,230.800 298.880,230.800 298.000 C 230.800 297.120,230.620 296.400,230.400 296.400 C 230.180 296.400,230.000 296.040,230.000 295.600 C 230.000 294.806,230.299 294.799,268.100 294.702 L 306.200 294.604 268.243 294.500 C 240.528 294.424,230.140 294.518,229.743 294.847 C 229.405 295.128,229.200 295.145,229.200 294.892 C 229.200 294.668,229.485 294.376,229.833 294.243 C 231.193 293.721,306.321 293.973,306.567 294.500 C 306.753 294.900,306.847 294.900,307.033 294.500 C 307.162 294.225,307.442 294.000,307.657 294.000 C 307.872 294.000,307.912 294.225,307.747 294.500 C 307.572 294.791,307.761 294.750,308.200 294.400 C 308.639 294.050,308.828 294.009,308.653 294.300 C 308.464 294.615,308.584 294.800,308.976 294.800 C 309.319 294.800,309.600 294.620,309.600 294.400 C 309.600 294.180,310.320 294.000,311.200 294.000 C 312.080 294.000,312.800 293.820,312.800 293.600 C 312.800 293.380,313.340 293.200,314.000 293.200 C 314.660 293.200,315.200 293.020,315.200 292.800 C 315.200 292.580,315.545 292.400,315.967 292.400 C 316.388 292.400,316.793 292.248,316.867 292.062 C 316.940 291.876,317.540 291.459,318.200 291.135 C 318.860 290.812,319.351 290.320,319.290 290.044 C 319.230 289.767,319.341 289.640,319.538 289.762 C 320.199 290.170,324.000 285.654,324.000 284.461 C 324.000 284.244,324.225 283.992,324.500 283.900 C 325.080 283.707,325.462 122.102,324.884 121.524 C 324.706 121.346,324.389 121.349,324.180 121.530 M306.800 127.457 C 305.150 128.019,303.575 128.663,303.300 128.888 C 302.905 129.212,302.800 139.533,302.800 178.049 L 302.800 226.800 251.413 226.800 L 200.026 226.800 199.913 231.300 L 199.800 235.800 146.400 236.002 C 103.810 236.163,114.680 236.224,200.100 236.302 C 271.299 236.367,307.200 236.266,307.200 236.000 C 307.200 235.780,307.658 235.600,308.218 235.600 C 308.778 235.600,309.678 235.158,310.218 234.618 L 311.200 233.636 311.200 180.018 C 311.200 129.213,311.163 126.401,310.500 126.418 C 310.115 126.427,308.450 126.895,306.800 127.457 M200.273 256.553 C 199.328 259.016,199.980 264.354,201.400 265.773 C 202.170 266.543,202.800 267.545,202.800 268.000 C 202.800 268.455,202.170 269.457,201.400 270.227 C 199.999 271.628,199.262 277.844,200.306 279.453 C 200.650 279.981,202.800 280.065,202.800 279.550 C 202.800 279.358,203.340 279.200,204.000 279.200 C 204.660 279.200,205.200 279.020,205.200 278.800 C 205.200 278.580,205.488 278.400,205.840 278.400 C 206.485 278.400,208.800 276.198,208.800 275.585 C 208.800 275.403,209.160 275.140,209.600 275.000 C 210.040 274.860,210.400 274.398,210.400 273.973 C 210.400 273.548,210.580 273.200,210.800 273.200 C 211.020 273.200,211.200 272.660,211.200 272.000 C 211.200 271.340,211.380 270.800,211.600 270.800 C 211.820 270.800,211.997 270.395,211.994 269.900 C 211.989 269.172,211.914 269.115,211.600 269.600 C 211.387 269.930,211.209 270.005,211.206 269.767 C 211.203 269.528,211.322 269.211,211.472 269.062 C 211.939 268.594,212.055 265.681,211.617 265.411 C 211.388 265.269,211.200 264.623,211.200 263.976 C 211.200 263.329,211.020 262.800,210.800 262.800 C 210.580 262.800,210.400 262.563,210.400 262.274 C 210.400 261.509,206.579 257.600,205.833 257.600 C 205.485 257.600,205.200 257.420,205.200 257.200 C 205.200 256.980,204.480 256.800,203.600 256.800 C 202.720 256.800,202.000 256.620,202.000 256.400 C 202.000 256.180,201.809 256.000,201.576 256.000 C 201.343 256.000,201.264 256.180,201.400 256.400 C 201.536 256.620,201.472 256.800,201.257 256.800 C 201.042 256.800,200.795 256.584,200.707 256.320 C 200.609 256.028,200.440 256.119,200.273 256.553 M205.123 294.699 C 207.831 294.768,212.151 294.768,214.723 294.699 C 217.295 294.629,215.080 294.572,209.800 294.573 C 204.520 294.573,202.415 294.630,205.123 294.699 M119.200 324.200 C 119.200 324.750,119.335 325.200,119.500 325.200 C 119.665 325.200,119.800 324.750,119.800 324.200 C 119.800 323.650,119.665 323.200,119.500 323.200 C 119.335 323.200,119.200 323.650,119.200 324.200 " stroke="none" fill="#57e430" fill-rule="evenodd"></path><path id="path1" d="M88.500 95.385 C 87.565 95.677,86.800 95.809,86.800 95.678 C 86.800 95.547,86.584 95.656,86.320 95.920 C 86.056 96.184,85.538 96.400,85.169 96.400 C 84.800 96.400,84.276 96.668,84.004 96.996 C 83.732 97.323,83.350 97.493,83.155 97.372 C 82.960 97.251,82.800 97.343,82.800 97.576 C 82.800 97.809,82.620 98.000,82.400 98.000 C 81.822 98.000,77.675 102.334,77.388 103.238 C 77.255 103.657,77.007 104.000,76.837 104.000 C 76.416 104.000,75.600 105.859,75.600 106.819 C 75.600 107.248,75.420 107.600,75.200 107.600 C 74.935 107.600,74.800 136.400,74.800 193.200 C 74.800 254.838,74.922 278.800,75.237 278.800 C 76.240 278.800,81.839 276.630,82.300 276.063 C 82.676 275.600,82.800 272.347,82.800 262.924 L 82.800 250.400 141.200 250.400 L 199.600 250.400 199.600 246.003 L 199.600 241.605 141.200 241.503 C 109.080 241.446,82.755 241.535,82.700 241.701 C 82.600 242.000,82.711 184.344,82.900 137.538 C 82.966 121.187,82.865 112.950,82.600 113.097 C 82.380 113.218,82.425 113.075,82.700 112.779 C 82.975 112.482,83.200 111.950,83.200 111.595 C 83.200 109.954,86.306 105.239,86.958 105.891 C 87.091 106.024,87.200 105.932,87.200 105.685 C 87.200 105.096,89.839 103.853,90.380 104.188 C 90.611 104.330,90.800 104.257,90.800 104.024 C 90.800 103.728,107.179 103.600,145.200 103.600 L 199.600 103.600 199.600 99.200 L 199.600 94.800 144.900 94.827 C 100.613 94.848,89.876 94.955,88.500 95.385 M267.467 109.067 C 267.084 109.449,267.138 110.000,267.557 110.000 C 267.754 110.000,268.018 109.730,268.145 109.400 C 268.379 108.790,267.953 108.581,267.467 109.067 M92.193 109.611 C 92.054 109.836,91.728 109.988,91.470 109.948 C 90.678 109.823,89.600 110.454,89.600 111.043 C 89.600 111.349,89.420 111.600,89.200 111.600 C 88.937 111.600,88.804 121.092,88.813 139.300 L 88.825 167.000 89.793 168.100 C 90.326 168.705,91.030 169.200,91.357 169.200 C 91.685 169.200,92.054 169.364,92.178 169.564 C 92.474 170.043,93.104 169.913,94.780 169.026 C 97.367 167.658,97.200 169.469,97.200 142.829 L 97.200 118.400 148.400 118.400 L 199.600 118.400 199.600 113.800 L 199.600 109.200 146.024 109.200 C 109.815 109.200,92.365 109.333,92.193 109.611 M265.600 110.661 C 265.049 110.952,264.869 111.188,265.200 111.188 C 265.890 111.188,267.070 110.520,266.788 110.289 C 266.685 110.204,266.150 110.371,265.600 110.661 M251.700 115.434 C 250.985 115.746,250.400 116.090,250.400 116.198 C 250.400 116.376,253.576 115.251,253.967 114.935 C 254.395 114.588,252.862 114.926,251.700 115.434 M318.576 123.022 C 317.812 123.634,317.813 123.638,318.600 123.276 C 319.040 123.074,319.670 122.808,320.000 122.686 C 320.518 122.493,320.515 122.459,319.976 122.432 C 319.634 122.414,319.004 122.680,318.576 123.022 M91.100 175.876 C 90.715 175.976,90.400 176.238,90.400 176.458 C 90.400 177.028,89.343 178.010,89.048 177.714 C 88.911 177.578,88.800 189.993,88.800 205.303 L 88.800 233.138 90.031 234.369 L 91.262 235.600 145.431 235.600 L 199.600 235.600 199.600 231.196 L 199.600 226.791 148.400 226.896 L 97.200 227.000 97.200 202.134 L 97.200 177.267 96.000 176.736 C 95.340 176.444,94.800 176.069,94.800 175.902 C 94.800 175.583,92.288 175.565,91.100 175.876 M197.013 256.734 C 196.360 256.809,195.342 257.214,194.751 257.635 C 194.160 258.056,193.508 258.400,193.303 258.400 C 192.888 258.400,191.087 260.350,189.700 262.301 C 189.175 263.041,188.800 264.157,188.800 264.984 C 188.800 265.763,188.620 266.400,188.400 266.400 C 188.180 266.400,188.000 267.019,188.000 267.776 C 188.000 268.533,188.180 269.264,188.400 269.400 C 188.620 269.536,188.800 270.141,188.800 270.744 C 188.800 271.940,189.620 273.992,190.100 273.997 C 190.265 273.999,190.400 274.186,190.400 274.413 C 190.400 274.843,192.999 277.600,193.403 277.600 C 193.530 277.600,194.020 277.960,194.492 278.400 C 195.035 278.905,195.904 279.200,196.852 279.200 C 197.677 279.200,198.464 279.380,198.600 279.600 C 199.316 280.758,199.600 279.588,199.600 275.486 L 199.600 270.972 198.400 270.264 C 196.443 269.108,197.064 265.200,199.205 265.200 C 199.441 265.200,199.600 263.441,199.600 260.825 C 199.600 256.896,199.529 256.457,198.900 256.524 C 198.515 256.565,197.666 256.659,197.013 256.734 M145.800 285.857 C 141.041 286.831,120.800 293.824,120.800 294.494 C 120.800 294.662,131.873 294.800,145.406 294.800 L 170.013 294.800 169.921 296.000 C 169.871 296.660,169.688 297.200,169.515 297.200 C 169.342 297.200,169.200 297.830,169.200 298.600 C 169.200 299.370,169.020 300.000,168.800 300.000 C 168.580 300.000,168.400 300.540,168.400 301.200 C 168.400 301.860,168.220 302.400,168.000 302.400 C 167.780 302.400,167.600 303.030,167.600 303.800 C 167.600 304.570,167.449 305.200,167.265 305.200 C 167.080 305.200,166.904 305.874,166.873 306.697 C 166.842 307.521,166.633 308.256,166.409 308.330 C 166.184 308.405,166.000 308.902,166.000 309.433 C 166.000 309.965,165.809 310.400,165.576 310.400 C 165.343 310.400,165.255 310.565,165.380 310.768 C 165.505 310.970,165.336 311.407,165.004 311.739 C 164.672 312.071,164.400 312.496,164.400 312.684 C 164.400 313.717,158.628 318.400,157.354 318.400 C 157.049 318.400,156.800 318.580,156.800 318.800 C 156.800 319.020,156.361 319.200,155.824 319.200 C 155.287 319.200,154.736 319.380,154.600 319.600 C 154.442 319.856,148.562 320.000,138.276 320.000 L 122.200 320.001 121.100 320.947 C 119.587 322.248,119.506 325.624,120.947 327.300 L 121.893 328.400 160.747 328.400 L 199.600 328.400 199.600 324.200 L 199.600 320.000 185.000 320.000 C 175.533 320.000,170.400 319.859,170.400 319.600 C 170.400 319.380,170.580 319.200,170.800 319.200 C 171.020 319.200,171.200 318.992,171.200 318.738 C 171.200 318.484,171.659 317.674,172.220 316.938 C 172.782 316.202,173.097 315.597,172.920 315.594 C 172.744 315.591,172.780 315.456,173.000 315.294 C 173.646 314.819,174.526 313.080,174.667 312.000 C 175.037 309.167,175.322 308.000,175.644 308.000 C 175.840 308.000,176.000 307.460,176.000 306.800 C 176.000 306.140,176.180 305.600,176.400 305.600 C 176.620 305.600,176.800 304.970,176.800 304.200 C 176.800 303.430,176.980 302.800,177.200 302.800 C 177.420 302.800,177.600 302.271,177.600 301.624 C 177.600 300.977,177.780 300.336,178.000 300.200 C 178.220 300.064,178.400 299.344,178.400 298.600 C 178.400 297.856,178.580 297.136,178.800 297.000 C 179.020 296.864,179.200 296.313,179.200 295.776 L 179.200 294.800 189.400 294.800 L 199.600 294.800 199.600 290.200 L 199.600 285.600 173.100 285.646 C 158.525 285.672,146.240 285.766,145.800 285.857 " stroke="none" fill="#b4fc9c" fill-rule="evenodd"></path><path id="path2" d="M337.205 0.277 C 336.658 0.389,335.730 0.822,335.143 1.240 C 334.557 1.658,333.965 2.000,333.828 2.000 C 333.299 2.000,330.000 5.611,330.000 6.189 C 330.000 6.525,329.820 6.800,329.600 6.800 C 329.380 6.800,329.200 7.160,329.200 7.600 C 329.200 8.040,329.020 8.400,328.800 8.400 C 328.580 8.400,328.400 8.929,328.400 9.576 C 328.400 10.223,328.220 10.864,328.000 11.000 C 327.740 11.161,327.600 20.404,327.600 37.424 C 327.600 54.275,327.460 63.600,327.207 63.600 C 326.992 63.600,325.597 62.465,324.107 61.077 C 319.994 57.245,319.476 56.800,319.127 56.800 C 318.949 56.800,317.885 55.900,316.761 54.800 C 315.638 53.700,314.549 52.800,314.341 52.800 C 314.134 52.800,313.514 52.350,312.964 51.800 C 312.414 51.250,311.811 50.800,311.624 50.800 C 311.437 50.800,310.703 50.257,309.993 49.594 C 309.283 48.930,308.184 48.081,307.551 47.707 C 306.918 47.333,306.400 46.886,306.400 46.714 C 306.400 46.541,306.130 46.400,305.800 46.400 C 305.470 46.400,305.200 46.250,305.200 46.068 C 305.200 45.885,304.705 45.480,304.100 45.168 C 303.495 44.855,302.651 44.285,302.225 43.900 C 301.798 43.515,301.290 43.200,301.096 43.200 C 300.902 43.200,300.473 42.930,300.143 42.600 C 299.813 42.270,299.196 42.000,298.771 42.000 C 298.347 42.000,298.000 41.820,298.000 41.600 C 298.000 41.380,297.680 41.200,297.288 41.200 C 296.897 41.200,296.317 40.840,296.000 40.400 C 295.683 39.960,295.103 39.600,294.712 39.600 C 294.320 39.600,294.000 39.420,294.000 39.200 C 294.000 38.980,293.706 38.800,293.347 38.800 C 292.988 38.800,292.403 38.471,292.047 38.070 C 291.691 37.668,290.815 37.084,290.100 36.772 C 289.385 36.460,288.800 36.069,288.800 35.902 C 288.800 35.736,288.440 35.600,288.000 35.600 C 287.560 35.600,287.200 35.420,287.200 35.200 C 287.200 34.980,286.840 34.800,286.400 34.800 C 285.960 34.800,285.600 34.620,285.600 34.400 C 285.600 34.180,285.240 34.000,284.800 34.000 C 284.360 34.000,284.000 33.820,284.000 33.600 C 284.000 33.380,283.640 33.200,283.200 33.200 C 282.760 33.200,282.400 33.020,282.400 32.800 C 282.400 32.580,282.040 32.400,281.600 32.400 C 281.160 32.400,280.800 32.220,280.800 32.000 C 280.800 31.780,280.440 31.600,280.000 31.600 C 279.560 31.600,279.200 31.420,279.200 31.200 C 279.200 30.980,278.840 30.800,278.400 30.800 C 277.960 30.800,277.600 30.620,277.600 30.400 C 277.600 30.180,277.240 30.000,276.800 30.000 C 276.360 30.000,276.000 29.820,276.000 29.600 C 276.000 29.380,275.728 29.200,275.395 29.200 C 275.062 29.200,274.477 29.035,274.095 28.833 C 272.492 27.985,269.571 26.800,269.084 26.800 C 268.796 26.800,268.389 26.644,268.180 26.453 C 267.617 25.939,263.999 24.800,262.929 24.800 C 262.418 24.800,262.000 24.620,262.000 24.400 C 262.000 24.180,261.651 24.000,261.224 24.000 C 260.797 24.000,260.336 23.820,260.200 23.600 C 260.064 23.380,259.524 23.200,259.000 23.200 C 258.476 23.200,257.936 23.020,257.800 22.800 C 257.664 22.580,257.023 22.400,256.376 22.400 C 255.729 22.400,255.200 22.220,255.200 22.000 C 255.200 21.780,254.660 21.600,254.000 21.600 C 253.340 21.600,252.800 21.420,252.800 21.200 C 252.800 20.980,252.271 20.800,251.624 20.800 C 250.977 20.800,250.336 20.620,250.200 20.400 C 250.064 20.180,249.333 20.000,248.576 20.000 C 247.819 20.000,247.200 19.820,247.200 19.600 C 247.200 19.380,246.480 19.200,245.600 19.200 C 244.720 19.200,244.000 19.020,244.000 18.800 C 244.000 18.580,243.291 18.400,242.424 18.400 C 241.557 18.400,240.736 18.220,240.600 18.000 C 240.464 17.780,239.553 17.600,238.576 17.600 C 237.599 17.600,236.800 17.420,236.800 17.200 C 236.800 16.980,236.001 16.800,235.024 16.800 C 234.047 16.800,233.136 16.620,233.000 16.400 C 232.864 16.180,231.593 16.000,230.176 16.000 C 228.725 16.000,227.600 15.825,227.600 15.600 C 227.600 15.371,226.400 15.200,224.800 15.200 C 223.200 15.200,222.000 15.029,222.000 14.800 C 222.000 14.562,220.475 14.400,218.224 14.400 C 216.137 14.400,214.337 14.221,214.200 14.000 C 213.861 13.451,185.600 13.451,185.600 14.000 C 185.600 14.241,183.933 14.400,181.400 14.400 C 178.867 14.400,177.200 14.559,177.200 14.800 C 177.200 15.029,176.000 15.200,174.400 15.200 C 172.800 15.200,171.600 15.371,171.600 15.600 C 171.600 15.822,170.533 16.000,169.200 16.000 C 167.867 16.000,166.800 16.178,166.800 16.400 C 166.800 16.620,165.911 16.800,164.824 16.800 C 163.737 16.800,162.736 16.980,162.600 17.200 C 162.464 17.420,161.654 17.600,160.800 17.600 C 159.946 17.600,159.136 17.780,159.000 18.000 C 158.864 18.220,158.054 18.400,157.200 18.400 C 156.346 18.400,155.536 18.580,155.400 18.800 C 155.264 19.020,154.443 19.200,153.576 19.200 C 152.709 19.200,152.000 19.380,152.000 19.600 C 152.000 19.820,151.460 20.000,150.800 20.000 C 150.140 20.000,149.600 20.180,149.600 20.400 C 149.600 20.620,148.880 20.800,148.000 20.800 C 147.120 20.800,146.400 20.980,146.400 21.200 C 146.400 21.420,145.860 21.600,145.200 21.600 C 144.540 21.600,144.000 21.780,144.000 22.000 C 144.000 22.220,143.550 22.400,143.000 22.400 C 142.450 22.400,142.000 22.580,142.000 22.800 C 142.000 23.020,141.460 23.200,140.800 23.200 C 140.140 23.200,139.600 23.380,139.600 23.600 C 139.600 23.820,139.060 24.000,138.400 24.000 C 137.740 24.000,137.200 24.180,137.200 24.400 C 137.200 24.620,136.782 24.800,136.271 24.800 C 135.201 24.800,131.583 25.939,131.020 26.453 C 130.811 26.644,130.411 26.800,130.130 26.800 C 129.850 26.800,128.441 27.340,127.000 28.000 C 125.559 28.660,124.114 29.200,123.790 29.200 C 123.465 29.200,123.200 29.380,123.200 29.600 C 123.200 29.820,122.840 30.000,122.400 30.000 C 121.960 30.000,121.600 30.180,121.600 30.400 C 121.600 30.620,121.240 30.800,120.800 30.800 C 120.360 30.800,120.000 30.980,120.000 31.200 C 120.000 31.420,119.640 31.600,119.200 31.600 C 118.760 31.600,118.400 31.780,118.400 32.000 C 118.400 32.220,118.040 32.400,117.600 32.400 C 117.160 32.400,116.800 32.580,116.800 32.800 C 116.800 33.020,116.440 33.200,116.000 33.200 C 115.560 33.200,115.200 33.380,115.200 33.600 C 115.200 33.820,114.840 34.000,114.400 34.000 C 113.960 34.000,113.600 34.180,113.600 34.400 C 113.600 34.620,113.240 34.800,112.800 34.800 C 112.360 34.800,112.000 34.980,112.000 35.200 C 112.000 35.420,111.640 35.600,111.200 35.600 C 110.760 35.600,110.400 35.780,110.400 36.000 C 110.400 36.220,110.130 36.400,109.800 36.400 C 109.470 36.400,109.200 36.580,109.200 36.800 C 109.200 37.020,108.880 37.200,108.488 37.200 C 108.097 37.200,107.517 37.560,107.200 38.000 C 106.883 38.440,106.303 38.800,105.912 38.800 C 105.520 38.800,105.200 38.980,105.200 39.200 C 105.200 39.420,104.922 39.600,104.583 39.600 C 104.244 39.600,103.580 39.960,103.108 40.400 C 102.636 40.840,102.013 41.200,101.725 41.200 C 101.436 41.200,101.200 41.380,101.200 41.600 C 101.200 41.820,100.938 42.000,100.618 42.000 C 100.090 42.000,97.722 43.382,96.517 44.394 C 96.251 44.617,95.891 44.800,95.717 44.800 C 95.402 44.801,94.020 45.886,91.893 47.803 C 91.284 48.351,90.601 48.800,90.375 48.800 C 90.149 48.800,89.514 49.250,88.964 49.800 C 88.414 50.350,87.798 50.800,87.595 50.800 C 87.392 50.800,86.597 51.430,85.827 52.200 C 85.057 52.970,84.262 53.600,84.062 53.600 C 83.861 53.600,82.955 54.320,82.048 55.200 C 81.141 56.080,80.236 56.800,80.036 56.800 C 79.836 56.800,78.441 57.981,76.936 59.424 C 75.431 60.867,73.586 62.518,72.836 63.093 C 70.899 64.578,64.171 71.362,63.321 72.688 C 62.929 73.300,61.826 74.511,60.869 75.379 C 59.912 76.248,58.569 77.778,57.884 78.779 C 57.198 79.781,55.954 81.261,55.119 82.069 C 54.283 82.876,53.600 83.749,53.600 84.008 C 53.600 84.267,53.060 84.983,52.400 85.600 C 51.740 86.217,51.200 86.937,51.200 87.200 C 51.200 87.463,50.660 88.183,50.000 88.800 C 49.340 89.417,48.800 90.143,48.800 90.414 C 48.800 90.684,48.474 91.197,48.075 91.553 C 47.676 91.909,46.743 93.100,46.001 94.200 C 45.260 95.300,44.529 96.290,44.378 96.400 C 44.227 96.510,43.592 97.590,42.968 98.800 C 42.344 100.010,41.690 101.060,41.516 101.133 C 41.342 101.207,41.200 101.572,41.200 101.945 C 41.200 102.318,40.840 102.883,40.400 103.200 C 39.960 103.517,39.600 104.097,39.600 104.488 C 39.600 104.880,39.420 105.200,39.200 105.200 C 38.980 105.200,38.800 105.560,38.800 106.000 C 38.800 106.440,38.620 106.800,38.400 106.800 C 38.180 106.800,38.000 107.094,38.000 107.453 C 38.000 107.812,37.671 108.397,37.270 108.753 C 36.868 109.109,36.284 109.985,35.972 110.700 C 35.660 111.415,35.269 112.000,35.102 112.000 C 34.936 112.000,34.800 112.360,34.800 112.800 C 34.800 113.240,34.620 113.600,34.400 113.600 C 34.180 113.600,34.000 113.960,34.000 114.400 C 34.000 114.840,33.820 115.200,33.600 115.200 C 33.380 115.200,33.200 115.560,33.200 116.000 C 33.200 116.440,33.020 116.800,32.800 116.800 C 32.580 116.800,32.400 117.160,32.400 117.600 C 32.400 118.040,32.220 118.400,32.000 118.400 C 31.780 118.400,31.600 118.760,31.600 119.200 C 31.600 119.640,31.420 120.000,31.200 120.000 C 30.980 120.000,30.800 120.360,30.800 120.800 C 30.800 121.240,30.620 121.600,30.400 121.600 C 30.180 121.600,30.000 121.949,30.000 122.376 C 30.000 122.803,29.820 123.264,29.600 123.400 C 29.380 123.536,29.200 124.087,29.200 124.624 C 29.200 125.161,29.064 125.600,28.898 125.600 C 28.731 125.600,28.356 126.185,28.064 126.900 C 26.941 129.650,26.696 130.222,26.353 130.895 C 26.159 131.277,26.000 131.841,26.000 132.149 C 26.000 132.457,25.731 133.224,25.402 133.854 C 25.074 134.484,24.804 135.495,24.802 136.100 C 24.801 136.705,24.620 137.200,24.400 137.200 C 24.180 137.200,24.000 137.740,24.000 138.400 C 24.000 139.060,23.820 139.600,23.600 139.600 C 23.380 139.600,23.200 140.140,23.200 140.800 C 23.200 141.460,23.020 142.000,22.800 142.000 C 22.580 142.000,22.400 142.450,22.400 143.000 C 22.400 143.550,22.220 144.000,22.000 144.000 C 21.780 144.000,21.600 144.540,21.600 145.200 C 21.600 145.860,21.420 146.400,21.200 146.400 C 20.980 146.400,20.800 147.120,20.800 148.000 C 20.800 148.880,20.620 149.600,20.400 149.600 C 20.180 149.600,20.000 150.129,20.000 150.776 C 20.000 151.423,19.820 152.064,19.600 152.200 C 19.380 152.336,19.200 153.067,19.200 153.824 C 19.200 154.581,19.020 155.200,18.800 155.200 C 18.580 155.200,18.400 156.100,18.400 157.200 C 18.400 158.300,18.220 159.200,18.000 159.200 C 17.780 159.200,17.600 159.909,17.600 160.776 C 17.600 161.643,17.420 162.464,17.200 162.600 C 16.980 162.736,16.800 163.737,16.800 164.824 C 16.800 165.911,16.620 166.800,16.400 166.800 C 16.178 166.800,16.000 167.867,16.000 169.200 C 16.000 170.533,15.822 171.600,15.600 171.600 C 15.369 171.600,15.200 172.867,15.200 174.600 C 15.200 176.333,15.031 177.600,14.800 177.600 C 14.560 177.600,14.400 179.192,14.400 181.576 C 14.400 183.796,14.223 185.662,14.000 185.800 C 13.455 186.137,13.455 204.400,14.000 204.400 C 14.220 204.400,14.400 204.762,14.400 205.205 C 14.400 206.165,15.077 207.418,16.269 208.665 C 16.747 209.165,17.254 209.940,17.396 210.387 C 17.538 210.834,17.962 211.200,18.339 211.200 C 18.715 211.200,19.283 211.560,19.600 212.000 C 19.917 212.440,20.497 212.800,20.888 212.800 C 21.280 212.800,21.600 212.980,21.600 213.200 C 21.600 213.420,21.960 213.600,22.400 213.600 C 22.840 213.600,23.200 213.780,23.200 214.000 C 23.200 214.220,23.819 214.400,24.576 214.400 C 25.333 214.400,26.064 214.580,26.200 214.800 C 26.522 215.321,30.678 215.321,31.000 214.800 C 31.136 214.580,31.856 214.400,32.600 214.400 C 33.344 214.400,34.064 214.220,34.200 214.000 C 34.336 213.780,34.797 213.600,35.224 213.600 C 35.651 213.600,36.000 213.420,36.000 213.200 C 36.000 212.980,36.270 212.800,36.600 212.800 C 36.930 212.800,37.200 212.620,37.200 212.400 C 37.200 212.180,37.470 212.000,37.800 212.000 C 38.130 212.000,38.400 211.820,38.400 211.600 C 38.400 211.380,38.658 211.200,38.973 211.200 C 39.288 211.200,39.653 210.864,39.783 210.453 C 39.914 210.042,40.376 209.384,40.810 208.991 C 41.245 208.598,41.600 207.944,41.600 207.538 C 41.600 207.132,41.780 206.800,42.000 206.800 C 42.220 206.800,42.400 206.350,42.400 205.800 C 42.400 205.250,42.580 204.800,42.800 204.800 C 43.043 204.800,43.200 203.000,43.200 200.200 C 43.200 197.400,43.357 195.600,43.600 195.600 C 43.848 195.600,44.000 193.400,44.000 189.800 C 44.000 186.200,44.152 184.000,44.400 184.000 C 44.633 184.000,44.800 182.667,44.800 180.800 C 44.800 178.933,44.967 177.600,45.200 177.600 C 45.420 177.600,45.600 176.621,45.600 175.424 C 45.600 174.227,45.780 173.136,46.000 173.000 C 46.220 172.864,46.400 171.874,46.400 170.800 C 46.400 169.726,46.580 168.736,46.800 168.600 C 47.020 168.464,47.200 167.834,47.200 167.200 C 47.200 166.566,47.380 165.936,47.600 165.800 C 47.820 165.664,48.000 164.933,48.000 164.176 C 48.000 163.419,48.180 162.800,48.400 162.800 C 48.620 162.800,48.800 162.080,48.800 161.200 C 48.800 160.320,48.980 159.600,49.200 159.600 C 49.420 159.600,49.600 158.981,49.600 158.224 C 49.600 157.467,49.780 156.736,50.000 156.600 C 50.220 156.464,50.400 155.733,50.400 154.976 C 50.400 154.219,50.580 153.600,50.800 153.600 C 51.020 153.600,51.200 153.161,51.200 152.624 C 51.200 152.087,51.380 151.536,51.600 151.400 C 51.820 151.264,52.000 150.803,52.000 150.376 C 52.000 149.949,52.180 149.600,52.400 149.600 C 52.620 149.600,52.800 149.060,52.800 148.400 C 52.800 147.740,52.980 147.200,53.200 147.200 C 53.420 147.200,53.600 146.660,53.600 146.000 C 53.600 145.340,53.747 144.800,53.928 144.800 C 54.108 144.800,54.500 143.900,54.800 142.800 C 55.100 141.700,55.492 140.800,55.672 140.800 C 55.853 140.800,56.000 140.475,56.000 140.077 C 56.000 139.679,56.629 138.104,57.399 136.577 C 58.168 135.050,58.798 133.485,58.799 133.100 C 58.799 132.715,58.980 132.400,59.200 132.400 C 59.420 132.400,59.600 132.040,59.600 131.600 C 59.600 131.160,59.780 130.800,60.000 130.800 C 60.220 130.800,60.400 130.440,60.400 130.000 C 60.400 129.560,60.580 129.200,60.800 129.200 C 61.020 129.200,61.200 128.840,61.200 128.400 C 61.200 127.960,61.380 127.600,61.600 127.600 C 61.820 127.600,62.000 127.240,62.000 126.800 C 62.000 126.360,62.136 126.000,62.302 126.000 C 62.469 126.000,62.864 125.415,63.180 124.700 C 63.497 123.985,64.080 123.051,64.478 122.625 C 64.875 122.198,65.200 121.613,65.200 121.325 C 65.200 121.036,65.380 120.800,65.600 120.800 C 65.820 120.800,66.000 120.564,66.000 120.275 C 66.000 119.987,66.360 119.364,66.800 118.892 C 67.240 118.420,67.600 117.756,67.600 117.417 C 67.600 117.078,67.780 116.800,68.000 116.800 C 68.220 116.800,68.400 116.564,68.400 116.275 C 68.400 115.987,68.760 115.364,69.200 114.892 C 69.640 114.420,70.000 113.822,70.000 113.564 C 70.000 113.305,70.332 112.803,70.737 112.447 C 71.143 112.091,71.697 111.380,71.970 110.866 C 72.464 109.932,73.580 108.511,74.900 107.131 C 75.285 106.729,75.555 106.333,75.500 106.250 C 75.188 105.783,78.661 101.339,81.877 98.092 C 83.925 96.024,85.600 94.185,85.600 94.005 C 85.600 93.574,93.580 85.600,94.012 85.600 C 94.195 85.600,95.799 84.160,97.576 82.400 C 99.352 80.640,100.958 79.200,101.144 79.200 C 101.329 79.200,102.046 78.660,102.737 78.000 C 103.428 77.340,104.174 76.800,104.396 76.800 C 104.618 76.800,104.800 76.620,104.800 76.400 C 104.800 76.180,105.070 76.000,105.400 76.000 C 105.730 76.000,106.000 75.859,106.000 75.686 C 106.000 75.514,106.495 75.073,107.100 74.706 C 107.705 74.340,108.723 73.581,109.362 73.020 C 110.001 72.459,110.668 72.000,110.844 72.000 C 111.020 72.000,111.614 71.550,112.164 71.000 C 112.714 70.450,113.442 70.000,113.782 70.000 C 114.122 70.000,114.400 69.842,114.400 69.649 C 114.400 69.455,114.940 69.073,115.600 68.800 C 116.260 68.527,116.800 68.145,116.800 67.951 C 116.800 67.758,117.078 67.600,117.417 67.600 C 117.756 67.600,118.420 67.240,118.892 66.800 C 119.364 66.360,119.987 66.000,120.275 66.000 C 120.564 66.000,120.800 65.820,120.800 65.600 C 120.800 65.380,121.036 65.200,121.325 65.200 C 121.613 65.200,122.236 64.840,122.708 64.400 C 123.180 63.960,123.844 63.600,124.183 63.600 C 124.522 63.600,124.800 63.420,124.800 63.200 C 124.800 62.980,125.070 62.800,125.400 62.800 C 125.730 62.800,126.000 62.620,126.000 62.400 C 126.000 62.180,126.360 62.000,126.800 62.000 C 127.240 62.000,127.600 61.820,127.600 61.600 C 127.600 61.380,127.960 61.200,128.400 61.200 C 128.840 61.200,129.200 61.020,129.200 60.800 C 129.200 60.580,129.560 60.400,130.000 60.400 C 130.440 60.400,130.800 60.220,130.800 60.000 C 130.800 59.780,131.160 59.600,131.600 59.600 C 132.040 59.600,132.400 59.420,132.400 59.200 C 132.400 58.980,132.715 58.799,133.100 58.799 C 133.485 58.798,135.050 58.168,136.577 57.399 C 138.104 56.629,139.679 56.000,140.077 56.000 C 140.475 56.000,140.800 55.820,140.800 55.600 C 140.800 55.380,141.239 55.200,141.776 55.200 C 142.313 55.200,142.864 55.020,143.000 54.800 C 143.136 54.580,143.597 54.400,144.024 54.400 C 144.451 54.400,144.800 54.220,144.800 54.000 C 144.800 53.780,145.340 53.600,146.000 53.600 C 146.660 53.600,147.200 53.420,147.200 53.200 C 147.200 52.980,147.740 52.800,148.400 52.800 C 149.060 52.800,149.600 52.620,149.600 52.400 C 149.600 52.180,150.039 52.000,150.576 52.000 C 151.113 52.000,151.664 51.820,151.800 51.600 C 151.936 51.380,152.397 51.200,152.824 51.200 C 153.251 51.200,153.600 51.020,153.600 50.800 C 153.600 50.580,154.219 50.400,154.976 50.400 C 155.733 50.400,156.464 50.220,156.600 50.000 C 156.736 49.780,157.467 49.600,158.224 49.600 C 158.981 49.600,159.600 49.420,159.600 49.200 C 159.600 48.980,160.320 48.800,161.200 48.800 C 162.080 48.800,162.800 48.620,162.800 48.400 C 162.800 48.180,163.520 48.000,164.400 48.000 C 165.280 48.000,166.000 47.820,166.000 47.600 C 166.000 47.380,166.619 47.200,167.376 47.200 C 168.133 47.200,168.864 47.020,169.000 46.800 C 169.136 46.580,170.036 46.400,171.000 46.400 C 171.964 46.400,172.864 46.220,173.000 46.000 C 173.136 45.780,174.227 45.600,175.424 45.600 C 176.621 45.600,177.600 45.420,177.600 45.200 C 177.600 44.967,178.933 44.800,180.800 44.800 C 182.667 44.800,184.000 44.633,184.000 44.400 C 184.000 44.149,186.467 44.000,190.600 44.000 C 194.733 44.000,197.200 43.851,197.200 43.600 C 197.200 43.371,198.400 43.200,200.000 43.200 C 201.600 43.200,202.800 43.371,202.800 43.600 C 202.800 43.851,205.267 44.000,209.400 44.000 C 213.533 44.000,216.000 44.149,216.000 44.400 C 216.000 44.628,217.192 44.800,218.776 44.800 C 220.303 44.800,221.664 44.980,221.800 45.200 C 221.936 45.420,223.117 45.600,224.424 45.600 C 225.741 45.600,226.800 45.778,226.800 46.000 C 226.800 46.220,227.700 46.400,228.800 46.400 C 229.900 46.400,230.800 46.580,230.800 46.800 C 230.800 47.020,231.599 47.200,232.576 47.200 C 233.553 47.200,234.464 47.380,234.600 47.600 C 234.736 47.820,235.557 48.000,236.424 48.000 C 237.291 48.000,238.000 48.180,238.000 48.400 C 238.000 48.620,238.720 48.800,239.600 48.800 C 240.480 48.800,241.200 48.980,241.200 49.200 C 241.200 49.420,241.639 49.600,242.176 49.600 C 242.713 49.600,243.264 49.780,243.400 50.000 C 243.536 50.220,244.166 50.400,244.800 50.400 C 245.434 50.400,246.064 50.580,246.200 50.800 C 246.336 51.020,246.977 51.200,247.624 51.200 C 248.271 51.200,248.800 51.347,248.800 51.528 C 248.800 51.708,249.711 52.104,250.825 52.407 C 251.939 52.710,252.940 53.103,253.049 53.279 C 253.158 53.456,253.687 53.600,254.224 53.600 C 254.761 53.600,255.200 53.780,255.200 54.000 C 255.200 54.220,255.639 54.400,256.176 54.400 C 256.713 54.400,257.264 54.580,257.400 54.800 C 257.536 55.020,257.997 55.200,258.424 55.200 C 258.851 55.200,259.200 55.380,259.200 55.600 C 259.200 55.820,259.472 56.000,259.805 56.000 C 260.138 56.000,260.723 56.164,261.105 56.365 C 263.298 57.518,266.370 58.800,266.940 58.800 C 267.303 58.800,267.600 58.980,267.600 59.200 C 267.600 59.420,267.960 59.600,268.400 59.600 C 268.840 59.600,269.200 59.780,269.200 60.000 C 269.200 60.220,269.560 60.400,270.000 60.400 C 270.440 60.400,270.800 60.580,270.800 60.800 C 270.800 61.020,271.160 61.200,271.600 61.200 C 272.040 61.200,272.400 61.380,272.400 61.600 C 272.400 61.820,272.760 62.000,273.200 62.000 C 273.640 62.000,274.000 62.180,274.000 62.400 C 274.000 62.620,274.360 62.800,274.800 62.800 C 275.240 62.800,275.600 62.980,275.600 63.200 C 275.600 63.420,275.870 63.600,276.200 63.600 C 276.530 63.600,276.800 63.780,276.800 64.000 C 276.800 64.220,277.070 64.400,277.400 64.400 C 277.730 64.400,278.000 64.580,278.000 64.800 C 278.000 65.020,278.270 65.200,278.600 65.200 C 278.930 65.200,279.200 65.380,279.200 65.600 C 279.200 65.820,279.478 66.000,279.817 66.000 C 280.156 66.000,280.820 66.360,281.292 66.800 C 281.764 67.240,282.387 67.600,282.675 67.600 C 282.964 67.600,283.200 67.780,283.200 68.000 C 283.200 68.220,283.520 68.400,283.912 68.400 C 284.303 68.400,284.883 68.760,285.200 69.200 C 285.517 69.640,286.057 70.000,286.400 70.000 C 286.743 70.000,287.283 70.360,287.600 70.800 C 287.917 71.240,288.413 71.600,288.703 71.600 C 288.992 71.600,289.627 71.961,290.114 72.403 C 291.874 73.999,293.524 75.200,293.958 75.200 C 294.201 75.200,294.400 75.380,294.400 75.600 C 294.400 75.820,294.598 76.000,294.840 76.000 C 295.081 76.000,295.783 76.540,296.400 77.200 C 297.017 77.860,297.719 78.400,297.960 78.400 C 298.202 78.400,298.400 78.580,298.400 78.800 C 298.400 79.020,298.579 79.200,298.798 79.200 C 299.017 79.200,300.115 80.100,301.239 81.200 C 302.362 82.300,303.445 83.200,303.645 83.200 C 304.262 83.200,314.024 93.337,313.702 93.644 C 313.536 93.803,312.950 93.993,312.400 94.066 C 311.850 94.140,311.234 94.577,311.032 95.038 C 310.586 96.052,310.583 96.054,298.636 100.034 C 291.704 102.344,288.264 103.289,286.136 103.469 C 284.521 103.606,283.200 103.871,283.200 104.059 C 283.200 104.246,282.660 104.400,282.000 104.400 C 281.340 104.400,280.800 104.580,280.800 104.800 C 280.800 105.020,280.260 105.200,279.600 105.200 C 278.940 105.200,278.400 105.380,278.400 105.600 C 278.400 105.820,277.860 106.000,277.200 106.000 C 276.540 106.000,276.000 106.180,276.000 106.400 C 276.000 106.620,275.550 106.800,275.000 106.800 C 274.450 106.800,274.000 106.980,274.000 107.200 C 274.000 107.420,273.460 107.600,272.800 107.600 C 272.140 107.600,271.600 107.780,271.600 108.000 C 271.600 108.220,271.060 108.400,270.400 108.400 C 269.733 108.400,268.844 108.756,268.400 109.200 C 267.960 109.640,267.435 110.000,267.233 110.000 C 267.032 110.000,266.807 110.167,266.733 110.371 C 266.660 110.575,263.540 111.756,259.800 112.996 C 256.060 114.235,251.599 115.958,249.887 116.825 C 248.175 117.691,246.592 118.400,246.369 118.400 C 245.737 118.400,244.000 120.293,244.000 120.982 C 244.000 121.322,243.859 121.600,243.687 121.600 C 242.464 121.600,241.602 132.562,242.736 133.696 C 242.991 133.951,243.200 134.484,243.200 134.880 C 243.200 135.276,243.380 135.600,243.600 135.600 C 243.820 135.600,244.000 135.883,244.000 136.229 C 244.000 136.574,244.278 137.159,244.617 137.529 C 247.092 140.220,248.346 141.277,249.300 141.473 C 249.905 141.598,250.400 141.858,250.400 142.050 C 250.400 142.243,250.760 142.400,251.200 142.400 C 251.640 142.400,252.000 142.580,252.000 142.800 C 252.000 143.045,253.933 143.200,257.000 143.200 C 260.067 143.200,262.000 143.045,262.000 142.800 C 262.000 142.580,262.540 142.400,263.200 142.400 C 263.860 142.400,264.400 142.241,264.400 142.046 C 264.400 141.851,265.387 141.569,266.594 141.418 C 267.800 141.267,268.891 140.977,269.017 140.772 C 269.144 140.567,269.676 140.400,270.200 140.400 C 270.724 140.400,271.264 140.220,271.400 140.000 C 271.536 139.780,272.076 139.600,272.600 139.600 C 273.124 139.600,273.664 139.420,273.800 139.200 C 273.936 138.980,274.487 138.800,275.024 138.800 C 275.561 138.800,276.000 138.620,276.000 138.400 C 276.000 138.180,276.540 138.000,277.200 138.000 C 277.860 138.000,278.400 137.820,278.400 137.600 C 278.400 137.380,278.940 137.200,279.600 137.200 C 280.260 137.200,280.800 137.020,280.800 136.800 C 280.800 136.580,281.340 136.400,282.000 136.400 C 282.660 136.400,283.200 136.220,283.200 136.000 C 283.200 135.780,283.740 135.600,284.400 135.600 C 285.060 135.600,285.600 135.420,285.600 135.200 C 285.600 134.980,286.140 134.800,286.800 134.800 C 287.460 134.800,288.000 134.620,288.000 134.400 C 288.000 134.180,288.439 134.000,288.976 134.000 C 289.513 134.000,290.064 133.820,290.200 133.600 C 290.336 133.380,290.887 133.200,291.424 133.200 C 291.961 133.200,292.400 133.020,292.400 132.800 C 292.400 132.580,292.940 132.400,293.600 132.400 C 294.260 132.400,294.800 132.220,294.800 132.000 C 294.800 131.780,295.340 131.600,296.000 131.600 C 296.660 131.600,297.200 131.420,297.200 131.200 C 297.200 130.980,297.740 130.800,298.400 130.800 C 299.060 130.800,299.600 130.620,299.600 130.400 C 299.600 130.180,300.056 130.000,300.613 130.000 C 301.209 130.000,302.104 129.512,302.786 128.815 C 303.423 128.163,304.452 127.522,305.072 127.390 C 305.693 127.259,306.513 126.983,306.895 126.776 C 307.277 126.569,307.941 126.400,308.371 126.400 C 308.801 126.400,309.258 126.229,309.388 126.020 C 309.518 125.810,310.508 125.745,311.611 125.876 C 312.970 126.037,313.600 125.967,313.600 125.656 C 313.600 125.405,314.134 125.200,314.786 125.200 C 315.528 125.200,316.474 124.760,317.313 124.023 C 318.864 122.661,324.396 120.639,324.980 121.221 C 325.486 121.725,327.600 121.708,327.600 121.200 C 327.600 120.980,328.140 120.800,328.800 120.800 C 329.460 120.800,330.000 120.620,330.000 120.400 C 330.000 120.180,330.540 120.000,331.200 120.000 C 331.860 120.000,332.400 119.820,332.400 119.600 C 332.400 119.380,332.940 119.200,333.600 119.200 C 334.260 119.200,334.800 119.020,334.800 118.800 C 334.800 118.580,335.340 118.400,336.000 118.400 C 336.660 118.400,337.200 118.220,337.200 118.000 C 337.200 117.780,337.639 117.600,338.176 117.600 C 338.713 117.600,339.264 117.420,339.400 117.200 C 339.536 116.980,340.087 116.800,340.624 116.800 C 341.161 116.800,341.600 116.620,341.600 116.400 C 341.600 116.180,342.140 116.000,342.800 116.000 C 343.460 116.000,344.000 115.820,344.000 115.600 C 344.000 115.380,344.540 115.200,345.200 115.200 C 345.860 115.200,346.400 115.020,346.400 114.800 C 346.400 114.580,346.940 114.400,347.600 114.400 C 348.260 114.400,348.800 114.220,348.800 114.000 C 348.800 113.780,349.160 113.600,349.600 113.600 C 350.040 113.600,350.400 113.420,350.400 113.200 C 350.400 112.980,350.641 112.800,350.936 112.800 C 352.856 112.800,357.063 106.615,357.740 102.800 C 358.690 97.443,358.145 9.200,357.161 9.200 C 356.963 9.200,356.800 8.928,356.800 8.595 C 356.800 7.930,356.082 6.537,355.300 5.687 C 355.025 5.388,354.800 5.003,354.800 4.833 C 354.800 4.312,353.463 3.027,352.300 2.430 C 351.695 2.119,351.200 1.715,351.200 1.532 C 351.200 1.350,350.855 1.200,350.433 1.200 C 350.012 1.200,349.592 0.975,349.500 0.700 C 349.329 0.185,339.333 -0.160,337.205 0.277 M369.000 185.200 C 368.864 185.420,368.144 185.600,367.400 185.600 C 366.656 185.600,365.936 185.780,365.800 186.000 C 365.664 186.220,365.203 186.400,364.776 186.400 C 364.349 186.400,364.000 186.580,364.000 186.800 C 364.000 187.020,363.730 187.200,363.400 187.200 C 363.070 187.200,362.800 187.380,362.800 187.600 C 362.800 187.820,362.530 188.000,362.200 188.000 C 361.870 188.000,361.600 188.180,361.600 188.400 C 361.600 188.620,361.375 188.807,361.100 188.815 C 360.570 188.830,358.400 191.994,358.400 192.752 C 358.400 192.998,358.220 193.200,358.000 193.200 C 357.780 193.200,357.600 193.650,357.600 194.200 C 357.600 194.750,357.420 195.200,357.200 195.200 C 356.957 195.200,356.800 197.000,356.800 199.800 C 356.800 202.600,356.643 204.400,356.400 204.400 C 356.152 204.400,356.000 206.600,356.000 210.200 C 356.000 213.800,355.848 216.000,355.600 216.000 C 355.367 216.000,355.200 217.333,355.200 219.200 C 355.200 221.067,355.033 222.400,354.800 222.400 C 354.580 222.400,354.400 223.379,354.400 224.576 C 354.400 225.773,354.220 226.864,354.000 227.000 C 353.780 227.136,353.600 228.126,353.600 229.200 C 353.600 230.274,353.420 231.264,353.200 231.400 C 352.980 231.536,352.800 232.166,352.800 232.800 C 352.800 233.434,352.620 234.064,352.400 234.200 C 352.180 234.336,352.000 235.067,352.000 235.824 C 352.000 236.581,351.820 237.200,351.600 237.200 C 351.380 237.200,351.200 237.920,351.200 238.800 C 351.200 239.680,351.020 240.400,350.800 240.400 C 350.580 240.400,350.400 241.019,350.400 241.776 C 350.400 242.533,350.220 243.264,350.000 243.400 C 349.780 243.536,349.600 244.267,349.600 245.024 C 349.600 245.781,349.420 246.400,349.200 246.400 C 348.980 246.400,348.800 246.839,348.800 247.376 C 348.800 247.913,348.620 248.464,348.400 248.600 C 348.180 248.736,348.000 249.197,348.000 249.624 C 348.000 250.051,347.820 250.400,347.600 250.400 C 347.380 250.400,347.200 250.940,347.200 251.600 C 347.200 252.260,347.020 252.800,346.800 252.800 C 346.580 252.800,346.400 253.340,346.400 254.000 C 346.400 254.660,346.253 255.200,346.072 255.200 C 345.892 255.200,345.500 256.100,345.200 257.200 C 344.900 258.300,344.508 259.200,344.328 259.200 C 344.147 259.200,344.000 259.543,344.000 259.962 C 344.000 260.381,343.653 261.416,343.230 262.262 C 341.769 265.180,341.200 266.525,341.200 267.061 C 341.200 267.358,341.020 267.600,340.800 267.600 C 340.580 267.600,340.400 267.960,340.400 268.400 C 340.400 268.840,340.220 269.200,340.000 269.200 C 339.780 269.200,339.600 269.560,339.600 270.000 C 339.600 270.440,339.420 270.800,339.200 270.800 C 338.980 270.800,338.800 271.160,338.800 271.600 C 338.800 272.040,338.620 272.400,338.400 272.400 C 338.180 272.400,338.000 272.760,338.000 273.200 C 338.000 273.640,337.820 274.000,337.600 274.000 C 337.380 274.000,337.200 274.360,337.200 274.800 C 337.200 275.240,337.020 275.600,336.800 275.600 C 336.580 275.600,336.400 275.788,336.400 276.017 C 336.400 276.246,336.040 276.820,335.600 277.292 C 335.160 277.764,334.800 278.387,334.800 278.675 C 334.800 278.964,334.620 279.200,334.400 279.200 C 334.180 279.200,334.000 279.436,334.000 279.725 C 334.000 280.013,333.640 280.636,333.200 281.108 C 332.760 281.580,332.400 282.244,332.400 282.583 C 332.400 282.922,332.220 283.200,332.000 283.200 C 331.780 283.200,331.600 283.436,331.600 283.725 C 331.600 284.013,331.240 284.636,330.800 285.108 C 330.360 285.580,330.000 286.162,330.000 286.401 C 330.000 286.641,329.550 287.286,329.000 287.836 C 328.450 288.386,328.000 288.980,328.000 289.156 C 328.000 289.332,327.541 289.999,326.980 290.638 C 326.419 291.277,325.660 292.295,325.294 292.900 C 324.927 293.505,324.486 294.000,324.314 294.000 C 324.141 294.000,324.000 294.270,324.000 294.600 C 324.000 294.930,323.820 295.200,323.600 295.200 C 323.380 295.200,323.200 295.430,323.200 295.712 C 323.200 295.993,322.840 296.483,322.400 296.800 C 321.960 297.117,321.600 297.607,321.600 297.888 C 321.600 298.170,321.420 298.400,321.200 298.400 C 320.980 298.400,320.800 298.579,320.800 298.797 C 320.800 299.015,319.360 300.648,317.600 302.424 C 315.840 304.201,314.400 305.805,314.400 305.988 C 314.400 306.424,306.424 314.400,305.988 314.400 C 305.805 314.400,304.201 315.840,302.424 317.600 C 300.648 319.360,299.042 320.800,298.856 320.800 C 298.671 320.800,297.954 321.340,297.263 322.000 C 296.572 322.660,295.826 323.200,295.604 323.200 C 295.382 323.200,295.200 323.380,295.200 323.600 C 295.200 323.820,294.930 324.000,294.600 324.000 C 294.270 324.000,294.000 324.141,294.000 324.314 C 294.000 324.486,293.505 324.927,292.900 325.294 C 292.295 325.660,291.277 326.419,290.638 326.980 C 289.999 327.541,289.332 328.000,289.156 328.000 C 288.980 328.000,288.386 328.450,287.836 329.000 C 287.286 329.550,286.558 330.000,286.218 330.000 C 285.878 330.000,285.600 330.158,285.600 330.351 C 285.600 330.545,285.060 330.927,284.400 331.200 C 283.740 331.473,283.200 331.855,283.200 332.049 C 283.200 332.242,282.922 332.400,282.583 332.400 C 282.244 332.400,281.580 332.760,281.108 333.200 C 280.636 333.640,280.013 334.000,279.725 334.000 C 279.436 334.000,279.200 334.180,279.200 334.400 C 279.200 334.620,278.964 334.800,278.675 334.800 C 278.387 334.800,277.764 335.160,277.292 335.600 C 276.820 336.040,276.246 336.400,276.017 336.400 C 275.788 336.400,275.600 336.580,275.600 336.800 C 275.600 337.020,275.240 337.200,274.800 337.200 C 274.360 337.200,274.000 337.380,274.000 337.600 C 274.000 337.820,273.640 338.000,273.200 338.000 C 272.760 338.000,272.400 338.180,272.400 338.400 C 272.400 338.620,272.040 338.800,271.600 338.800 C 271.160 338.800,270.800 338.980,270.800 339.200 C 270.800 339.420,270.440 339.600,270.000 339.600 C 269.560 339.600,269.200 339.780,269.200 340.000 C 269.200 340.220,268.840 340.400,268.400 340.400 C 267.960 340.400,267.600 340.580,267.600 340.800 C 267.600 341.020,267.358 341.200,267.061 341.200 C 266.525 341.200,265.180 341.769,262.262 343.230 C 261.416 343.653,260.381 344.000,259.962 344.000 C 259.543 344.000,259.200 344.180,259.200 344.400 C 259.200 344.620,258.761 344.800,258.224 344.800 C 257.687 344.800,257.136 344.980,257.000 345.200 C 256.864 345.420,256.403 345.600,255.976 345.600 C 255.549 345.600,255.200 345.780,255.200 346.000 C 255.200 346.220,254.660 346.400,254.000 346.400 C 253.340 346.400,252.800 346.580,252.800 346.800 C 252.800 347.020,252.260 347.200,251.600 347.200 C 250.940 347.200,250.400 347.380,250.400 347.600 C 250.400 347.820,249.961 348.000,249.424 348.000 C 248.887 348.000,248.336 348.180,248.200 348.400 C 248.064 348.620,247.603 348.800,247.176 348.800 C 246.749 348.800,246.400 348.980,246.400 349.200 C 246.400 349.420,245.781 349.600,245.024 349.600 C 244.267 349.600,243.536 349.780,243.400 350.000 C 243.264 350.220,242.533 350.400,241.776 350.400 C 241.019 350.400,240.400 350.580,240.400 350.800 C 240.400 351.020,239.680 351.200,238.800 351.200 C 237.920 351.200,237.200 351.380,237.200 351.600 C 237.200 351.820,236.480 352.000,235.600 352.000 C 234.720 352.000,234.000 352.180,234.000 352.400 C 234.000 352.620,233.381 352.800,232.624 352.800 C 231.867 352.800,231.136 352.980,231.000 353.200 C 230.864 353.420,229.964 353.600,229.000 353.600 C 228.036 353.600,227.136 353.780,227.000 354.000 C 226.864 354.220,225.773 354.400,224.576 354.400 C 223.379 354.400,222.400 354.580,222.400 354.800 C 222.400 355.033,221.067 355.200,219.200 355.200 C 217.333 355.200,216.000 355.367,216.000 355.600 C 216.000 355.851,213.533 356.000,209.400 356.000 C 205.267 356.000,202.800 356.149,202.800 356.400 C 202.800 356.629,201.600 356.800,200.000 356.800 C 198.400 356.800,197.200 356.629,197.200 356.400 C 197.200 356.149,194.733 356.000,190.600 356.000 C 186.467 356.000,184.000 355.851,184.000 355.600 C 184.000 355.372,182.808 355.200,181.224 355.200 C 179.697 355.200,178.336 355.020,178.200 354.800 C 178.064 354.580,176.883 354.400,175.576 354.400 C 174.259 354.400,173.200 354.222,173.200 354.000 C 173.200 353.780,172.300 353.600,171.200 353.600 C 170.100 353.600,169.200 353.420,169.200 353.200 C 169.200 352.980,168.401 352.800,167.424 352.800 C 166.447 352.800,165.536 352.620,165.400 352.400 C 165.264 352.180,164.443 352.000,163.576 352.000 C 162.709 352.000,162.000 351.820,162.000 351.600 C 162.000 351.380,161.280 351.200,160.400 351.200 C 159.520 351.200,158.800 351.020,158.800 350.800 C 158.800 350.580,158.361 350.400,157.824 350.400 C 157.287 350.400,156.736 350.220,156.600 350.000 C 156.464 349.780,155.834 349.600,155.200 349.600 C 154.566 349.600,153.936 349.420,153.800 349.200 C 153.664 348.980,153.023 348.800,152.376 348.800 C 151.729 348.800,151.200 348.653,151.200 348.472 C 151.200 348.292,150.289 347.896,149.175 347.593 C 148.061 347.290,147.060 346.897,146.951 346.721 C 146.842 346.544,146.313 346.400,145.776 346.400 C 145.239 346.400,144.800 346.220,144.800 346.000 C 144.800 345.780,144.361 345.600,143.824 345.600 C 143.287 345.600,142.736 345.420,142.600 345.200 C 142.464 344.980,142.003 344.800,141.576 344.800 C 141.149 344.800,140.800 344.620,140.800 344.400 C 140.800 344.180,140.528 344.000,140.195 344.000 C 139.862 344.000,139.277 343.835,138.895 343.634 C 137.298 342.792,135.236 342.000,134.640 342.000 C 134.288 342.000,134.000 341.820,134.000 341.600 C 134.000 341.380,133.640 341.200,133.200 341.200 C 132.760 341.200,132.400 341.020,132.400 340.800 C 132.400 340.580,132.040 340.400,131.600 340.400 C 131.160 340.400,130.800 340.220,130.800 340.000 C 130.800 339.780,130.440 339.600,130.000 339.600 C 129.560 339.600,129.200 339.420,129.200 339.200 C 129.200 338.980,128.840 338.800,128.400 338.800 C 127.960 338.800,127.600 338.620,127.600 338.400 C 127.600 338.180,127.240 338.000,126.800 338.000 C 126.360 338.000,126.000 337.854,126.000 337.675 C 126.000 337.496,125.370 337.102,124.600 336.800 C 123.830 336.498,123.200 336.104,123.200 335.925 C 123.200 335.746,122.930 335.600,122.600 335.600 C 122.270 335.600,122.000 335.420,122.000 335.200 C 122.000 334.980,121.730 334.800,121.400 334.800 C 121.070 334.800,120.800 334.620,120.800 334.400 C 120.800 334.180,120.522 334.000,120.183 334.000 C 119.844 334.000,119.180 333.640,118.708 333.200 C 118.236 332.760,117.613 332.400,117.325 332.400 C 117.036 332.400,116.800 332.220,116.800 332.000 C 116.800 331.780,116.480 331.600,116.088 331.600 C 115.697 331.600,115.117 331.240,114.800 330.800 C 114.483 330.360,113.943 330.000,113.600 330.000 C 113.257 330.000,112.717 329.640,112.400 329.200 C 112.083 328.760,111.587 328.400,111.297 328.400 C 111.008 328.400,110.373 328.039,109.886 327.597 C 108.126 326.001,106.476 324.800,106.042 324.800 C 105.799 324.800,105.600 324.620,105.600 324.400 C 105.600 324.180,105.402 324.000,105.160 324.000 C 104.919 324.000,104.217 323.460,103.600 322.800 C 102.983 322.140,102.281 321.600,102.040 321.600 C 101.798 321.600,101.600 321.420,101.600 321.200 C 101.600 320.980,101.421 320.800,101.202 320.800 C 100.983 320.800,99.885 319.900,98.761 318.800 C 97.638 317.700,96.555 316.800,96.355 316.800 C 95.766 316.800,86.008 306.710,86.238 306.339 C 86.353 306.152,86.876 306.000,87.400 306.000 C 87.924 306.000,88.464 305.820,88.600 305.600 C 88.736 305.380,89.276 305.200,89.800 305.200 C 90.324 305.200,90.864 305.020,91.000 304.800 C 91.136 304.580,91.687 304.400,92.224 304.400 C 92.761 304.400,93.200 304.220,93.200 304.000 C 93.200 303.780,93.740 303.600,94.400 303.600 C 95.060 303.600,95.600 303.420,95.600 303.200 C 95.600 302.980,96.140 302.800,96.800 302.800 C 97.460 302.800,98.000 302.620,98.000 302.400 C 98.000 302.180,98.540 302.000,99.200 302.000 C 99.860 302.000,100.400 301.820,100.400 301.600 C 100.400 301.380,100.940 301.200,101.600 301.200 C 102.260 301.200,102.800 301.020,102.800 300.800 C 102.800 300.580,103.340 300.400,104.000 300.400 C 104.660 300.400,105.200 300.220,105.200 300.000 C 105.200 299.780,105.639 299.600,106.176 299.600 C 106.713 299.600,107.264 299.420,107.400 299.200 C 107.536 298.980,108.087 298.800,108.624 298.800 C 109.161 298.800,109.600 298.620,109.600 298.400 C 109.600 298.180,110.140 298.000,110.800 298.000 C 111.460 298.000,112.000 297.820,112.000 297.600 C 112.000 297.380,112.540 297.200,113.200 297.200 C 113.860 297.200,114.400 297.020,114.400 296.800 C 114.400 296.580,114.940 296.400,115.600 296.400 C 116.260 296.400,116.800 296.220,116.800 296.000 C 116.800 295.780,117.340 295.600,118.000 295.600 C 118.660 295.600,119.200 295.420,119.200 295.200 C 119.200 294.980,119.560 294.800,120.000 294.800 C 120.440 294.800,120.800 294.662,120.800 294.494 C 120.800 293.918,125.838 292.117,143.400 286.415 C 144.060 286.201,145.640 285.905,146.911 285.756 C 148.182 285.608,149.318 285.333,149.435 285.144 C 149.552 284.955,149.910 284.800,150.231 284.800 C 151.005 284.800,156.000 279.785,156.000 279.007 C 156.000 278.673,156.180 278.400,156.400 278.400 C 156.620 278.400,156.800 278.051,156.800 277.624 C 156.800 277.197,156.980 276.736,157.200 276.600 C 157.420 276.464,157.600 275.812,157.600 275.150 C 157.600 274.489,157.796 273.581,158.035 273.134 C 158.490 272.284,157.909 267.745,157.161 266.305 C 156.962 265.923,156.800 265.338,156.800 265.005 C 156.800 264.672,156.620 264.400,156.400 264.400 C 156.180 264.400,156.000 264.040,156.000 263.600 C 156.000 263.160,155.850 262.800,155.668 262.800 C 155.485 262.800,155.114 262.395,154.843 261.900 C 154.219 260.757,151.132 258.400,150.261 258.400 C 149.897 258.400,149.600 258.220,149.600 258.000 C 149.600 257.780,149.240 257.600,148.800 257.600 C 148.360 257.600,148.000 257.420,148.000 257.200 C 148.000 256.955,146.067 256.800,143.000 256.800 C 139.933 256.800,138.000 256.955,138.000 257.200 C 138.000 257.420,137.460 257.600,136.800 257.600 C 136.140 257.600,135.600 257.780,135.600 258.000 C 135.600 258.220,135.171 258.400,134.646 258.400 C 133.622 258.400,129.847 259.440,128.705 260.037 C 128.323 260.237,127.659 260.400,127.229 260.400 C 126.799 260.400,126.336 260.580,126.200 260.800 C 126.064 261.020,125.513 261.200,124.976 261.200 C 124.439 261.200,124.000 261.380,124.000 261.600 C 124.000 261.820,123.460 262.000,122.800 262.000 C 122.140 262.000,121.600 262.180,121.600 262.400 C 121.600 262.620,121.060 262.800,120.400 262.800 C 119.740 262.800,119.200 262.980,119.200 263.200 C 119.200 263.420,118.660 263.600,118.000 263.600 C 117.340 263.600,116.800 263.780,116.800 264.000 C 116.800 264.220,116.260 264.400,115.600 264.400 C 114.940 264.400,114.400 264.580,114.400 264.800 C 114.400 265.020,113.860 265.200,113.200 265.200 C 112.540 265.200,112.000 265.380,112.000 265.600 C 112.000 265.820,111.561 266.000,111.024 266.000 C 110.487 266.000,109.936 266.180,109.800 266.400 C 109.664 266.620,109.113 266.800,108.576 266.800 C 108.039 266.800,107.600 266.980,107.600 267.200 C 107.600 267.420,107.060 267.600,106.400 267.600 C 105.740 267.600,105.200 267.780,105.200 268.000 C 105.200 268.220,104.660 268.400,104.000 268.400 C 103.340 268.400,102.800 268.580,102.800 268.800 C 102.800 269.020,102.260 269.200,101.600 269.200 C 100.940 269.200,100.400 269.380,100.400 269.600 C 100.400 269.820,99.860 270.000,99.200 270.000 C 98.540 270.000,98.000 270.180,98.000 270.400 C 98.000 270.620,97.460 270.800,96.800 270.800 C 96.140 270.800,95.600 270.980,95.600 271.200 C 95.600 271.420,95.060 271.600,94.400 271.600 C 93.740 271.600,93.200 271.780,93.200 272.000 C 93.200 272.220,92.750 272.400,92.200 272.400 C 91.650 272.400,91.200 272.580,91.200 272.800 C 91.200 273.020,90.660 273.200,90.000 273.200 C 89.340 273.200,88.800 273.380,88.800 273.600 C 88.800 273.820,88.260 274.000,87.600 274.000 C 86.940 274.000,86.400 274.180,86.400 274.400 C 86.400 274.620,85.938 274.800,85.374 274.800 C 84.277 274.800,82.854 275.430,82.200 276.205 C 81.367 277.192,75.878 278.763,74.100 278.524 C 72.967 278.371,72.400 278.446,72.400 278.747 C 72.400 278.996,71.860 279.200,71.200 279.200 C 70.540 279.200,70.000 279.380,70.000 279.600 C 70.000 279.820,69.460 280.000,68.800 280.000 C 68.140 280.000,67.600 280.180,67.600 280.400 C 67.600 280.620,67.060 280.800,66.400 280.800 C 65.740 280.800,65.200 280.980,65.200 281.200 C 65.200 281.420,64.660 281.600,64.000 281.600 C 63.340 281.600,62.800 281.780,62.800 282.000 C 62.800 282.220,62.361 282.400,61.824 282.400 C 61.287 282.400,60.736 282.580,60.600 282.800 C 60.464 283.020,59.913 283.200,59.376 283.200 C 58.839 283.200,58.400 283.380,58.400 283.600 C 58.400 283.820,57.860 284.000,57.200 284.000 C 56.540 284.000,56.000 284.180,56.000 284.400 C 56.000 284.620,55.460 284.800,54.800 284.800 C 54.140 284.800,53.600 284.980,53.600 285.200 C 53.600 285.420,53.060 285.600,52.400 285.600 C 51.740 285.600,51.200 285.780,51.200 286.000 C 51.200 286.220,50.840 286.400,50.400 286.400 C 49.960 286.400,49.600 286.580,49.600 286.800 C 49.600 287.020,49.359 287.200,49.064 287.200 C 48.083 287.200,45.019 290.564,43.600 293.200 L 42.200 295.800 42.200 342.800 L 42.200 389.800 43.184 391.800 C 43.725 392.900,44.400 394.038,44.684 394.329 C 44.968 394.619,45.200 394.997,45.200 395.167 C 45.200 395.688,46.537 396.973,47.700 397.570 C 48.305 397.881,48.800 398.285,48.800 398.468 C 48.800 398.650,49.145 398.800,49.567 398.800 C 49.988 398.800,50.408 399.025,50.500 399.300 C 50.841 400.321,63.158 399.973,64.662 398.900 C 65.356 398.405,66.035 398.000,66.172 398.000 C 66.701 398.000,70.000 394.389,70.000 393.811 C 70.000 393.475,70.180 393.200,70.400 393.200 C 70.620 393.200,70.800 392.840,70.800 392.400 C 70.800 391.960,70.980 391.600,71.200 391.600 C 71.420 391.600,71.600 391.071,71.600 390.424 C 71.600 389.777,71.780 389.136,72.000 389.000 C 72.260 388.839,72.400 379.596,72.400 362.576 C 72.400 345.725,72.540 336.400,72.793 336.400 C 73.008 336.400,74.403 337.535,75.893 338.923 C 80.006 342.755,80.524 343.200,80.873 343.200 C 81.051 343.200,82.115 344.100,83.239 345.200 C 84.362 346.300,85.451 347.200,85.659 347.200 C 85.866 347.200,86.486 347.650,87.036 348.200 C 87.586 348.750,88.200 349.200,88.400 349.200 C 88.600 349.200,89.177 349.605,89.682 350.100 C 90.187 350.595,91.274 351.450,92.098 352.000 C 92.921 352.550,93.596 353.135,93.597 353.300 C 93.599 353.465,93.870 353.600,94.200 353.600 C 94.530 353.600,94.800 353.750,94.800 353.932 C 94.800 354.115,95.295 354.520,95.900 354.832 C 96.505 355.145,97.349 355.715,97.775 356.100 C 98.202 356.485,98.787 356.800,99.075 356.800 C 99.364 356.800,99.600 356.947,99.600 357.126 C 99.600 357.501,102.181 358.800,102.925 358.800 C 103.199 358.800,103.683 359.160,104.000 359.600 C 104.317 360.040,104.897 360.400,105.288 360.400 C 105.680 360.400,106.000 360.580,106.000 360.800 C 106.000 361.020,106.294 361.200,106.653 361.200 C 107.012 361.200,107.597 361.529,107.953 361.930 C 108.309 362.332,109.185 362.916,109.900 363.228 C 110.615 363.540,111.200 363.931,111.200 364.098 C 111.200 364.264,111.560 364.400,112.000 364.400 C 112.440 364.400,112.800 364.580,112.800 364.800 C 112.800 365.020,113.160 365.200,113.600 365.200 C 114.040 365.200,114.400 365.380,114.400 365.600 C 114.400 365.820,114.760 366.000,115.200 366.000 C 115.640 366.000,116.000 366.180,116.000 366.400 C 116.000 366.620,116.360 366.800,116.800 366.800 C 117.240 366.800,117.600 366.980,117.600 367.200 C 117.600 367.420,117.960 367.600,118.400 367.600 C 118.840 367.600,119.200 367.780,119.200 368.000 C 119.200 368.220,119.560 368.400,120.000 368.400 C 120.440 368.400,120.800 368.580,120.800 368.800 C 120.800 369.020,121.160 369.200,121.600 369.200 C 122.040 369.200,122.400 369.380,122.400 369.600 C 122.400 369.820,122.760 370.000,123.200 370.000 C 123.640 370.000,124.000 370.180,124.000 370.400 C 124.000 370.620,124.272 370.800,124.605 370.800 C 124.938 370.800,125.523 370.965,125.905 371.167 C 127.210 371.857,130.391 373.200,130.721 373.200 C 130.902 373.200,131.801 373.563,132.720 374.007 C 133.639 374.451,135.202 374.925,136.195 375.061 C 137.188 375.197,138.000 375.464,138.000 375.654 C 138.000 375.844,138.349 376.000,138.776 376.000 C 139.203 376.000,139.664 376.180,139.800 376.400 C 139.936 376.620,140.476 376.800,141.000 376.800 C 141.524 376.800,142.064 376.980,142.200 377.200 C 142.336 377.420,142.977 377.600,143.624 377.600 C 144.271 377.600,144.800 377.780,144.800 378.000 C 144.800 378.220,145.340 378.400,146.000 378.400 C 146.660 378.400,147.200 378.580,147.200 378.800 C 147.200 379.020,147.729 379.200,148.376 379.200 C 149.023 379.200,149.664 379.380,149.800 379.600 C 149.936 379.820,150.667 380.000,151.424 380.000 C 152.181 380.000,152.800 380.180,152.800 380.400 C 152.800 380.620,153.520 380.800,154.400 380.800 C 155.280 380.800,156.000 380.980,156.000 381.200 C 156.000 381.420,156.709 381.600,157.576 381.600 C 158.443 381.600,159.264 381.780,159.400 382.000 C 159.536 382.220,160.447 382.400,161.424 382.400 C 162.401 382.400,163.200 382.580,163.200 382.800 C 163.200 383.020,163.999 383.200,164.976 383.200 C 165.953 383.200,166.864 383.380,167.000 383.600 C 167.136 383.820,168.407 384.000,169.824 384.000 C 171.275 384.000,172.400 384.175,172.400 384.400 C 172.400 384.629,173.600 384.800,175.200 384.800 C 176.800 384.800,178.000 384.971,178.000 385.200 C 178.000 385.438,179.525 385.600,181.776 385.600 C 183.863 385.600,185.663 385.779,185.800 386.000 C 186.139 386.549,214.400 386.549,214.400 386.000 C 214.400 385.759,216.067 385.600,218.600 385.600 C 221.133 385.600,222.800 385.441,222.800 385.200 C 222.800 384.971,224.000 384.800,225.600 384.800 C 227.200 384.800,228.400 384.629,228.400 384.400 C 228.400 384.178,229.467 384.000,230.800 384.000 C 232.133 384.000,233.200 383.822,233.200 383.600 C 233.200 383.380,234.089 383.200,235.176 383.200 C 236.263 383.200,237.264 383.020,237.400 382.800 C 237.536 382.580,238.346 382.400,239.200 382.400 C 240.054 382.400,240.864 382.220,241.000 382.000 C 241.136 381.780,241.946 381.600,242.800 381.600 C 243.654 381.600,244.464 381.420,244.600 381.200 C 244.736 380.980,245.557 380.800,246.424 380.800 C 247.291 380.800,248.000 380.620,248.000 380.400 C 248.000 380.180,248.540 380.000,249.200 380.000 C 249.860 380.000,250.400 379.820,250.400 379.600 C 250.400 379.380,251.120 379.200,252.000 379.200 C 252.880 379.200,253.600 379.020,253.600 378.800 C 253.600 378.580,254.140 378.400,254.800 378.400 C 255.460 378.400,256.000 378.220,256.000 378.000 C 256.000 377.780,256.540 377.600,257.200 377.600 C 257.860 377.600,258.400 377.420,258.400 377.200 C 258.400 376.980,258.850 376.800,259.400 376.800 C 259.950 376.800,260.400 376.620,260.400 376.400 C 260.400 376.180,260.940 376.000,261.600 376.000 C 262.260 376.000,262.800 375.844,262.800 375.654 C 262.800 375.464,263.612 375.197,264.605 375.061 C 265.598 374.925,267.161 374.451,268.080 374.007 C 268.999 373.563,269.892 373.200,270.065 373.200 C 270.238 373.200,271.559 372.660,273.000 372.000 C 274.441 371.340,275.886 370.800,276.210 370.800 C 276.535 370.800,276.800 370.620,276.800 370.400 C 276.800 370.180,277.160 370.000,277.600 370.000 C 278.040 370.000,278.400 369.820,278.400 369.600 C 278.400 369.380,278.760 369.200,279.200 369.200 C 279.640 369.200,280.000 369.020,280.000 368.800 C 280.000 368.580,280.360 368.400,280.800 368.400 C 281.240 368.400,281.600 368.220,281.600 368.000 C 281.600 367.780,281.960 367.600,282.400 367.600 C 282.840 367.600,283.200 367.420,283.200 367.200 C 283.200 366.980,283.560 366.800,284.000 366.800 C 284.440 366.800,284.800 366.620,284.800 366.400 C 284.800 366.180,285.160 366.000,285.600 366.000 C 286.040 366.000,286.400 365.820,286.400 365.600 C 286.400 365.380,286.760 365.200,287.200 365.200 C 287.640 365.200,288.000 365.020,288.000 364.800 C 288.000 364.580,288.360 364.400,288.800 364.400 C 289.240 364.400,289.600 364.220,289.600 364.000 C 289.600 363.780,289.870 363.600,290.200 363.600 C 290.530 363.600,290.800 363.420,290.800 363.200 C 290.800 362.980,291.120 362.800,291.512 362.800 C 291.903 362.800,292.483 362.440,292.800 362.000 C 293.117 361.560,293.697 361.200,294.088 361.200 C 294.480 361.200,294.800 361.020,294.800 360.800 C 294.800 360.580,295.160 360.400,295.600 360.400 C 296.040 360.400,296.400 360.240,296.400 360.044 C 296.400 359.848,297.188 359.318,298.152 358.865 C 299.823 358.079,302.449 356.474,303.483 355.606 C 303.749 355.383,304.109 355.197,304.283 355.193 C 304.638 355.185,306.856 353.474,308.294 352.100 C 308.812 351.605,309.416 351.200,309.636 351.200 C 309.856 351.200,310.486 350.750,311.036 350.200 C 311.586 349.650,312.202 349.200,312.405 349.200 C 312.608 349.200,313.403 348.570,314.173 347.800 C 314.943 347.030,315.738 346.400,315.938 346.400 C 316.139 346.400,317.045 345.680,317.952 344.800 C 318.859 343.920,319.774 343.200,319.986 343.200 C 320.198 343.200,321.593 342.021,323.086 340.580 C 324.579 339.139,326.414 337.488,327.164 336.911 C 329.110 335.414,335.832 328.633,336.679 327.312 C 337.071 326.700,338.174 325.489,339.131 324.621 C 340.088 323.752,341.431 322.222,342.116 321.221 C 342.802 320.219,344.046 318.739,344.881 317.931 C 345.717 317.124,346.400 316.251,346.400 315.992 C 346.400 315.733,346.940 315.017,347.600 314.400 C 348.260 313.783,348.800 313.063,348.800 312.800 C 348.800 312.537,349.340 311.817,350.000 311.200 C 350.660 310.583,351.200 309.791,351.200 309.440 C 351.200 309.088,351.373 308.800,351.585 308.800 C 351.797 308.800,352.728 307.675,353.655 306.300 C 354.582 304.925,355.457 303.710,355.600 303.600 C 355.743 303.490,356.296 302.590,356.830 301.600 C 357.363 300.610,358.025 299.562,358.300 299.271 C 358.575 298.981,358.800 298.435,358.800 298.060 C 358.800 297.684,359.160 297.117,359.600 296.800 C 360.040 296.483,360.400 295.903,360.400 295.512 C 360.400 295.120,360.580 294.800,360.800 294.800 C 361.020 294.800,361.200 294.440,361.200 294.000 C 361.200 293.560,361.380 293.200,361.600 293.200 C 361.820 293.200,362.000 292.906,362.000 292.547 C 362.000 292.188,362.329 291.603,362.730 291.247 C 363.132 290.891,363.716 290.015,364.028 289.300 C 364.340 288.585,364.731 288.000,364.898 288.000 C 365.064 288.000,365.200 287.640,365.200 287.200 C 365.200 286.760,365.380 286.400,365.600 286.400 C 365.820 286.400,366.000 286.040,366.000 285.600 C 366.000 285.160,366.180 284.800,366.400 284.800 C 366.620 284.800,366.800 284.440,366.800 284.000 C 366.800 283.560,366.980 283.200,367.200 283.200 C 367.420 283.200,367.600 282.840,367.600 282.400 C 367.600 281.960,367.780 281.600,368.000 281.600 C 368.220 281.600,368.400 281.240,368.400 280.800 C 368.400 280.360,368.580 280.000,368.800 280.000 C 369.020 280.000,369.200 279.640,369.200 279.200 C 369.200 278.760,369.380 278.400,369.600 278.400 C 369.820 278.400,370.000 278.128,370.000 277.795 C 370.000 277.462,370.160 276.877,370.356 276.495 C 370.836 275.560,372.406 272.040,372.897 270.800 C 373.115 270.250,373.452 269.487,373.647 269.105 C 373.841 268.723,374.000 268.048,374.000 267.605 C 374.000 267.162,374.174 266.800,374.386 266.800 C 374.599 266.800,374.892 265.900,375.038 264.800 C 375.184 263.700,375.460 262.800,375.652 262.800 C 375.843 262.800,376.000 262.260,376.000 261.600 C 376.000 260.940,376.180 260.400,376.400 260.400 C 376.620 260.400,376.800 259.961,376.800 259.424 C 376.800 258.887,376.980 258.336,377.200 258.200 C 377.420 258.064,377.600 257.513,377.600 256.976 C 377.600 256.439,377.780 256.000,378.000 256.000 C 378.220 256.000,378.400 255.460,378.400 254.800 C 378.400 254.140,378.580 253.600,378.800 253.600 C 379.020 253.600,379.200 252.880,379.200 252.000 C 379.200 251.120,379.380 250.400,379.600 250.400 C 379.820 250.400,380.000 249.871,380.000 249.224 C 380.000 248.577,380.180 247.936,380.400 247.800 C 380.620 247.664,380.800 246.933,380.800 246.176 C 380.800 245.419,380.980 244.800,381.200 244.800 C 381.420 244.800,381.600 244.001,381.600 243.024 C 381.600 242.047,381.780 241.136,382.000 241.000 C 382.220 240.864,382.400 240.054,382.400 239.200 C 382.400 238.346,382.580 237.536,382.800 237.400 C 383.020 237.264,383.200 236.263,383.200 235.176 C 383.200 234.089,383.380 233.200,383.600 233.200 C 383.822 233.200,384.000 232.133,384.000 230.800 C 384.000 229.467,384.178 228.400,384.400 228.400 C 384.631 228.400,384.800 227.133,384.800 225.400 C 384.800 223.667,384.969 222.400,385.200 222.400 C 385.440 222.400,385.600 220.808,385.600 218.424 C 385.600 216.204,385.777 214.338,386.000 214.200 C 386.248 214.047,386.400 210.463,386.400 204.776 C 386.400 198.925,386.255 195.600,386.000 195.600 C 385.780 195.600,385.600 195.238,385.600 194.795 C 385.600 193.835,384.923 192.582,383.731 191.335 C 383.253 190.835,382.746 190.060,382.604 189.613 C 382.462 189.166,382.038 188.800,381.661 188.800 C 381.285 188.800,380.717 188.440,380.400 188.000 C 380.083 187.560,379.503 187.200,379.112 187.200 C 378.720 187.200,378.400 187.020,378.400 186.800 C 378.400 186.580,378.040 186.400,377.600 186.400 C 377.160 186.400,376.800 186.220,376.800 186.000 C 376.800 185.780,376.181 185.600,375.424 185.600 C 374.667 185.600,373.936 185.420,373.800 185.200 C 373.664 184.980,372.584 184.800,371.400 184.800 C 370.216 184.800,369.136 184.980,369.000 185.200 " stroke="none" fill="#fcfcfc" fill-rule="evenodd"></path><path id="path3" d="M266.334 109.469 C 265.605 109.662,264.988 110.800,265.613 110.800 C 265.826 110.800,266.000 110.620,266.000 110.400 C 266.000 110.180,266.270 110.000,266.600 110.000 C 266.930 110.000,267.200 109.820,267.200 109.600 C 267.200 109.380,267.155 109.221,267.100 109.246 C 267.045 109.272,266.700 109.372,266.334 109.469 M317.067 124.667 C 316.616 125.117,316.749 240.321,317.200 240.600 C 317.466 240.764,317.600 221.337,317.600 182.624 C 317.600 150.601,317.540 124.400,317.467 124.400 C 317.393 124.400,317.213 124.520,317.067 124.667 M309.000 126.400 C 307.981 126.838,309.032 126.838,310.400 126.400 C 311.204 126.143,311.243 126.077,310.600 126.068 C 310.160 126.062,309.440 126.211,309.000 126.400 M199.733 241.800 C 199.733 242.066,219.413 242.134,258.367 242.003 C 290.615 241.895,309.620 241.760,300.600 241.704 C 249.663 241.385,199.733 241.432,199.733 241.800 M317.067 251.067 C 316.622 251.511,316.752 274.723,317.200 275.000 C 317.463 275.163,317.600 271.071,317.600 263.024 C 317.600 256.301,317.540 250.800,317.467 250.800 C 317.393 250.800,317.213 250.920,317.067 251.067 M199.733 294.200 C 199.733 294.456,203.445 294.600,210.067 294.600 C 215.750 294.600,220.400 294.471,220.400 294.313 C 220.400 294.155,215.750 293.975,210.066 293.913 C 203.368 293.840,199.733 293.941,199.733 294.200 M229.700 294.265 C 229.425 294.376,229.200 294.654,229.200 294.882 C 229.200 295.152,229.392 295.138,229.746 294.845 C 230.146 294.513,240.460 294.420,268.346 294.496 C 289.276 294.553,306.400 294.465,306.400 294.300 C 306.400 293.972,230.512 293.937,229.700 294.265 " stroke="none" fill="#a4ec8c" fill-rule="evenodd"></path><path id="path4" d="M199.746 99.000 C 199.747 101.200,199.814 102.049,199.895 100.887 C 199.976 99.724,199.976 97.924,199.893 96.887 C 199.811 95.849,199.745 96.800,199.746 99.000 M199.753 113.800 C 199.753 116.440,199.818 117.468,199.897 116.084 C 199.975 114.701,199.974 112.541,199.895 111.284 C 199.816 110.028,199.752 111.160,199.753 113.800 M82.800 176.550 C 82.800 211.173,82.708 240.107,82.596 240.850 C 82.484 241.593,82.484 242.020,82.596 241.800 C 82.731 241.535,102.528 241.467,141.380 241.600 C 173.599 241.710,199.826 241.666,199.661 241.501 C 199.497 241.337,173.224 241.157,141.276 241.101 L 83.190 241.000 83.198 177.300 C 83.202 142.265,83.114 113.600,83.002 113.600 C 82.891 113.600,82.800 141.928,82.800 176.550 M199.750 231.000 C 199.751 233.420,199.816 234.358,199.896 233.085 C 199.976 231.812,199.975 229.832,199.894 228.685 C 199.814 227.538,199.749 228.580,199.750 231.000 M119.531 235.900 C 134.343 235.958,158.463 235.958,173.131 235.900 C 187.799 235.842,175.680 235.794,146.200 235.794 C 116.720 235.794,104.719 235.842,119.531 235.900 M199.748 246.400 C 199.748 248.710,199.814 249.655,199.895 248.500 C 199.976 247.345,199.976 245.455,199.895 244.300 C 199.814 243.145,199.748 244.090,199.748 246.400 M82.978 263.400 C 82.978 270.220,83.032 273.066,83.099 269.725 C 83.166 266.384,83.166 260.804,83.099 257.325 C 83.033 253.846,82.978 256.580,82.978 263.400 M199.742 260.600 C 199.741 262.580,199.808 263.440,199.892 262.512 C 199.976 261.584,199.977 259.964,199.895 258.912 C 199.812 257.860,199.743 258.620,199.742 260.600 M199.742 275.400 C 199.741 277.380,199.808 278.240,199.892 277.312 C 199.976 276.384,199.977 274.764,199.895 273.712 C 199.812 272.660,199.743 273.420,199.742 275.400 M199.746 289.800 C 199.747 292.000,199.814 292.849,199.895 291.687 C 199.976 290.524,199.976 288.724,199.893 287.687 C 199.811 286.649,199.745 287.600,199.746 289.800 M171.984 317.223 C 171.505 317.896,171.179 318.513,171.261 318.594 C 171.343 318.676,171.814 318.126,172.308 317.371 C 173.423 315.671,173.171 315.556,171.984 317.223 M199.750 324.200 C 199.751 326.620,199.816 327.558,199.896 326.285 C 199.976 325.012,199.975 323.032,199.894 321.885 C 199.814 320.738,199.749 321.780,199.750 324.200 " stroke="none" fill="#a4f494" fill-rule="evenodd"></path></g></svg>