<svg id="svg" version="1.1" xmlns="http://www.w3.org/2000/svg" xmlns:xlink="http://www.w3.org/1999/xlink" width="400" height="400" viewBox="0, 0, 400,400"><g id="svgg"><path id="path0" d="M111.800 78.800 C 111.664 79.020,111.158 79.204,110.676 79.209 C 110.194 79.214,109.350 79.570,108.800 80.000 C 108.250 80.430,107.680 80.786,107.534 80.791 C 107.092 80.806,104.400 83.556,104.400 83.993 C 104.400 84.217,104.220 84.400,104.000 84.400 C 103.780 84.400,103.600 84.670,103.600 85.000 C 103.600 85.330,103.420 85.600,103.200 85.600 C 102.980 85.600,102.800 85.960,102.800 86.400 C 102.800 86.840,102.620 87.200,102.400 87.200 C 102.135 87.200,102.000 117.800,102.000 178.200 C 102.000 265.794,102.027 269.200,102.725 269.200 C 103.545 269.200,109.834 267.131,111.143 266.431 L 112.000 265.972 112.000 187.186 L 112.000 108.400 156.000 108.400 L 200.000 108.400 200.000 93.400 L 200.000 78.400 156.024 78.400 C 127.137 78.400,111.962 78.537,111.800 78.800 M134.900 132.812 C 133.996 133.176,133.485 141.391,134.243 143.367 C 134.461 143.937,137.742 144.000,167.243 144.000 L 200.000 144.000 200.000 138.200 L 200.000 132.400 167.900 132.425 C 149.760 132.440,135.409 132.608,134.900 132.812 M246.000 137.725 C 246.000 137.794,246.585 138.379,247.300 139.025 L 248.600 140.200 247.425 138.900 C 246.330 137.688,246.000 137.416,246.000 137.725 M264.100 141.476 C 264.485 141.576,265.115 141.576,265.500 141.476 C 265.885 141.375,265.570 141.293,264.800 141.293 C 264.030 141.293,263.715 141.375,264.100 141.476 M261.600 142.000 C 260.776 142.264,260.741 142.326,261.400 142.354 C 261.840 142.373,262.470 142.213,262.800 142.000 C 263.501 141.547,263.014 141.547,261.600 142.000 M134.482 160.078 C 134.156 160.404,134.000 162.217,134.000 165.680 L 134.000 170.800 167.011 170.800 L 200.023 170.800 199.911 165.300 L 199.800 159.800 167.382 159.698 C 142.500 159.619,134.853 159.707,134.482 160.078 M134.000 192.600 L 134.000 198.000 167.000 198.000 L 200.000 198.000 200.000 192.600 L 200.000 187.200 167.000 187.200 L 134.000 187.200 134.000 192.600 M134.482 214.078 C 133.788 214.772,133.805 224.796,134.500 224.809 C 134.775 224.814,149.630 224.859,167.510 224.909 L 200.021 225.000 199.910 219.400 L 199.800 213.800 167.382 213.698 C 142.500 213.619,134.853 213.707,134.482 214.078 M134.088 246.500 L 134.200 251.800 167.100 251.902 L 200.000 252.005 200.000 246.602 L 200.000 241.200 166.988 241.200 L 133.977 241.200 134.088 246.500 M106.700 298.868 L 102.000 300.448 102.000 306.624 C 102.000 310.475,102.151 312.800,102.400 312.800 C 102.620 312.800,102.800 313.160,102.800 313.600 C 102.800 314.040,102.980 314.400,103.200 314.400 C 103.420 314.400,103.600 314.634,103.600 314.921 C 103.600 315.637,107.119 319.200,107.827 319.200 C 108.142 319.200,108.400 319.356,108.400 319.547 C 108.400 319.737,109.324 320.277,110.453 320.747 L 112.507 321.600 156.265 321.600 L 200.023 321.600 199.912 316.300 L 199.800 311.000 157.382 310.800 C 111.588 310.584,112.800 310.644,112.800 308.591 C 112.800 308.266,112.620 308.000,112.400 308.000 C 112.153 308.000,112.000 305.933,112.000 302.600 C 112.000 299.630,111.865 297.220,111.700 297.244 C 111.535 297.268,109.285 297.999,106.700 298.868 " stroke="none" fill="#9cf3fb" fill-rule="evenodd"></path><path id="path1" d="M200.400 92.812 L 200.400 107.223 238.539 107.112 C 264.179 107.037,276.861 106.863,277.239 106.583 C 277.547 106.354,278.520 105.937,279.400 105.657 C 280.280 105.377,281.360 104.999,281.800 104.819 C 282.240 104.638,285.840 103.449,289.800 102.177 C 293.760 100.905,297.225 99.693,297.500 99.483 C 298.124 99.007,298.219 89.600,297.600 89.600 C 297.380 89.600,297.200 89.257,297.200 88.838 C 297.200 86.871,292.846 81.200,291.336 81.200 C 291.041 81.200,290.800 81.020,290.800 80.800 C 290.800 80.580,290.453 80.400,290.028 80.400 C 289.541 80.400,289.208 80.079,289.128 79.531 C 289.058 79.054,288.730 78.590,288.400 78.501 C 287.875 78.359,287.874 78.390,288.389 78.748 C 288.896 79.100,288.882 79.193,288.289 79.421 C 287.417 79.756,286.269 79.336,286.598 78.803 C 286.765 78.533,272.540 78.400,243.624 78.400 L 200.400 78.400 200.400 92.812 M232.000 89.600 C 232.000 89.820,231.790 90.000,231.533 90.000 C 231.277 90.000,231.182 90.116,231.324 90.257 C 231.465 90.398,231.810 90.329,232.090 90.102 C 232.839 89.497,236.000 89.041,236.000 89.538 C 236.000 89.763,235.595 90.025,235.100 90.119 C 234.605 90.214,234.825 90.258,235.588 90.216 C 237.075 90.135,238.800 91.405,238.800 92.582 C 238.800 92.922,238.980 93.200,239.200 93.200 C 239.422 93.200,239.600 94.267,239.600 95.600 C 239.600 96.933,239.422 98.000,239.200 98.000 C 238.980 98.000,238.800 98.236,238.800 98.525 C 238.800 99.384,236.518 101.331,235.824 101.065 C 235.433 100.915,235.200 101.045,235.200 101.413 C 235.200 101.851,234.692 102.000,233.200 102.000 C 232.100 102.000,231.200 101.820,231.200 101.600 C 231.200 101.380,230.828 101.200,230.373 101.200 C 229.765 101.200,229.605 101.013,229.770 100.494 C 229.911 100.050,229.699 99.605,229.197 99.291 C 228.724 98.995,228.400 98.957,228.400 99.197 C 228.400 99.418,228.220 99.600,228.000 99.600 C 227.780 99.600,227.600 99.330,227.600 99.000 C 227.600 98.670,227.420 98.400,227.200 98.400 C 226.980 98.400,226.800 97.849,226.800 97.176 C 226.800 96.463,226.967 96.056,227.200 96.200 C 227.420 96.336,227.600 96.066,227.600 95.600 C 227.600 95.134,227.420 94.864,227.200 95.000 C 226.966 95.145,226.800 94.729,226.800 93.997 C 226.800 92.928,226.916 92.783,227.600 93.000 C 228.454 93.271,228.742 92.589,227.900 92.288 C 227.027 91.977,229.214 89.961,230.173 90.193 C 230.628 90.303,230.774 90.289,230.498 90.162 C 230.221 90.035,230.097 89.767,230.221 89.566 C 230.527 89.071,232.000 89.099,232.000 89.600 M254.800 89.600 C 254.800 89.820,254.305 90.025,253.700 90.054 C 252.724 90.103,252.704 90.129,253.522 90.285 C 254.029 90.382,254.693 90.255,254.996 90.003 C 255.409 89.661,255.763 89.659,256.395 89.998 C 256.861 90.247,257.547 90.370,257.921 90.272 C 258.407 90.144,258.344 90.080,257.700 90.046 C 256.764 89.998,256.406 89.200,257.320 89.200 C 258.806 89.200,260.535 90.558,259.500 90.912 C 259.225 91.006,259.405 91.016,259.900 90.934 C 260.395 90.852,260.800 90.968,260.800 91.192 C 260.800 91.417,260.620 91.600,260.400 91.600 C 260.180 91.600,260.000 91.792,260.000 92.027 C 260.000 92.276,260.343 92.345,260.825 92.192 C 261.581 91.952,261.632 92.057,261.440 93.465 C 261.325 94.309,261.327 94.685,261.445 94.300 C 261.562 93.915,261.825 93.600,262.029 93.600 C 262.531 93.600,262.504 97.089,262.000 97.400 C 261.780 97.536,261.600 97.924,261.600 98.263 C 261.600 99.107,259.289 101.200,258.358 101.200 C 257.941 101.200,257.600 101.380,257.600 101.600 C 257.600 103.308,251.217 101.119,250.189 99.059 C 249.512 97.701,249.414 96.638,250.000 97.000 C 250.594 97.367,250.484 96.827,249.832 96.175 C 249.396 95.739,249.218 95.723,249.064 96.104 C 248.953 96.377,248.849 96.195,248.832 95.700 C 248.814 95.205,248.980 94.800,249.200 94.800 C 249.420 94.800,249.600 94.260,249.600 93.600 C 249.600 92.100,252.400 89.200,253.848 89.200 C 254.372 89.200,254.800 89.380,254.800 89.600 M276.941 89.475 C 277.093 89.626,277.528 89.783,277.908 89.823 C 278.289 89.864,278.870 89.981,279.200 90.083 C 279.530 90.185,279.665 90.193,279.500 90.101 C 278.879 89.754,279.233 89.200,280.077 89.200 C 281.259 89.200,284.000 92.174,284.000 93.457 C 284.000 94.015,284.174 94.339,284.400 94.200 C 284.638 94.053,284.800 94.535,284.800 95.394 C 284.800 96.513,284.653 96.809,284.141 96.718 C 283.779 96.653,283.406 96.870,283.311 97.200 C 283.158 97.733,283.186 97.733,283.563 97.200 C 283.905 96.716,283.989 96.814,283.994 97.700 C 283.997 98.305,283.790 98.800,283.533 98.800 C 283.277 98.800,283.188 98.922,283.337 99.070 C 283.737 99.471,281.972 101.200,281.164 101.200 C 280.780 101.200,280.363 100.975,280.237 100.700 C 280.111 100.425,280.108 100.605,280.231 101.100 C 280.439 101.942,280.326 102.000,278.488 102.000 C 275.687 102.000,272.000 99.810,272.000 98.145 C 272.000 97.356,272.709 97.475,272.924 98.300 C 273.062 98.827,273.119 98.777,273.154 98.100 C 273.179 97.605,273.020 97.178,272.800 97.150 C 272.580 97.123,272.175 97.078,271.900 97.050 C 271.288 96.989,270.970 94.000,271.576 94.000 C 271.809 94.000,272.000 93.640,272.000 93.200 C 272.000 92.760,272.180 92.400,272.400 92.400 C 272.620 92.400,272.800 92.220,272.800 92.000 C 272.800 91.481,274.281 90.000,274.800 90.000 C 275.020 90.000,275.200 89.820,275.200 89.600 C 275.200 89.148,276.520 89.054,276.941 89.475 M273.556 91.700 L 273.084 92.600 274.042 91.804 C 274.569 91.367,275.075 90.962,275.167 90.904 C 275.258 90.847,275.040 90.800,274.681 90.800 C 274.322 90.800,273.816 91.205,273.556 91.700 M295.319 131.362 C 294.615 131.618,293.910 131.957,293.753 132.114 C 293.595 132.271,293.057 132.400,292.557 132.400 C 292.057 132.400,291.536 132.580,291.400 132.800 C 291.264 133.020,290.713 133.200,290.176 133.200 C 289.639 133.200,289.200 133.380,289.200 133.600 C 289.200 133.820,288.930 134.000,288.600 134.000 C 288.068 134.000,288.000 143.992,288.000 221.528 L 288.000 309.056 286.864 310.328 L 285.729 311.600 243.064 311.600 L 200.400 311.600 200.400 316.600 L 200.400 321.600 243.229 321.600 C 281.379 321.600,286.125 321.532,286.677 320.980 C 287.418 320.240,288.655 320.408,288.467 321.224 C 288.393 321.541,288.483 321.650,288.667 321.467 C 288.850 321.283,289.000 320.923,289.000 320.667 C 289.000 320.410,289.405 320.022,289.900 319.805 C 290.395 319.588,290.800 319.273,290.800 319.105 C 290.800 318.937,291.041 318.800,291.336 318.800 C 292.156 318.800,295.382 315.566,296.025 314.100 C 296.623 312.736,297.025 312.476,297.293 313.280 C 297.418 313.654,297.519 313.654,297.750 313.280 C 297.914 313.016,297.857 312.800,297.624 312.800 C 297.391 312.800,297.200 312.260,297.200 311.600 C 297.200 310.940,297.380 310.400,297.600 310.400 C 297.865 310.400,298.000 280.200,298.000 220.600 C 298.000 120.342,298.298 130.277,295.319 131.362 M200.400 138.200 L 200.400 143.200 226.600 143.200 C 243.800 143.200,252.800 143.063,252.800 142.800 C 252.800 142.580,252.485 142.396,252.100 142.391 C 251.715 142.386,250.950 142.030,250.400 141.600 C 249.850 141.170,249.232 140.814,249.026 140.809 C 248.346 140.793,244.889 136.909,244.159 135.341 C 243.764 134.493,243.252 133.668,243.021 133.506 C 242.789 133.344,233.105 133.209,221.500 133.206 L 200.400 133.200 200.400 138.200 M263.600 142.000 C 263.600 142.220,263.049 142.400,262.376 142.400 C 261.663 142.400,261.256 142.567,261.400 142.800 C 261.815 143.471,264.682 143.284,264.957 142.567 C 265.309 141.650,265.281 141.600,264.400 141.600 C 263.960 141.600,263.600 141.780,263.600 142.000 M200.400 165.400 L 200.400 170.005 232.700 169.902 L 265.000 169.800 265.000 165.400 L 265.000 161.000 232.700 160.898 L 200.400 160.795 200.400 165.400 M216.300 170.700 C 225.155 170.760,239.645 170.760,248.500 170.700 C 257.355 170.640,250.110 170.591,232.400 170.591 C 214.690 170.591,207.445 170.640,216.300 170.700 M232.000 187.600 L 263.800 187.807 232.100 187.904 L 200.400 188.000 200.400 192.602 L 200.400 197.205 232.700 197.102 L 265.000 197.000 265.115 193.028 C 265.179 190.844,265.105 188.774,264.952 188.428 C 264.798 188.083,264.702 187.665,264.736 187.500 C 264.771 187.335,250.265 187.243,232.500 187.296 L 200.200 187.393 232.000 187.600 M208.033 213.744 C 208.505 214.150,210.443 214.393,210.210 214.016 C 210.068 213.787,209.483 213.600,208.910 213.600 C 208.336 213.600,207.942 213.665,208.033 213.744 M200.400 219.587 L 200.400 224.400 204.567 224.400 C 206.859 224.400,208.974 224.492,209.267 224.605 C 209.700 224.772,209.762 223.886,209.600 219.905 L 209.400 215.000 204.900 214.887 L 200.400 214.774 200.400 219.587 M200.400 246.600 L 200.400 251.200 204.367 251.200 C 209.926 251.200,209.600 251.502,209.600 246.357 L 209.600 242.000 205.000 242.000 L 200.400 242.000 200.400 246.600 M159.100 310.700 C 182.035 310.757,219.565 310.757,242.500 310.700 C 265.435 310.643,246.670 310.596,200.800 310.596 C 154.930 310.596,136.165 310.643,159.100 310.700 " stroke="none" fill="#35ccec" fill-rule="evenodd"></path><path id="path2" d="M337.205 0.277 C 336.658 0.389,335.730 0.822,335.143 1.240 C 334.557 1.658,333.965 2.000,333.828 2.000 C 333.299 2.000,330.000 5.611,330.000 6.189 C 330.000 6.525,329.820 6.800,329.600 6.800 C 329.380 6.800,329.200 7.160,329.200 7.600 C 329.200 8.040,329.020 8.400,328.800 8.400 C 328.580 8.400,328.400 8.929,328.400 9.576 C 328.400 10.223,328.220 10.864,328.000 11.000 C 327.740 11.161,327.600 20.404,327.600 37.424 C 327.600 54.275,327.460 63.600,327.207 63.600 C 326.992 63.600,325.597 62.465,324.107 61.077 C 319.994 57.245,319.476 56.800,319.127 56.800 C 318.949 56.800,317.885 55.900,316.761 54.800 C 315.638 53.700,314.549 52.800,314.341 52.800 C 314.134 52.800,313.514 52.350,312.964 51.800 C 312.414 51.250,311.811 50.800,311.624 50.800 C 311.437 50.800,310.703 50.257,309.993 49.594 C 309.283 48.930,308.184 48.081,307.551 47.707 C 306.918 47.333,306.400 46.886,306.400 46.714 C 306.400 46.541,306.130 46.400,305.800 46.400 C 305.470 46.400,305.200 46.250,305.200 46.068 C 305.200 45.885,304.705 45.480,304.100 45.168 C 303.495 44.855,302.651 44.285,302.225 43.900 C 301.798 43.515,301.290 43.200,301.096 43.200 C 300.902 43.200,300.473 42.930,300.143 42.600 C 299.813 42.270,299.196 42.000,298.771 42.000 C 298.347 42.000,298.000 41.820,298.000 41.600 C 298.000 41.380,297.680 41.200,297.288 41.200 C 296.897 41.200,296.317 40.840,296.000 40.400 C 295.683 39.960,295.103 39.600,294.712 39.600 C 294.320 39.600,294.000 39.420,294.000 39.200 C 294.000 38.980,293.706 38.800,293.347 38.800 C 292.988 38.800,292.403 38.471,292.047 38.070 C 291.691 37.668,290.815 37.084,290.100 36.772 C 289.385 36.460,288.800 36.069,288.800 35.902 C 288.800 35.736,288.440 35.600,288.000 35.600 C 287.560 35.600,287.200 35.420,287.200 35.200 C 287.200 34.980,286.840 34.800,286.400 34.800 C 285.960 34.800,285.600 34.620,285.600 34.400 C 285.600 34.180,285.240 34.000,284.800 34.000 C 284.360 34.000,284.000 33.820,284.000 33.600 C 284.000 33.380,283.640 33.200,283.200 33.200 C 282.760 33.200,282.400 33.020,282.400 32.800 C 282.400 32.580,282.040 32.400,281.600 32.400 C 281.160 32.400,280.800 32.220,280.800 32.000 C 280.800 31.780,280.440 31.600,280.000 31.600 C 279.560 31.600,279.200 31.420,279.200 31.200 C 279.200 30.980,278.840 30.800,278.400 30.800 C 277.960 30.800,277.600 30.620,277.600 30.400 C 277.600 30.180,277.240 30.000,276.800 30.000 C 276.360 30.000,276.000 29.820,276.000 29.600 C 276.000 29.380,275.728 29.200,275.395 29.200 C 275.062 29.200,274.477 29.035,274.095 28.833 C 272.492 27.985,269.571 26.800,269.084 26.800 C 268.796 26.800,268.389 26.644,268.180 26.453 C 267.617 25.939,263.999 24.800,262.929 24.800 C 262.418 24.800,262.000 24.620,262.000 24.400 C 262.000 24.180,261.651 24.000,261.224 24.000 C 260.797 24.000,260.336 23.820,260.200 23.600 C 260.064 23.380,259.524 23.200,259.000 23.200 C 258.476 23.200,257.936 23.020,257.800 22.800 C 257.664 22.580,257.023 22.400,256.376 22.400 C 255.729 22.400,255.200 22.220,255.200 22.000 C 255.200 21.780,254.660 21.600,254.000 21.600 C 253.340 21.600,252.800 21.420,252.800 21.200 C 252.800 20.980,252.271 20.800,251.624 20.800 C 250.977 20.800,250.336 20.620,250.200 20.400 C 250.064 20.180,249.333 20.000,248.576 20.000 C 247.819 20.000,247.200 19.820,247.200 19.600 C 247.200 19.380,246.480 19.200,245.600 19.200 C 244.720 19.200,244.000 19.020,244.000 18.800 C 244.000 18.580,243.291 18.400,242.424 18.400 C 241.557 18.400,240.736 18.220,240.600 18.000 C 240.464 17.780,239.553 17.600,238.576 17.600 C 237.599 17.600,236.800 17.420,236.800 17.200 C 236.800 16.980,236.001 16.800,235.024 16.800 C 234.047 16.800,233.136 16.620,233.000 16.400 C 232.864 16.180,231.593 16.000,230.176 16.000 C 228.725 16.000,227.600 15.825,227.600 15.600 C 227.600 15.371,226.400 15.200,224.800 15.200 C 223.200 15.200,222.000 15.029,222.000 14.800 C 222.000 14.562,220.475 14.400,218.224 14.400 C 216.137 14.400,214.337 14.221,214.200 14.000 C 213.861 13.451,185.600 13.451,185.600 14.000 C 185.600 14.241,183.933 14.400,181.400 14.400 C 178.867 14.400,177.200 14.559,177.200 14.800 C 177.200 15.029,176.000 15.200,174.400 15.200 C 172.800 15.200,171.600 15.371,171.600 15.600 C 171.600 15.822,170.533 16.000,169.200 16.000 C 167.867 16.000,166.800 16.178,166.800 16.400 C 166.800 16.620,165.911 16.800,164.824 16.800 C 163.737 16.800,162.736 16.980,162.600 17.200 C 162.464 17.420,161.654 17.600,160.800 17.600 C 159.946 17.600,159.136 17.780,159.000 18.000 C 158.864 18.220,158.054 18.400,157.200 18.400 C 156.346 18.400,155.536 18.580,155.400 18.800 C 155.264 19.020,154.443 19.200,153.576 19.200 C 152.709 19.200,152.000 19.380,152.000 19.600 C 152.000 19.820,151.460 20.000,150.800 20.000 C 150.140 20.000,149.600 20.180,149.600 20.400 C 149.600 20.620,148.880 20.800,148.000 20.800 C 147.120 20.800,146.400 20.980,146.400 21.200 C 146.400 21.420,145.860 21.600,145.200 21.600 C 144.540 21.600,144.000 21.780,144.000 22.000 C 144.000 22.220,143.550 22.400,143.000 22.400 C 142.450 22.400,142.000 22.580,142.000 22.800 C 142.000 23.020,141.460 23.200,140.800 23.200 C 140.140 23.200,139.600 23.380,139.600 23.600 C 139.600 23.820,139.060 24.000,138.400 24.000 C 137.740 24.000,137.200 24.180,137.200 24.400 C 137.200 24.620,136.782 24.800,136.271 24.800 C 135.201 24.800,131.583 25.939,131.020 26.453 C 130.811 26.644,130.411 26.800,130.130 26.800 C 129.850 26.800,128.441 27.340,127.000 28.000 C 125.559 28.660,124.114 29.200,123.790 29.200 C 123.465 29.200,123.200 29.380,123.200 29.600 C 123.200 29.820,122.840 30.000,122.400 30.000 C 121.960 30.000,121.600 30.180,121.600 30.400 C 121.600 30.620,121.240 30.800,120.800 30.800 C 120.360 30.800,120.000 30.980,120.000 31.200 C 120.000 31.420,119.640 31.600,119.200 31.600 C 118.760 31.600,118.400 31.780,118.400 32.000 C 118.400 32.220,118.040 32.400,117.600 32.400 C 117.160 32.400,116.800 32.580,116.800 32.800 C 116.800 33.020,116.440 33.200,116.000 33.200 C 115.560 33.200,115.200 33.380,115.200 33.600 C 115.200 33.820,114.840 34.000,114.400 34.000 C 113.960 34.000,113.600 34.180,113.600 34.400 C 113.600 34.620,113.240 34.800,112.800 34.800 C 112.360 34.800,112.000 34.980,112.000 35.200 C 112.000 35.420,111.640 35.600,111.200 35.600 C 110.760 35.600,110.400 35.780,110.400 36.000 C 110.400 36.220,110.130 36.400,109.800 36.400 C 109.470 36.400,109.200 36.580,109.200 36.800 C 109.200 37.020,108.880 37.200,108.488 37.200 C 108.097 37.200,107.517 37.560,107.200 38.000 C 106.883 38.440,106.303 38.800,105.912 38.800 C 105.520 38.800,105.200 38.980,105.200 39.200 C 105.200 39.420,104.922 39.600,104.583 39.600 C 104.244 39.600,103.580 39.960,103.108 40.400 C 102.636 40.840,102.013 41.200,101.725 41.200 C 101.436 41.200,101.200 41.380,101.200 41.600 C 101.200 41.820,100.938 42.000,100.618 42.000 C 100.090 42.000,97.722 43.382,96.517 44.394 C 96.251 44.617,95.891 44.800,95.717 44.800 C 95.402 44.801,94.020 45.886,91.893 47.803 C 91.284 48.351,90.601 48.800,90.375 48.800 C 90.149 48.800,89.514 49.250,88.964 49.800 C 88.414 50.350,87.798 50.800,87.595 50.800 C 87.392 50.800,86.597 51.430,85.827 52.200 C 85.057 52.970,84.262 53.600,84.062 53.600 C 83.861 53.600,82.955 54.320,82.048 55.200 C 81.141 56.080,80.236 56.800,80.036 56.800 C 79.836 56.800,78.441 57.981,76.936 59.424 C 75.431 60.867,73.586 62.518,72.836 63.093 C 70.899 64.578,64.171 71.362,63.321 72.688 C 62.929 73.300,61.826 74.511,60.869 75.379 C 59.912 76.248,58.569 77.778,57.884 78.779 C 57.198 79.781,55.954 81.261,55.119 82.069 C 54.283 82.876,53.600 83.749,53.600 84.008 C 53.600 84.267,53.060 84.983,52.400 85.600 C 51.740 86.217,51.200 86.937,51.200 87.200 C 51.200 87.463,50.660 88.183,50.000 88.800 C 49.340 89.417,48.800 90.143,48.800 90.414 C 48.800 90.684,48.474 91.197,48.075 91.553 C 47.676 91.909,46.743 93.100,46.001 94.200 C 45.260 95.300,44.529 96.290,44.378 96.400 C 44.227 96.510,43.592 97.590,42.968 98.800 C 42.344 100.010,41.690 101.060,41.516 101.133 C 41.342 101.207,41.200 101.572,41.200 101.945 C 41.200 102.318,40.840 102.883,40.400 103.200 C 39.960 103.517,39.600 104.097,39.600 104.488 C 39.600 104.880,39.420 105.200,39.200 105.200 C 38.980 105.200,38.800 105.560,38.800 106.000 C 38.800 106.440,38.620 106.800,38.400 106.800 C 38.180 106.800,38.000 107.094,38.000 107.453 C 38.000 107.812,37.671 108.397,37.270 108.753 C 36.868 109.109,36.284 109.985,35.972 110.700 C 35.660 111.415,35.269 112.000,35.102 112.000 C 34.936 112.000,34.800 112.360,34.800 112.800 C 34.800 113.240,34.620 113.600,34.400 113.600 C 34.180 113.600,34.000 113.960,34.000 114.400 C 34.000 114.840,33.820 115.200,33.600 115.200 C 33.380 115.200,33.200 115.560,33.200 116.000 C 33.200 116.440,33.020 116.800,32.800 116.800 C 32.580 116.800,32.400 117.160,32.400 117.600 C 32.400 118.040,32.220 118.400,32.000 118.400 C 31.780 118.400,31.600 118.760,31.600 119.200 C 31.600 119.640,31.420 120.000,31.200 120.000 C 30.980 120.000,30.800 120.360,30.800 120.800 C 30.800 121.240,30.620 121.600,30.400 121.600 C 30.180 121.600,30.000 121.949,30.000 122.376 C 30.000 122.803,29.820 123.264,29.600 123.400 C 29.380 123.536,29.200 124.087,29.200 124.624 C 29.200 125.161,29.064 125.600,28.898 125.600 C 28.731 125.600,28.356 126.185,28.064 126.900 C 26.941 129.650,26.696 130.222,26.353 130.895 C 26.159 131.277,26.000 131.841,26.000 132.149 C 26.000 132.457,25.731 133.224,25.402 133.854 C 25.074 134.484,24.804 135.495,24.802 136.100 C 24.801 136.705,24.620 137.200,24.400 137.200 C 24.180 137.200,24.000 137.740,24.000 138.400 C 24.000 139.060,23.820 139.600,23.600 139.600 C 23.380 139.600,23.200 140.140,23.200 140.800 C 23.200 141.460,23.020 142.000,22.800 142.000 C 22.580 142.000,22.400 142.450,22.400 143.000 C 22.400 143.550,22.220 144.000,22.000 144.000 C 21.780 144.000,21.600 144.540,21.600 145.200 C 21.600 145.860,21.420 146.400,21.200 146.400 C 20.980 146.400,20.800 147.120,20.800 148.000 C 20.800 148.880,20.620 149.600,20.400 149.600 C 20.180 149.600,20.000 150.129,20.000 150.776 C 20.000 151.423,19.820 152.064,19.600 152.200 C 19.380 152.336,19.200 153.067,19.200 153.824 C 19.200 154.581,19.020 155.200,18.800 155.200 C 18.580 155.200,18.400 156.100,18.400 157.200 C 18.400 158.300,18.220 159.200,18.000 159.200 C 17.780 159.200,17.600 159.909,17.600 160.776 C 17.600 161.643,17.420 162.464,17.200 162.600 C 16.980 162.736,16.800 163.737,16.800 164.824 C 16.800 165.911,16.620 166.800,16.400 166.800 C 16.178 166.800,16.000 167.867,16.000 169.200 C 16.000 170.533,15.822 171.600,15.600 171.600 C 15.369 171.600,15.200 172.867,15.200 174.600 C 15.200 176.333,15.031 177.600,14.800 177.600 C 14.560 177.600,14.400 179.192,14.400 181.576 C 14.400 183.796,14.223 185.662,14.000 185.800 C 13.455 186.137,13.455 204.400,14.000 204.400 C 14.220 204.400,14.400 204.762,14.400 205.205 C 14.400 206.165,15.077 207.418,16.269 208.665 C 16.747 209.165,17.254 209.940,17.396 210.387 C 17.538 210.834,17.962 211.200,18.339 211.200 C 18.715 211.200,19.283 211.560,19.600 212.000 C 19.917 212.440,20.497 212.800,20.888 212.800 C 21.280 212.800,21.600 212.980,21.600 213.200 C 21.600 213.420,21.960 213.600,22.400 213.600 C 22.840 213.600,23.200 213.780,23.200 214.000 C 23.200 214.220,23.819 214.400,24.576 214.400 C 25.333 214.400,26.064 214.580,26.200 214.800 C 26.522 215.321,30.678 215.321,31.000 214.800 C 31.136 214.580,31.856 214.400,32.600 214.400 C 33.344 214.400,34.064 214.220,34.200 214.000 C 34.336 213.780,34.797 213.600,35.224 213.600 C 35.651 213.600,36.000 213.420,36.000 213.200 C 36.000 212.980,36.270 212.800,36.600 212.800 C 36.930 212.800,37.200 212.620,37.200 212.400 C 37.200 212.180,37.470 212.000,37.800 212.000 C 38.130 212.000,38.400 211.820,38.400 211.600 C 38.400 211.380,38.658 211.200,38.973 211.200 C 39.288 211.200,39.653 210.864,39.783 210.453 C 39.914 210.042,40.376 209.384,40.810 208.991 C 41.245 208.598,41.600 207.944,41.600 207.538 C 41.600 207.132,41.780 206.800,42.000 206.800 C 42.220 206.800,42.400 206.350,42.400 205.800 C 42.400 205.250,42.580 204.800,42.800 204.800 C 43.043 204.800,43.200 203.000,43.200 200.200 C 43.200 197.400,43.357 195.600,43.600 195.600 C 43.848 195.600,44.000 193.400,44.000 189.800 C 44.000 186.200,44.152 184.000,44.400 184.000 C 44.633 184.000,44.800 182.667,44.800 180.800 C 44.800 178.933,44.967 177.600,45.200 177.600 C 45.420 177.600,45.600 176.621,45.600 175.424 C 45.600 174.227,45.780 173.136,46.000 173.000 C 46.220 172.864,46.400 171.874,46.400 170.800 C 46.400 169.726,46.580 168.736,46.800 168.600 C 47.020 168.464,47.200 167.834,47.200 167.200 C 47.200 166.566,47.380 165.936,47.600 165.800 C 47.820 165.664,48.000 164.933,48.000 164.176 C 48.000 163.419,48.180 162.800,48.400 162.800 C 48.620 162.800,48.800 162.080,48.800 161.200 C 48.800 160.320,48.980 159.600,49.200 159.600 C 49.420 159.600,49.600 158.981,49.600 158.224 C 49.600 157.467,49.780 156.736,50.000 156.600 C 50.220 156.464,50.400 155.733,50.400 154.976 C 50.400 154.219,50.580 153.600,50.800 153.600 C 51.020 153.600,51.200 153.161,51.200 152.624 C 51.200 152.087,51.380 151.536,51.600 151.400 C 51.820 151.264,52.000 150.803,52.000 150.376 C 52.000 149.949,52.180 149.600,52.400 149.600 C 52.620 149.600,52.800 149.060,52.800 148.400 C 52.800 147.740,52.980 147.200,53.200 147.200 C 53.420 147.200,53.600 146.660,53.600 146.000 C 53.600 145.340,53.747 144.800,53.928 144.800 C 54.108 144.800,54.500 143.900,54.800 142.800 C 55.100 141.700,55.492 140.800,55.672 140.800 C 55.853 140.800,56.000 140.475,56.000 140.077 C 56.000 139.679,56.629 138.104,57.399 136.577 C 58.168 135.050,58.798 133.485,58.799 133.100 C 58.799 132.715,58.980 132.400,59.200 132.400 C 59.420 132.400,59.600 132.040,59.600 131.600 C 59.600 131.160,59.780 130.800,60.000 130.800 C 60.220 130.800,60.400 130.440,60.400 130.000 C 60.400 129.560,60.580 129.200,60.800 129.200 C 61.020 129.200,61.200 128.840,61.200 128.400 C 61.200 127.960,61.380 127.600,61.600 127.600 C 61.820 127.600,62.000 127.240,62.000 126.800 C 62.000 126.360,62.136 126.000,62.302 126.000 C 62.469 126.000,62.864 125.415,63.180 124.700 C 63.497 123.985,64.080 123.051,64.478 122.625 C 64.875 122.198,65.200 121.613,65.200 121.325 C 65.200 121.036,65.380 120.800,65.600 120.800 C 65.820 120.800,66.000 120.564,66.000 120.275 C 66.000 119.987,66.360 119.364,66.800 118.892 C 67.240 118.420,67.600 117.756,67.600 117.417 C 67.600 117.078,67.780 116.800,68.000 116.800 C 68.220 116.800,68.400 116.564,68.400 116.275 C 68.400 115.987,68.760 115.364,69.200 114.892 C 69.640 114.420,70.000 113.838,70.000 113.599 C 70.000 113.359,70.450 112.714,71.000 112.164 C 71.550 111.614,72.000 111.020,72.000 110.844 C 72.000 110.668,72.459 110.001,73.020 109.362 C 73.581 108.723,74.340 107.705,74.706 107.100 C 75.073 106.495,75.514 106.000,75.686 106.000 C 75.859 106.000,76.000 105.730,76.000 105.400 C 76.000 105.070,76.180 104.800,76.400 104.800 C 76.620 104.800,76.800 104.570,76.800 104.288 C 76.800 104.007,77.160 103.517,77.600 103.200 C 78.040 102.883,78.400 102.393,78.400 102.112 C 78.400 101.830,78.580 101.600,78.800 101.600 C 79.020 101.600,79.200 101.421,79.200 101.203 C 79.200 100.985,80.640 99.352,82.400 97.576 C 84.160 95.799,85.600 94.195,85.600 94.012 C 85.600 93.576,93.576 85.600,94.012 85.600 C 94.195 85.600,95.799 84.160,97.576 82.400 C 99.352 80.640,100.958 79.200,101.144 79.200 C 101.329 79.200,102.046 78.660,102.737 78.000 C 103.428 77.340,104.174 76.800,104.396 76.800 C 104.618 76.800,104.800 76.620,104.800 76.400 C 104.800 76.180,105.070 76.000,105.400 76.000 C 105.730 76.000,106.000 75.859,106.000 75.686 C 106.000 75.514,106.495 75.073,107.100 74.706 C 107.705 74.340,108.723 73.581,109.362 73.020 C 110.001 72.459,110.668 72.000,110.844 72.000 C 111.020 72.000,111.614 71.550,112.164 71.000 C 112.714 70.450,113.442 70.000,113.782 70.000 C 114.122 70.000,114.400 69.842,114.400 69.649 C 114.400 69.455,114.940 69.073,115.600 68.800 C 116.260 68.527,116.800 68.145,116.800 67.951 C 116.800 67.758,117.078 67.600,117.417 67.600 C 117.756 67.600,118.420 67.240,118.892 66.800 C 119.364 66.360,119.987 66.000,120.275 66.000 C 120.564 66.000,120.800 65.820,120.800 65.600 C 120.800 65.380,121.036 65.200,121.325 65.200 C 121.613 65.200,122.236 64.840,122.708 64.400 C 123.180 63.960,123.844 63.600,124.183 63.600 C 124.522 63.600,124.800 63.420,124.800 63.200 C 124.800 62.980,125.070 62.800,125.400 62.800 C 125.730 62.800,126.000 62.620,126.000 62.400 C 126.000 62.180,126.360 62.000,126.800 62.000 C 127.240 62.000,127.600 61.820,127.600 61.600 C 127.600 61.380,127.960 61.200,128.400 61.200 C 128.840 61.200,129.200 61.020,129.200 60.800 C 129.200 60.580,129.560 60.400,130.000 60.400 C 130.440 60.400,130.800 60.220,130.800 60.000 C 130.800 59.780,131.160 59.600,131.600 59.600 C 132.040 59.600,132.400 59.420,132.400 59.200 C 132.400 58.980,132.715 58.799,133.100 58.799 C 133.485 58.798,135.050 58.168,136.577 57.399 C 138.104 56.629,139.679 56.000,140.077 56.000 C 140.475 56.000,140.800 55.820,140.800 55.600 C 140.800 55.380,141.239 55.200,141.776 55.200 C 142.313 55.200,142.864 55.020,143.000 54.800 C 143.136 54.580,143.597 54.400,144.024 54.400 C 144.451 54.400,144.800 54.220,144.800 54.000 C 144.800 53.780,145.340 53.600,146.000 53.600 C 146.660 53.600,147.200 53.420,147.200 53.200 C 147.200 52.980,147.740 52.800,148.400 52.800 C 149.060 52.800,149.600 52.620,149.600 52.400 C 149.600 52.180,150.039 52.000,150.576 52.000 C 151.113 52.000,151.664 51.820,151.800 51.600 C 151.936 51.380,152.397 51.200,152.824 51.200 C 153.251 51.200,153.600 51.020,153.600 50.800 C 153.600 50.580,154.219 50.400,154.976 50.400 C 155.733 50.400,156.464 50.220,156.600 50.000 C 156.736 49.780,157.467 49.600,158.224 49.600 C 158.981 49.600,159.600 49.420,159.600 49.200 C 159.600 48.980,160.320 48.800,161.200 48.800 C 162.080 48.800,162.800 48.620,162.800 48.400 C 162.800 48.180,163.520 48.000,164.400 48.000 C 165.280 48.000,166.000 47.820,166.000 47.600 C 166.000 47.380,166.619 47.200,167.376 47.200 C 168.133 47.200,168.864 47.020,169.000 46.800 C 169.136 46.580,170.036 46.400,171.000 46.400 C 171.964 46.400,172.864 46.220,173.000 46.000 C 173.136 45.780,174.227 45.600,175.424 45.600 C 176.621 45.600,177.600 45.420,177.600 45.200 C 177.600 44.967,178.933 44.800,180.800 44.800 C 182.667 44.800,184.000 44.633,184.000 44.400 C 184.000 44.149,186.467 44.000,190.600 44.000 C 194.733 44.000,197.200 43.851,197.200 43.600 C 197.200 43.371,198.400 43.200,200.000 43.200 C 201.600 43.200,202.800 43.371,202.800 43.600 C 202.800 43.851,205.267 44.000,209.400 44.000 C 213.533 44.000,216.000 44.149,216.000 44.400 C 216.000 44.628,217.192 44.800,218.776 44.800 C 220.303 44.800,221.664 44.980,221.800 45.200 C 221.936 45.420,223.117 45.600,224.424 45.600 C 225.741 45.600,226.800 45.778,226.800 46.000 C 226.800 46.220,227.700 46.400,228.800 46.400 C 229.900 46.400,230.800 46.580,230.800 46.800 C 230.800 47.020,231.599 47.200,232.576 47.200 C 233.553 47.200,234.464 47.380,234.600 47.600 C 234.736 47.820,235.557 48.000,236.424 48.000 C 237.291 48.000,238.000 48.180,238.000 48.400 C 238.000 48.620,238.720 48.800,239.600 48.800 C 240.480 48.800,241.200 48.980,241.200 49.200 C 241.200 49.420,241.639 49.600,242.176 49.600 C 242.713 49.600,243.264 49.780,243.400 50.000 C 243.536 50.220,244.166 50.400,244.800 50.400 C 245.434 50.400,246.064 50.580,246.200 50.800 C 246.336 51.020,246.977 51.200,247.624 51.200 C 248.271 51.200,248.800 51.347,248.800 51.528 C 248.800 51.708,249.711 52.104,250.825 52.407 C 251.939 52.710,252.940 53.103,253.049 53.279 C 253.158 53.456,253.687 53.600,254.224 53.600 C 254.761 53.600,255.200 53.780,255.200 54.000 C 255.200 54.220,255.639 54.400,256.176 54.400 C 256.713 54.400,257.264 54.580,257.400 54.800 C 257.536 55.020,257.997 55.200,258.424 55.200 C 258.851 55.200,259.200 55.380,259.200 55.600 C 259.200 55.820,259.472 56.000,259.805 56.000 C 260.138 56.000,260.723 56.164,261.105 56.365 C 263.298 57.518,266.370 58.800,266.940 58.800 C 267.303 58.800,267.600 58.980,267.600 59.200 C 267.600 59.420,267.960 59.600,268.400 59.600 C 268.840 59.600,269.200 59.780,269.200 60.000 C 269.200 60.220,269.560 60.400,270.000 60.400 C 270.440 60.400,270.800 60.580,270.800 60.800 C 270.800 61.020,271.160 61.200,271.600 61.200 C 272.040 61.200,272.400 61.380,272.400 61.600 C 272.400 61.820,272.760 62.000,273.200 62.000 C 273.640 62.000,274.000 62.180,274.000 62.400 C 274.000 62.620,274.360 62.800,274.800 62.800 C 275.240 62.800,275.600 62.980,275.600 63.200 C 275.600 63.420,275.870 63.600,276.200 63.600 C 276.530 63.600,276.800 63.780,276.800 64.000 C 276.800 64.220,277.070 64.400,277.400 64.400 C 277.730 64.400,278.000 64.580,278.000 64.800 C 278.000 65.020,278.270 65.200,278.600 65.200 C 278.930 65.200,279.200 65.380,279.200 65.600 C 279.200 65.820,279.478 66.000,279.817 66.000 C 280.156 66.000,280.820 66.360,281.292 66.800 C 281.764 67.240,282.387 67.600,282.675 67.600 C 282.964 67.600,283.200 67.780,283.200 68.000 C 283.200 68.220,283.520 68.400,283.912 68.400 C 284.303 68.400,284.883 68.760,285.200 69.200 C 285.517 69.640,286.057 70.000,286.400 70.000 C 286.743 70.000,287.283 70.360,287.600 70.800 C 287.917 71.240,288.413 71.600,288.703 71.600 C 288.992 71.600,289.627 71.961,290.114 72.403 C 291.874 73.999,293.524 75.200,293.958 75.200 C 294.201 75.200,294.400 75.380,294.400 75.600 C 294.400 75.820,294.598 76.000,294.840 76.000 C 295.081 76.000,295.783 76.540,296.400 77.200 C 297.017 77.860,297.719 78.400,297.960 78.400 C 298.202 78.400,298.400 78.580,298.400 78.800 C 298.400 79.020,298.579 79.200,298.798 79.200 C 299.017 79.200,300.115 80.100,301.239 81.200 C 302.362 82.300,303.445 83.200,303.645 83.200 C 304.234 83.200,313.992 93.290,313.762 93.661 C 313.647 93.848,313.124 94.000,312.600 94.000 C 312.076 94.000,311.536 94.180,311.400 94.400 C 311.264 94.620,310.713 94.800,310.176 94.800 C 309.639 94.800,309.200 94.980,309.200 95.200 C 309.200 95.420,308.660 95.600,308.000 95.600 C 307.340 95.600,306.800 95.780,306.800 96.000 C 306.800 96.220,306.260 96.400,305.600 96.400 C 304.940 96.400,304.400 96.580,304.400 96.800 C 304.400 97.020,303.860 97.200,303.200 97.200 C 302.540 97.200,302.000 97.380,302.000 97.600 C 302.000 97.820,301.460 98.000,300.800 98.000 C 300.140 98.000,299.600 98.180,299.600 98.400 C 299.600 98.620,299.240 98.800,298.800 98.800 C 298.284 98.800,298.000 99.067,298.000 99.551 C 298.000 100.465,298.174 100.395,286.400 104.235 C 281.230 105.921,276.640 107.441,276.200 107.614 C 275.760 107.786,273.602 108.130,271.406 108.378 C 269.209 108.626,267.238 109.002,267.026 109.214 C 266.813 109.427,266.237 109.600,265.744 109.600 C 265.251 109.600,264.736 109.780,264.600 110.000 C 264.464 110.220,263.924 110.400,263.400 110.400 C 262.876 110.400,262.336 110.580,262.200 110.800 C 262.064 111.020,261.524 111.200,261.000 111.200 C 260.476 111.200,259.936 111.380,259.800 111.600 C 259.664 111.820,259.113 112.000,258.576 112.000 C 258.039 112.000,257.600 112.180,257.600 112.400 C 257.600 112.620,257.060 112.800,256.400 112.800 C 255.740 112.800,255.200 112.980,255.200 113.200 C 255.200 113.420,254.660 113.600,254.000 113.600 C 253.340 113.600,252.800 113.780,252.800 114.000 C 252.800 114.220,252.361 114.400,251.824 114.400 C 251.287 114.400,250.736 114.580,250.600 114.800 C 250.464 115.020,250.090 115.200,249.769 115.200 C 248.995 115.200,244.000 120.215,244.000 120.993 C 244.000 121.327,243.859 121.600,243.687 121.600 C 241.846 121.600,241.682 131.617,243.500 133.041 C 244.215 133.600,244.800 134.313,244.800 134.624 C 244.800 135.931,248.711 139.838,251.383 141.200 C 253.535 142.297,260.907 142.660,262.062 141.726 C 262.850 141.088,266.000 140.631,266.000 141.155 C 266.000 141.634,268.363 141.310,268.980 140.747 C 269.189 140.556,269.763 140.400,270.256 140.400 C 270.749 140.400,271.264 140.220,271.400 140.000 C 271.536 139.780,272.076 139.600,272.600 139.600 C 273.124 139.600,273.664 139.420,273.800 139.200 C 273.936 138.980,274.487 138.800,275.024 138.800 C 275.561 138.800,276.000 138.620,276.000 138.400 C 276.000 138.180,276.540 138.000,277.200 138.000 C 277.860 138.000,278.400 137.820,278.400 137.600 C 278.400 137.380,278.940 137.200,279.600 137.200 C 280.260 137.200,280.800 137.020,280.800 136.800 C 280.800 136.580,281.340 136.400,282.000 136.400 C 282.660 136.400,283.200 136.220,283.200 136.000 C 283.200 135.780,283.740 135.600,284.400 135.600 C 285.060 135.600,285.600 135.420,285.600 135.200 C 285.600 134.980,286.140 134.800,286.800 134.800 C 287.728 134.800,288.000 134.621,288.000 134.010 C 288.000 133.137,289.195 132.427,292.000 131.632 C 292.990 131.352,294.093 130.972,294.451 130.788 C 295.660 130.168,298.000 129.883,298.000 130.355 C 298.000 130.600,298.360 130.800,298.800 130.800 C 299.240 130.800,299.600 130.620,299.600 130.400 C 299.600 130.180,300.140 130.000,300.800 130.000 C 301.460 130.000,302.000 129.820,302.000 129.600 C 302.000 129.380,302.540 129.200,303.200 129.200 C 303.860 129.200,304.400 129.020,304.400 128.800 C 304.400 128.580,304.940 128.400,305.600 128.400 C 306.260 128.400,306.800 128.220,306.800 128.000 C 306.800 127.780,307.250 127.600,307.800 127.600 C 308.350 127.600,308.800 127.420,308.800 127.200 C 308.800 126.980,309.340 126.800,310.000 126.800 C 310.660 126.800,311.200 126.620,311.200 126.400 C 311.200 126.180,311.740 126.000,312.400 126.000 C 313.060 126.000,313.600 125.841,313.600 125.646 C 313.600 125.451,314.587 125.169,315.794 125.018 C 317.000 124.867,318.091 124.577,318.217 124.372 C 318.344 124.167,318.876 124.000,319.400 124.000 C 319.924 124.000,320.464 123.820,320.600 123.600 C 320.736 123.380,321.276 123.200,321.800 123.200 C 322.324 123.200,322.864 123.020,323.000 122.800 C 323.136 122.580,323.687 122.400,324.224 122.400 C 324.761 122.400,325.200 122.220,325.200 122.000 C 325.200 121.780,325.740 121.600,326.400 121.600 C 327.060 121.600,327.600 121.420,327.600 121.200 C 327.600 120.980,328.140 120.800,328.800 120.800 C 329.460 120.800,330.000 120.620,330.000 120.400 C 330.000 120.180,330.540 120.000,331.200 120.000 C 331.860 120.000,332.400 119.820,332.400 119.600 C 332.400 119.380,332.940 119.200,333.600 119.200 C 334.260 119.200,334.800 119.020,334.800 118.800 C 334.800 118.580,335.340 118.400,336.000 118.400 C 336.660 118.400,337.200 118.220,337.200 118.000 C 337.200 117.780,337.639 117.600,338.176 117.600 C 338.713 117.600,339.264 117.420,339.400 117.200 C 339.536 116.980,340.087 116.800,340.624 116.800 C 341.161 116.800,341.600 116.620,341.600 116.400 C 341.600 116.180,342.140 116.000,342.800 116.000 C 343.460 116.000,344.000 115.820,344.000 115.600 C 344.000 115.380,344.540 115.200,345.200 115.200 C 345.860 115.200,346.400 115.020,346.400 114.800 C 346.400 114.580,346.940 114.400,347.600 114.400 C 348.260 114.400,348.800 114.220,348.800 114.000 C 348.800 113.780,349.160 113.600,349.600 113.600 C 350.040 113.600,350.400 113.420,350.400 113.200 C 350.400 112.980,350.641 112.800,350.936 112.800 C 352.856 112.800,357.063 106.615,357.740 102.800 C 358.690 97.443,358.145 9.200,357.161 9.200 C 356.963 9.200,356.800 8.928,356.800 8.595 C 356.800 7.930,356.082 6.537,355.300 5.687 C 355.025 5.388,354.800 5.003,354.800 4.833 C 354.800 4.312,353.463 3.027,352.300 2.430 C 351.695 2.119,351.200 1.715,351.200 1.532 C 351.200 1.350,350.855 1.200,350.433 1.200 C 350.012 1.200,349.592 0.975,349.500 0.700 C 349.329 0.185,339.333 -0.160,337.205 0.277 M369.000 185.200 C 368.864 185.420,368.144 185.600,367.400 185.600 C 366.656 185.600,365.936 185.780,365.800 186.000 C 365.664 186.220,365.203 186.400,364.776 186.400 C 364.349 186.400,364.000 186.580,364.000 186.800 C 364.000 187.020,363.730 187.200,363.400 187.200 C 363.070 187.200,362.800 187.380,362.800 187.600 C 362.800 187.820,362.530 188.000,362.200 188.000 C 361.870 188.000,361.600 188.180,361.600 188.400 C 361.600 188.620,361.375 188.807,361.100 188.815 C 360.570 188.830,358.400 191.994,358.400 192.752 C 358.400 192.998,358.220 193.200,358.000 193.200 C 357.780 193.200,357.600 193.650,357.600 194.200 C 357.600 194.750,357.420 195.200,357.200 195.200 C 356.957 195.200,356.800 197.000,356.800 199.800 C 356.800 202.600,356.643 204.400,356.400 204.400 C 356.152 204.400,356.000 206.600,356.000 210.200 C 356.000 213.800,355.848 216.000,355.600 216.000 C 355.367 216.000,355.200 217.333,355.200 219.200 C 355.200 221.067,355.033 222.400,354.800 222.400 C 354.580 222.400,354.400 223.379,354.400 224.576 C 354.400 225.773,354.220 226.864,354.000 227.000 C 353.780 227.136,353.600 228.126,353.600 229.200 C 353.600 230.274,353.420 231.264,353.200 231.400 C 352.980 231.536,352.800 232.166,352.800 232.800 C 352.800 233.434,352.620 234.064,352.400 234.200 C 352.180 234.336,352.000 235.067,352.000 235.824 C 352.000 236.581,351.820 237.200,351.600 237.200 C 351.380 237.200,351.200 237.920,351.200 238.800 C 351.200 239.680,351.020 240.400,350.800 240.400 C 350.580 240.400,350.400 241.019,350.400 241.776 C 350.400 242.533,350.220 243.264,350.000 243.400 C 349.780 243.536,349.600 244.267,349.600 245.024 C 349.600 245.781,349.420 246.400,349.200 246.400 C 348.980 246.400,348.800 246.839,348.800 247.376 C 348.800 247.913,348.620 248.464,348.400 248.600 C 348.180 248.736,348.000 249.197,348.000 249.624 C 348.000 250.051,347.820 250.400,347.600 250.400 C 347.380 250.400,347.200 250.940,347.200 251.600 C 347.200 252.260,347.020 252.800,346.800 252.800 C 346.580 252.800,346.400 253.340,346.400 254.000 C 346.400 254.660,346.253 255.200,346.072 255.200 C 345.892 255.200,345.500 256.100,345.200 257.200 C 344.900 258.300,344.508 259.200,344.328 259.200 C 344.147 259.200,344.000 259.543,344.000 259.962 C 344.000 260.381,343.653 261.416,343.230 262.262 C 341.769 265.180,341.200 266.525,341.200 267.061 C 341.200 267.358,341.020 267.600,340.800 267.600 C 340.580 267.600,340.400 267.960,340.400 268.400 C 340.400 268.840,340.220 269.200,340.000 269.200 C 339.780 269.200,339.600 269.560,339.600 270.000 C 339.600 270.440,339.420 270.800,339.200 270.800 C 338.980 270.800,338.800 271.160,338.800 271.600 C 338.800 272.040,338.620 272.400,338.400 272.400 C 338.180 272.400,338.000 272.760,338.000 273.200 C 338.000 273.640,337.820 274.000,337.600 274.000 C 337.380 274.000,337.200 274.360,337.200 274.800 C 337.200 275.240,337.020 275.600,336.800 275.600 C 336.580 275.600,336.400 275.788,336.400 276.017 C 336.400 276.246,336.040 276.820,335.600 277.292 C 335.160 277.764,334.800 278.387,334.800 278.675 C 334.800 278.964,334.620 279.200,334.400 279.200 C 334.180 279.200,334.000 279.436,334.000 279.725 C 334.000 280.013,333.640 280.636,333.200 281.108 C 332.760 281.580,332.400 282.244,332.400 282.583 C 332.400 282.922,332.220 283.200,332.000 283.200 C 331.780 283.200,331.600 283.436,331.600 283.725 C 331.600 284.013,331.240 284.636,330.800 285.108 C 330.360 285.580,330.000 286.162,330.000 286.401 C 330.000 286.641,329.550 287.286,329.000 287.836 C 328.450 288.386,328.000 288.980,328.000 289.156 C 328.000 289.332,327.541 289.999,326.980 290.638 C 326.419 291.277,325.660 292.295,325.294 292.900 C 324.927 293.505,324.486 294.000,324.314 294.000 C 324.141 294.000,324.000 294.270,324.000 294.600 C 324.000 294.930,323.820 295.200,323.600 295.200 C 323.380 295.200,323.200 295.430,323.200 295.712 C 323.200 295.993,322.840 296.483,322.400 296.800 C 321.960 297.117,321.600 297.607,321.600 297.888 C 321.600 298.170,321.420 298.400,321.200 298.400 C 320.980 298.400,320.800 298.579,320.800 298.797 C 320.800 299.015,319.360 300.648,317.600 302.424 C 315.840 304.201,314.400 305.805,314.400 305.988 C 314.400 306.424,306.424 314.400,305.988 314.400 C 305.805 314.400,304.201 315.840,302.424 317.600 C 300.648 319.360,299.042 320.800,298.856 320.800 C 298.671 320.800,297.954 321.340,297.263 322.000 C 296.572 322.660,295.826 323.200,295.604 323.200 C 295.382 323.200,295.200 323.380,295.200 323.600 C 295.200 323.820,294.930 324.000,294.600 324.000 C 294.270 324.000,294.000 324.141,294.000 324.314 C 294.000 324.486,293.505 324.927,292.900 325.294 C 292.295 325.660,291.277 326.419,290.638 326.980 C 289.999 327.541,289.332 328.000,289.156 328.000 C 288.980 328.000,288.386 328.450,287.836 329.000 C 287.286 329.550,286.558 330.000,286.218 330.000 C 285.878 330.000,285.600 330.158,285.600 330.351 C 285.600 330.545,285.060 330.927,284.400 331.200 C 283.740 331.473,283.200 331.855,283.200 332.049 C 283.200 332.242,282.922 332.400,282.583 332.400 C 282.244 332.400,281.580 332.760,281.108 333.200 C 280.636 333.640,280.013 334.000,279.725 334.000 C 279.436 334.000,279.200 334.180,279.200 334.400 C 279.200 334.620,278.964 334.800,278.675 334.800 C 278.387 334.800,277.764 335.160,277.292 335.600 C 276.820 336.040,276.246 336.400,276.017 336.400 C 275.788 336.400,275.600 336.580,275.600 336.800 C 275.600 337.020,275.240 337.200,274.800 337.200 C 274.360 337.200,274.000 337.380,274.000 337.600 C 274.000 337.820,273.640 338.000,273.200 338.000 C 272.760 338.000,272.400 338.180,272.400 338.400 C 272.400 338.620,272.040 338.800,271.600 338.800 C 271.160 338.800,270.800 338.980,270.800 339.200 C 270.800 339.420,270.440 339.600,270.000 339.600 C 269.560 339.600,269.200 339.780,269.200 340.000 C 269.200 340.220,268.840 340.400,268.400 340.400 C 267.960 340.400,267.600 340.580,267.600 340.800 C 267.600 341.020,267.358 341.200,267.061 341.200 C 266.525 341.200,265.180 341.769,262.262 343.230 C 261.416 343.653,260.381 344.000,259.962 344.000 C 259.543 344.000,259.200 344.180,259.200 344.400 C 259.200 344.620,258.761 344.800,258.224 344.800 C 257.687 344.800,257.136 344.980,257.000 345.200 C 256.864 345.420,256.403 345.600,255.976 345.600 C 255.549 345.600,255.200 345.780,255.200 346.000 C 255.200 346.220,254.660 346.400,254.000 346.400 C 253.340 346.400,252.800 346.580,252.800 346.800 C 252.800 347.020,252.260 347.200,251.600 347.200 C 250.940 347.200,250.400 347.380,250.400 347.600 C 250.400 347.820,249.961 348.000,249.424 348.000 C 248.887 348.000,248.336 348.180,248.200 348.400 C 248.064 348.620,247.603 348.800,247.176 348.800 C 246.749 348.800,246.400 348.980,246.400 349.200 C 246.400 349.420,245.781 349.600,245.024 349.600 C 244.267 349.600,243.536 349.780,243.400 350.000 C 243.264 350.220,242.533 350.400,241.776 350.400 C 241.019 350.400,240.400 350.580,240.400 350.800 C 240.400 351.020,239.680 351.200,238.800 351.200 C 237.920 351.200,237.200 351.380,237.200 351.600 C 237.200 351.820,236.480 352.000,235.600 352.000 C 234.720 352.000,234.000 352.180,234.000 352.400 C 234.000 352.620,233.381 352.800,232.624 352.800 C 231.867 352.800,231.136 352.980,231.000 353.200 C 230.864 353.420,229.964 353.600,229.000 353.600 C 228.036 353.600,227.136 353.780,227.000 354.000 C 226.864 354.220,225.773 354.400,224.576 354.400 C 223.379 354.400,222.400 354.580,222.400 354.800 C 222.400 355.033,221.067 355.200,219.200 355.200 C 217.333 355.200,216.000 355.367,216.000 355.600 C 216.000 355.851,213.533 356.000,209.400 356.000 C 205.267 356.000,202.800 356.149,202.800 356.400 C 202.800 356.629,201.600 356.800,200.000 356.800 C 198.400 356.800,197.200 356.629,197.200 356.400 C 197.200 356.149,194.733 356.000,190.600 356.000 C 186.467 356.000,184.000 355.851,184.000 355.600 C 184.000 355.372,182.808 355.200,181.224 355.200 C 179.697 355.200,178.336 355.020,178.200 354.800 C 178.064 354.580,176.883 354.400,175.576 354.400 C 174.259 354.400,173.200 354.222,173.200 354.000 C 173.200 353.780,172.300 353.600,171.200 353.600 C 170.100 353.600,169.200 353.420,169.200 353.200 C 169.200 352.980,168.401 352.800,167.424 352.800 C 166.447 352.800,165.536 352.620,165.400 352.400 C 165.264 352.180,164.443 352.000,163.576 352.000 C 162.709 352.000,162.000 351.820,162.000 351.600 C 162.000 351.380,161.280 351.200,160.400 351.200 C 159.520 351.200,158.800 351.020,158.800 350.800 C 158.800 350.580,158.361 350.400,157.824 350.400 C 157.287 350.400,156.736 350.220,156.600 350.000 C 156.464 349.780,155.834 349.600,155.200 349.600 C 154.566 349.600,153.936 349.420,153.800 349.200 C 153.664 348.980,153.023 348.800,152.376 348.800 C 151.729 348.800,151.200 348.653,151.200 348.472 C 151.200 348.292,150.289 347.896,149.175 347.593 C 148.061 347.290,147.060 346.897,146.951 346.721 C 146.842 346.544,146.313 346.400,145.776 346.400 C 145.239 346.400,144.800 346.220,144.800 346.000 C 144.800 345.780,144.361 345.600,143.824 345.600 C 143.287 345.600,142.736 345.420,142.600 345.200 C 142.464 344.980,142.003 344.800,141.576 344.800 C 141.149 344.800,140.800 344.620,140.800 344.400 C 140.800 344.180,140.528 344.000,140.195 344.000 C 139.862 344.000,139.277 343.835,138.895 343.634 C 137.298 342.792,135.236 342.000,134.640 342.000 C 134.288 342.000,134.000 341.820,134.000 341.600 C 134.000 341.380,133.640 341.200,133.200 341.200 C 132.760 341.200,132.400 341.020,132.400 340.800 C 132.400 340.580,132.040 340.400,131.600 340.400 C 131.160 340.400,130.800 340.220,130.800 340.000 C 130.800 339.780,130.440 339.600,130.000 339.600 C 129.560 339.600,129.200 339.420,129.200 339.200 C 129.200 338.980,128.840 338.800,128.400 338.800 C 127.960 338.800,127.600 338.620,127.600 338.400 C 127.600 338.180,127.240 338.000,126.800 338.000 C 126.360 338.000,126.000 337.854,126.000 337.675 C 126.000 337.496,125.370 337.102,124.600 336.800 C 123.830 336.498,123.200 336.104,123.200 335.925 C 123.200 335.746,122.930 335.600,122.600 335.600 C 122.270 335.600,122.000 335.420,122.000 335.200 C 122.000 334.980,121.730 334.800,121.400 334.800 C 121.070 334.800,120.800 334.620,120.800 334.400 C 120.800 334.180,120.522 334.000,120.183 334.000 C 119.844 334.000,119.180 333.640,118.708 333.200 C 118.236 332.760,117.613 332.400,117.325 332.400 C 117.036 332.400,116.800 332.220,116.800 332.000 C 116.800 331.780,116.480 331.600,116.088 331.600 C 115.697 331.600,115.117 331.240,114.800 330.800 C 114.483 330.360,113.943 330.000,113.600 330.000 C 113.257 330.000,112.717 329.640,112.400 329.200 C 112.083 328.760,111.587 328.400,111.297 328.400 C 111.008 328.400,110.373 328.039,109.886 327.597 C 108.126 326.001,106.476 324.800,106.042 324.800 C 105.799 324.800,105.600 324.620,105.600 324.400 C 105.600 324.180,105.402 324.000,105.160 324.000 C 104.919 324.000,104.217 323.460,103.600 322.800 C 102.983 322.140,102.281 321.600,102.040 321.600 C 101.798 321.600,101.600 321.420,101.600 321.200 C 101.600 320.980,101.421 320.800,101.202 320.800 C 100.983 320.800,99.885 319.900,98.761 318.800 C 97.638 317.700,96.555 316.800,96.355 316.800 C 95.766 316.800,86.008 306.710,86.238 306.339 C 86.353 306.152,86.876 306.000,87.400 306.000 C 87.924 306.000,88.464 305.820,88.600 305.600 C 88.736 305.380,89.276 305.200,89.800 305.200 C 90.324 305.200,90.864 305.020,91.000 304.800 C 91.136 304.580,91.687 304.400,92.224 304.400 C 92.761 304.400,93.200 304.220,93.200 304.000 C 93.200 303.780,93.740 303.600,94.400 303.600 C 95.060 303.600,95.600 303.420,95.600 303.200 C 95.600 302.980,96.140 302.800,96.800 302.800 C 97.460 302.800,98.000 302.620,98.000 302.400 C 98.000 302.180,98.540 302.000,99.200 302.000 C 99.860 302.000,100.400 301.820,100.400 301.600 C 100.400 301.380,100.760 301.200,101.200 301.200 C 101.640 301.200,102.000 300.960,102.000 300.668 C 102.000 299.998,103.059 299.470,106.600 298.374 C 108.140 297.898,109.708 297.351,110.086 297.160 C 110.463 296.968,111.588 296.923,112.586 297.060 C 113.819 297.229,114.400 297.163,114.400 296.854 C 114.400 296.604,114.940 296.400,115.600 296.400 C 116.260 296.400,116.800 296.220,116.800 296.000 C 116.800 295.780,117.340 295.600,118.000 295.600 C 118.660 295.600,119.200 295.420,119.200 295.200 C 119.200 294.980,119.740 294.800,120.400 294.800 C 121.060 294.800,121.600 294.620,121.600 294.400 C 121.600 294.180,122.140 294.000,122.800 294.000 C 123.460 294.000,124.000 293.820,124.000 293.600 C 124.000 293.380,124.450 293.200,125.000 293.200 C 125.550 293.200,126.000 293.020,126.000 292.800 C 126.000 292.580,126.540 292.400,127.200 292.400 C 127.860 292.400,128.400 292.241,128.400 292.046 C 128.400 291.851,129.387 291.569,130.594 291.418 C 131.800 291.267,132.891 290.977,133.017 290.772 C 133.144 290.567,133.676 290.400,134.200 290.400 C 134.724 290.400,135.264 290.220,135.400 290.000 C 135.536 289.780,136.076 289.600,136.600 289.600 C 137.124 289.600,137.664 289.420,137.800 289.200 C 137.936 288.980,138.476 288.800,139.000 288.800 C 139.524 288.800,140.064 288.620,140.200 288.400 C 140.336 288.180,140.887 288.000,141.424 288.000 C 141.961 288.000,142.400 287.820,142.400 287.600 C 142.400 287.380,142.940 287.200,143.600 287.200 C 144.260 287.200,144.800 287.020,144.800 286.800 C 144.800 286.580,145.340 286.400,146.000 286.400 C 146.660 286.400,147.200 286.220,147.200 286.000 C 147.200 285.780,147.639 285.600,148.176 285.600 C 148.713 285.600,149.264 285.420,149.400 285.200 C 149.536 284.980,149.910 284.800,150.231 284.800 C 151.005 284.800,156.000 279.785,156.000 279.007 C 156.000 278.673,156.180 278.400,156.400 278.400 C 156.620 278.400,156.800 278.051,156.800 277.624 C 156.800 277.197,156.980 276.736,157.200 276.600 C 157.420 276.464,157.600 275.812,157.600 275.150 C 157.600 274.489,157.796 273.581,158.035 273.134 C 158.490 272.284,157.909 267.745,157.161 266.305 C 156.962 265.923,156.800 265.338,156.800 265.005 C 156.800 264.672,156.620 264.400,156.400 264.400 C 156.180 264.400,156.000 264.040,156.000 263.600 C 156.000 263.160,155.850 262.800,155.668 262.800 C 155.485 262.800,155.114 262.395,154.843 261.900 C 154.219 260.757,151.132 258.400,150.261 258.400 C 149.897 258.400,149.600 258.220,149.600 258.000 C 149.600 257.780,149.240 257.600,148.800 257.600 C 148.360 257.600,148.000 257.420,148.000 257.200 C 148.000 256.955,146.067 256.800,143.000 256.800 C 139.933 256.800,138.000 256.955,138.000 257.200 C 138.000 257.420,137.460 257.600,136.800 257.600 C 136.140 257.600,135.600 257.780,135.600 258.000 C 135.600 258.220,135.171 258.400,134.646 258.400 C 133.622 258.400,129.847 259.440,128.705 260.037 C 128.323 260.237,127.659 260.400,127.229 260.400 C 126.799 260.400,126.336 260.580,126.200 260.800 C 126.064 261.020,125.513 261.200,124.976 261.200 C 124.439 261.200,124.000 261.380,124.000 261.600 C 124.000 261.820,123.460 262.000,122.800 262.000 C 122.140 262.000,121.600 262.180,121.600 262.400 C 121.600 262.620,121.060 262.800,120.400 262.800 C 119.740 262.800,119.200 262.980,119.200 263.200 C 119.200 263.420,118.660 263.600,118.000 263.600 C 117.340 263.600,116.800 263.780,116.800 264.000 C 116.800 264.220,116.260 264.400,115.600 264.400 C 114.940 264.400,114.400 264.580,114.400 264.800 C 114.400 265.020,113.873 265.200,113.228 265.200 C 112.322 265.200,112.027 265.402,111.928 266.088 C 111.771 267.177,103.017 270.377,102.261 269.621 C 101.726 269.086,100.400 269.071,100.400 269.600 C 100.400 269.820,99.860 270.000,99.200 270.000 C 98.540 270.000,98.000 270.180,98.000 270.400 C 98.000 270.620,97.460 270.800,96.800 270.800 C 96.140 270.800,95.600 270.980,95.600 271.200 C 95.600 271.420,95.060 271.600,94.400 271.600 C 93.740 271.600,93.200 271.780,93.200 272.000 C 93.200 272.220,92.750 272.400,92.200 272.400 C 91.650 272.400,91.200 272.580,91.200 272.800 C 91.200 273.020,90.660 273.200,90.000 273.200 C 89.340 273.200,88.800 273.380,88.800 273.600 C 88.800 273.820,88.260 274.000,87.600 274.000 C 86.940 274.000,86.400 274.180,86.400 274.400 C 86.400 274.620,85.971 274.800,85.446 274.800 C 84.422 274.800,80.647 275.840,79.505 276.437 C 79.123 276.637,78.459 276.800,78.029 276.800 C 77.599 276.800,77.136 276.980,77.000 277.200 C 76.864 277.420,76.313 277.600,75.776 277.600 C 75.239 277.600,74.800 277.780,74.800 278.000 C 74.800 278.220,74.260 278.400,73.600 278.400 C 72.940 278.400,72.400 278.580,72.400 278.800 C 72.400 279.020,71.860 279.200,71.200 279.200 C 70.540 279.200,70.000 279.380,70.000 279.600 C 70.000 279.820,69.460 280.000,68.800 280.000 C 68.140 280.000,67.600 280.180,67.600 280.400 C 67.600 280.620,67.060 280.800,66.400 280.800 C 65.740 280.800,65.200 280.980,65.200 281.200 C 65.200 281.420,64.660 281.600,64.000 281.600 C 63.340 281.600,62.800 281.780,62.800 282.000 C 62.800 282.220,62.361 282.400,61.824 282.400 C 61.287 282.400,60.736 282.580,60.600 282.800 C 60.464 283.020,59.913 283.200,59.376 283.200 C 58.839 283.200,58.400 283.380,58.400 283.600 C 58.400 283.820,57.860 284.000,57.200 284.000 C 56.540 284.000,56.000 284.180,56.000 284.400 C 56.000 284.620,55.460 284.800,54.800 284.800 C 54.140 284.800,53.600 284.980,53.600 285.200 C 53.600 285.420,53.060 285.600,52.400 285.600 C 51.740 285.600,51.200 285.780,51.200 286.000 C 51.200 286.220,50.840 286.400,50.400 286.400 C 49.960 286.400,49.600 286.580,49.600 286.800 C 49.600 287.020,49.359 287.200,49.064 287.200 C 48.083 287.200,45.019 290.564,43.600 293.200 L 42.200 295.800 42.200 342.800 L 42.200 389.800 43.184 391.800 C 43.725 392.900,44.400 394.038,44.684 394.329 C 44.968 394.619,45.200 394.997,45.200 395.167 C 45.200 395.688,46.537 396.973,47.700 397.570 C 48.305 397.881,48.800 398.285,48.800 398.468 C 48.800 398.650,49.145 398.800,49.567 398.800 C 49.988 398.800,50.408 399.025,50.500 399.300 C 50.841 400.321,63.158 399.973,64.662 398.900 C 65.356 398.405,66.035 398.000,66.172 398.000 C 66.701 398.000,70.000 394.389,70.000 393.811 C 70.000 393.475,70.180 393.200,70.400 393.200 C 70.620 393.200,70.800 392.840,70.800 392.400 C 70.800 391.960,70.980 391.600,71.200 391.600 C 71.420 391.600,71.600 391.071,71.600 390.424 C 71.600 389.777,71.780 389.136,72.000 389.000 C 72.260 388.839,72.400 379.596,72.400 362.576 C 72.400 345.725,72.540 336.400,72.793 336.400 C 73.008 336.400,74.403 337.535,75.893 338.923 C 80.006 342.755,80.524 343.200,80.873 343.200 C 81.051 343.200,82.115 344.100,83.239 345.200 C 84.362 346.300,85.451 347.200,85.659 347.200 C 85.866 347.200,86.486 347.650,87.036 348.200 C 87.586 348.750,88.200 349.200,88.400 349.200 C 88.600 349.200,89.177 349.605,89.682 350.100 C 90.187 350.595,91.274 351.450,92.098 352.000 C 92.921 352.550,93.596 353.135,93.597 353.300 C 93.599 353.465,93.870 353.600,94.200 353.600 C 94.530 353.600,94.800 353.750,94.800 353.932 C 94.800 354.115,95.295 354.520,95.900 354.832 C 96.505 355.145,97.349 355.715,97.775 356.100 C 98.202 356.485,98.787 356.800,99.075 356.800 C 99.364 356.800,99.600 356.947,99.600 357.126 C 99.600 357.501,102.181 358.800,102.925 358.800 C 103.199 358.800,103.683 359.160,104.000 359.600 C 104.317 360.040,104.897 360.400,105.288 360.400 C 105.680 360.400,106.000 360.580,106.000 360.800 C 106.000 361.020,106.294 361.200,106.653 361.200 C 107.012 361.200,107.597 361.529,107.953 361.930 C 108.309 362.332,109.185 362.916,109.900 363.228 C 110.615 363.540,111.200 363.931,111.200 364.098 C 111.200 364.264,111.560 364.400,112.000 364.400 C 112.440 364.400,112.800 364.580,112.800 364.800 C 112.800 365.020,113.160 365.200,113.600 365.200 C 114.040 365.200,114.400 365.380,114.400 365.600 C 114.400 365.820,114.760 366.000,115.200 366.000 C 115.640 366.000,116.000 366.180,116.000 366.400 C 116.000 366.620,116.360 366.800,116.800 366.800 C 117.240 366.800,117.600 366.980,117.600 367.200 C 117.600 367.420,117.960 367.600,118.400 367.600 C 118.840 367.600,119.200 367.780,119.200 368.000 C 119.200 368.220,119.560 368.400,120.000 368.400 C 120.440 368.400,120.800 368.580,120.800 368.800 C 120.800 369.020,121.160 369.200,121.600 369.200 C 122.040 369.200,122.400 369.380,122.400 369.600 C 122.400 369.820,122.760 370.000,123.200 370.000 C 123.640 370.000,124.000 370.180,124.000 370.400 C 124.000 370.620,124.272 370.800,124.605 370.800 C 124.938 370.800,125.523 370.965,125.905 371.167 C 127.210 371.857,130.391 373.200,130.721 373.200 C 130.902 373.200,131.801 373.563,132.720 374.007 C 133.639 374.451,135.202 374.925,136.195 375.061 C 137.188 375.197,138.000 375.464,138.000 375.654 C 138.000 375.844,138.349 376.000,138.776 376.000 C 139.203 376.000,139.664 376.180,139.800 376.400 C 139.936 376.620,140.476 376.800,141.000 376.800 C 141.524 376.800,142.064 376.980,142.200 377.200 C 142.336 377.420,142.977 377.600,143.624 377.600 C 144.271 377.600,144.800 377.780,144.800 378.000 C 144.800 378.220,145.340 378.400,146.000 378.400 C 146.660 378.400,147.200 378.580,147.200 378.800 C 147.200 379.020,147.729 379.200,148.376 379.200 C 149.023 379.200,149.664 379.380,149.800 379.600 C 149.936 379.820,150.667 380.000,151.424 380.000 C 152.181 380.000,152.800 380.180,152.800 380.400 C 152.800 380.620,153.520 380.800,154.400 380.800 C 155.280 380.800,156.000 380.980,156.000 381.200 C 156.000 381.420,156.709 381.600,157.576 381.600 C 158.443 381.600,159.264 381.780,159.400 382.000 C 159.536 382.220,160.447 382.400,161.424 382.400 C 162.401 382.400,163.200 382.580,163.200 382.800 C 163.200 383.020,163.999 383.200,164.976 383.200 C 165.953 383.200,166.864 383.380,167.000 383.600 C 167.136 383.820,168.407 384.000,169.824 384.000 C 171.275 384.000,172.400 384.175,172.400 384.400 C 172.400 384.629,173.600 384.800,175.200 384.800 C 176.800 384.800,178.000 384.971,178.000 385.200 C 178.000 385.438,179.525 385.600,181.776 385.600 C 183.863 385.600,185.663 385.779,185.800 386.000 C 186.139 386.549,214.400 386.549,214.400 386.000 C 214.400 385.759,216.067 385.600,218.600 385.600 C 221.133 385.600,222.800 385.441,222.800 385.200 C 222.800 384.971,224.000 384.800,225.600 384.800 C 227.200 384.800,228.400 384.629,228.400 384.400 C 228.400 384.178,229.467 384.000,230.800 384.000 C 232.133 384.000,233.200 383.822,233.200 383.600 C 233.200 383.380,234.089 383.200,235.176 383.200 C 236.263 383.200,237.264 383.020,237.400 382.800 C 237.536 382.580,238.346 382.400,239.200 382.400 C 240.054 382.400,240.864 382.220,241.000 382.000 C 241.136 381.780,241.946 381.600,242.800 381.600 C 243.654 381.600,244.464 381.420,244.600 381.200 C 244.736 380.980,245.557 380.800,246.424 380.800 C 247.291 380.800,248.000 380.620,248.000 380.400 C 248.000 380.180,248.540 380.000,249.200 380.000 C 249.860 380.000,250.400 379.820,250.400 379.600 C 250.400 379.380,251.120 379.200,252.000 379.200 C 252.880 379.200,253.600 379.020,253.600 378.800 C 253.600 378.580,254.140 378.400,254.800 378.400 C 255.460 378.400,256.000 378.220,256.000 378.000 C 256.000 377.780,256.540 377.600,257.200 377.600 C 257.860 377.600,258.400 377.420,258.400 377.200 C 258.400 376.980,258.850 376.800,259.400 376.800 C 259.950 376.800,260.400 376.620,260.400 376.400 C 260.400 376.180,260.940 376.000,261.600 376.000 C 262.260 376.000,262.800 375.844,262.800 375.654 C 262.800 375.464,263.612 375.197,264.605 375.061 C 265.598 374.925,267.161 374.451,268.080 374.007 C 268.999 373.563,269.892 373.200,270.065 373.200 C 270.238 373.200,271.559 372.660,273.000 372.000 C 274.441 371.340,275.886 370.800,276.210 370.800 C 276.535 370.800,276.800 370.620,276.800 370.400 C 276.800 370.180,277.160 370.000,277.600 370.000 C 278.040 370.000,278.400 369.820,278.400 369.600 C 278.400 369.380,278.760 369.200,279.200 369.200 C 279.640 369.200,280.000 369.020,280.000 368.800 C 280.000 368.580,280.360 368.400,280.800 368.400 C 281.240 368.400,281.600 368.220,281.600 368.000 C 281.600 367.780,281.960 367.600,282.400 367.600 C 282.840 367.600,283.200 367.420,283.200 367.200 C 283.200 366.980,283.560 366.800,284.000 366.800 C 284.440 366.800,284.800 366.620,284.800 366.400 C 284.800 366.180,285.160 366.000,285.600 366.000 C 286.040 366.000,286.400 365.820,286.400 365.600 C 286.400 365.380,286.760 365.200,287.200 365.200 C 287.640 365.200,288.000 365.020,288.000 364.800 C 288.000 364.580,288.360 364.400,288.800 364.400 C 289.240 364.400,289.600 364.220,289.600 364.000 C 289.600 363.780,289.870 363.600,290.200 363.600 C 290.530 363.600,290.800 363.420,290.800 363.200 C 290.800 362.980,291.120 362.800,291.512 362.800 C 291.903 362.800,292.483 362.440,292.800 362.000 C 293.117 361.560,293.697 361.200,294.088 361.200 C 294.480 361.200,294.800 361.020,294.800 360.800 C 294.800 360.580,295.160 360.400,295.600 360.400 C 296.040 360.400,296.400 360.240,296.400 360.044 C 296.400 359.848,297.188 359.318,298.152 358.865 C 299.823 358.079,302.449 356.474,303.483 355.606 C 303.749 355.383,304.109 355.197,304.283 355.193 C 304.638 355.185,306.856 353.474,308.294 352.100 C 308.812 351.605,309.416 351.200,309.636 351.200 C 309.856 351.200,310.486 350.750,311.036 350.200 C 311.586 349.650,312.202 349.200,312.405 349.200 C 312.608 349.200,313.403 348.570,314.173 347.800 C 314.943 347.030,315.738 346.400,315.938 346.400 C 316.139 346.400,317.045 345.680,317.952 344.800 C 318.859 343.920,319.774 343.200,319.986 343.200 C 320.198 343.200,321.593 342.021,323.086 340.580 C 324.579 339.139,326.414 337.488,327.164 336.911 C 329.110 335.414,335.832 328.633,336.679 327.312 C 337.071 326.700,338.174 325.489,339.131 324.621 C 340.088 323.752,341.431 322.222,342.116 321.221 C 342.802 320.219,344.046 318.739,344.881 317.931 C 345.717 317.124,346.400 316.251,346.400 315.992 C 346.400 315.733,346.940 315.017,347.600 314.400 C 348.260 313.783,348.800 313.063,348.800 312.800 C 348.800 312.537,349.340 311.817,350.000 311.200 C 350.660 310.583,351.200 309.791,351.200 309.440 C 351.200 309.088,351.373 308.800,351.585 308.800 C 351.797 308.800,352.728 307.675,353.655 306.300 C 354.582 304.925,355.457 303.710,355.600 303.600 C 355.743 303.490,356.296 302.590,356.830 301.600 C 357.363 300.610,358.025 299.562,358.300 299.271 C 358.575 298.981,358.800 298.435,358.800 298.060 C 358.800 297.684,359.160 297.117,359.600 296.800 C 360.040 296.483,360.400 295.903,360.400 295.512 C 360.400 295.120,360.580 294.800,360.800 294.800 C 361.020 294.800,361.200 294.440,361.200 294.000 C 361.200 293.560,361.380 293.200,361.600 293.200 C 361.820 293.200,362.000 292.906,362.000 292.547 C 362.000 292.188,362.329 291.603,362.730 291.247 C 363.132 290.891,363.716 290.015,364.028 289.300 C 364.340 288.585,364.731 288.000,364.898 288.000 C 365.064 288.000,365.200 287.640,365.200 287.200 C 365.200 286.760,365.380 286.400,365.600 286.400 C 365.820 286.400,366.000 286.040,366.000 285.600 C 366.000 285.160,366.180 284.800,366.400 284.800 C 366.620 284.800,366.800 284.440,366.800 284.000 C 366.800 283.560,366.980 283.200,367.200 283.200 C 367.420 283.200,367.600 282.840,367.600 282.400 C 367.600 281.960,367.780 281.600,368.000 281.600 C 368.220 281.600,368.400 281.240,368.400 280.800 C 368.400 280.360,368.580 280.000,368.800 280.000 C 369.020 280.000,369.200 279.640,369.200 279.200 C 369.200 278.760,369.380 278.400,369.600 278.400 C 369.820 278.400,370.000 278.128,370.000 277.795 C 370.000 277.462,370.160 276.877,370.356 276.495 C 370.836 275.560,372.406 272.040,372.897 270.800 C 373.115 270.250,373.452 269.487,373.647 269.105 C 373.841 268.723,374.000 268.048,374.000 267.605 C 374.000 267.162,374.174 266.800,374.386 266.800 C 374.599 266.800,374.892 265.900,375.038 264.800 C 375.184 263.700,375.460 262.800,375.652 262.800 C 375.843 262.800,376.000 262.260,376.000 261.600 C 376.000 260.940,376.180 260.400,376.400 260.400 C 376.620 260.400,376.800 259.961,376.800 259.424 C 376.800 258.887,376.980 258.336,377.200 258.200 C 377.420 258.064,377.600 257.513,377.600 256.976 C 377.600 256.439,377.780 256.000,378.000 256.000 C 378.220 256.000,378.400 255.460,378.400 254.800 C 378.400 254.140,378.580 253.600,378.800 253.600 C 379.020 253.600,379.200 252.880,379.200 252.000 C 379.200 251.120,379.380 250.400,379.600 250.400 C 379.820 250.400,380.000 249.871,380.000 249.224 C 380.000 248.577,380.180 247.936,380.400 247.800 C 380.620 247.664,380.800 246.933,380.800 246.176 C 380.800 245.419,380.980 244.800,381.200 244.800 C 381.420 244.800,381.600 244.001,381.600 243.024 C 381.600 242.047,381.780 241.136,382.000 241.000 C 382.220 240.864,382.400 240.054,382.400 239.200 C 382.400 238.346,382.580 237.536,382.800 237.400 C 383.020 237.264,383.200 236.263,383.200 235.176 C 383.200 234.089,383.380 233.200,383.600 233.200 C 383.822 233.200,384.000 232.133,384.000 230.800 C 384.000 229.467,384.178 228.400,384.400 228.400 C 384.631 228.400,384.800 227.133,384.800 225.400 C 384.800 223.667,384.969 222.400,385.200 222.400 C 385.440 222.400,385.600 220.808,385.600 218.424 C 385.600 216.204,385.777 214.338,386.000 214.200 C 386.248 214.047,386.400 210.463,386.400 204.776 C 386.400 198.925,386.255 195.600,386.000 195.600 C 385.780 195.600,385.600 195.238,385.600 194.795 C 385.600 193.835,384.923 192.582,383.731 191.335 C 383.253 190.835,382.746 190.060,382.604 189.613 C 382.462 189.166,382.038 188.800,381.661 188.800 C 381.285 188.800,380.717 188.440,380.400 188.000 C 380.083 187.560,379.503 187.200,379.112 187.200 C 378.720 187.200,378.400 187.020,378.400 186.800 C 378.400 186.580,378.040 186.400,377.600 186.400 C 377.160 186.400,376.800 186.220,376.800 186.000 C 376.800 185.780,376.181 185.600,375.424 185.600 C 374.667 185.600,373.936 185.420,373.800 185.200 C 373.664 184.980,372.584 184.800,371.400 184.800 C 370.216 184.800,369.136 184.980,369.000 185.200 " stroke="none" fill="#fcfcfc" fill-rule="evenodd"></path><path id="path3" d="M200.095 93.300 L 200.000 108.400 235.500 108.378 C 267.505 108.359,271.265 108.290,273.688 107.678 C 276.263 107.029,274.773 107.005,238.393 107.110 L 200.410 107.220 200.300 92.710 L 200.190 78.200 200.095 93.300 M286.583 78.827 C 286.454 79.035,286.631 79.314,286.975 79.446 C 287.640 79.701,289.054 79.320,288.711 78.978 C 288.300 78.566,286.810 78.461,286.583 78.827 M289.200 79.800 C 289.200 80.133,289.556 80.400,290.000 80.400 C 290.440 80.400,290.800 80.580,290.800 80.800 C 290.800 81.020,291.041 81.200,291.336 81.200 C 292.846 81.200,297.200 86.871,297.200 88.838 C 297.200 89.257,297.380 89.600,297.600 89.600 C 297.820 89.600,298.000 89.060,298.000 88.400 C 298.000 87.740,297.862 87.200,297.694 87.200 C 297.526 87.200,297.089 86.508,296.722 85.662 C 295.964 83.912,293.532 81.275,291.900 80.432 C 291.295 80.120,290.800 79.715,290.800 79.532 C 290.800 79.350,290.440 79.200,290.000 79.200 C 289.556 79.200,289.200 79.467,289.200 79.800 M228.967 90.560 C 228.105 91.308,227.530 92.053,227.688 92.215 C 227.847 92.377,228.508 91.941,229.158 91.245 C 229.808 90.549,230.488 90.006,230.670 90.037 C 231.417 90.167,232.000 89.976,232.000 89.600 C 232.000 88.768,230.475 89.251,228.967 90.560 M234.200 89.600 C 234.060 89.827,234.396 90.000,234.976 90.000 C 235.539 90.000,236.000 89.820,236.000 89.600 C 236.000 89.380,235.651 89.200,235.224 89.200 C 234.797 89.200,234.336 89.380,234.200 89.600 M251.248 90.800 C 249.727 92.276,249.054 94.000,250.000 94.000 C 250.220 94.000,250.400 93.727,250.400 93.393 C 250.400 92.535,253.115 90.000,254.034 90.000 C 254.455 90.000,254.800 89.820,254.800 89.600 C 254.800 88.624,252.791 89.303,251.248 90.800 M256.800 89.600 C 256.800 89.820,257.160 90.000,257.600 90.000 C 258.040 90.000,258.400 90.180,258.400 90.400 C 258.400 90.620,258.745 90.800,259.167 90.800 C 259.588 90.800,260.014 91.025,260.112 91.300 C 260.210 91.575,260.427 91.674,260.593 91.519 C 260.759 91.365,260.642 91.005,260.332 90.719 C 258.904 89.403,256.800 88.736,256.800 89.600 M275.200 89.572 C 275.200 89.807,275.020 90.000,274.800 90.000 C 274.281 90.000,272.800 91.481,272.800 92.000 C 272.800 92.220,272.620 92.400,272.400 92.400 C 272.180 92.400,272.000 92.760,272.000 93.200 C 272.000 93.640,271.809 94.000,271.576 94.000 C 271.330 94.000,271.204 94.632,271.276 95.500 C 271.420 97.246,272.181 97.352,272.240 95.634 C 272.337 92.796,274.158 90.487,276.500 90.233 C 277.231 90.153,276.912 89.388,276.100 89.272 C 275.605 89.202,275.200 89.337,275.200 89.572 M279.200 89.600 C 279.200 89.968,279.767 90.163,280.500 90.047 C 280.665 90.021,280.800 90.180,280.800 90.400 C 280.800 90.620,280.993 90.800,281.229 90.800 C 281.821 90.800,282.818 91.849,282.514 92.152 C 282.378 92.289,282.477 92.400,282.733 92.400 C 282.990 92.400,283.200 92.659,283.200 92.976 C 283.200 93.293,283.380 93.664,283.600 93.800 C 284.647 94.447,283.827 92.281,282.477 90.834 C 281.065 89.320,279.200 88.618,279.200 89.600 M236.400 90.397 C 236.400 90.615,236.760 91.018,237.200 91.293 C 237.640 91.568,238.000 92.109,238.000 92.496 C 238.000 92.883,238.180 93.200,238.400 93.200 C 239.688 93.200,238.788 97.735,237.200 99.246 C 235.504 100.859,235.309 101.200,236.078 101.200 C 236.735 101.200,238.800 99.171,238.800 98.525 C 238.800 98.236,238.980 98.000,239.200 98.000 C 239.422 98.000,239.600 96.933,239.600 95.600 C 239.600 94.267,239.422 93.200,239.200 93.200 C 238.980 93.200,238.800 92.922,238.800 92.582 C 238.800 92.242,238.358 91.522,237.818 90.982 C 236.759 89.922,236.400 89.774,236.400 90.397 M260.678 92.256 C 260.358 92.575,260.719 93.200,261.224 93.200 C 261.431 93.200,261.600 92.930,261.600 92.600 C 261.600 91.981,261.128 91.805,260.678 92.256 M226.800 94.024 C 226.800 94.737,226.967 95.144,227.200 95.000 C 227.420 94.864,227.600 94.313,227.600 93.776 C 227.600 93.239,227.420 92.800,227.200 92.800 C 226.980 92.800,226.800 93.351,226.800 94.024 M261.395 95.100 C 260.954 97.843,260.827 98.193,259.906 99.200 C 258.269 100.989,253.600 102.174,253.600 100.800 C 253.600 100.580,253.252 100.400,252.827 100.400 C 252.069 100.400,250.834 98.980,250.219 97.400 C 250.012 96.869,249.842 96.773,249.715 97.115 C 249.337 98.132,250.750 100.225,252.416 101.114 C 254.121 102.024,257.600 102.350,257.600 101.600 C 257.600 101.380,257.941 101.200,258.358 101.200 C 259.289 101.200,261.600 99.107,261.600 98.263 C 261.600 97.924,261.780 97.536,262.000 97.400 C 262.511 97.084,262.527 93.600,262.018 93.600 C 261.808 93.600,261.528 94.275,261.395 95.100 M284.300 94.228 C 284.135 94.396,284.000 94.931,284.000 95.418 C 284.000 97.347,282.037 100.400,280.795 100.400 C 280.578 100.400,280.400 100.580,280.400 100.800 C 280.400 101.020,279.410 101.200,278.200 101.200 C 276.990 101.200,276.000 101.020,276.000 100.800 C 276.000 100.580,275.775 100.394,275.500 100.387 C 274.856 100.371,272.800 98.568,272.800 98.019 C 272.800 97.789,272.620 97.600,272.400 97.600 C 271.029 97.600,273.090 100.288,275.312 101.396 C 276.665 102.071,280.400 102.221,280.400 101.600 C 280.400 101.380,280.729 101.200,281.130 101.200 C 281.964 101.200,283.746 99.480,283.337 99.070 C 283.188 98.922,283.277 98.800,283.533 98.800 C 283.790 98.800,284.000 98.365,284.000 97.833 C 284.000 97.302,284.194 96.802,284.432 96.723 C 284.670 96.643,284.805 95.981,284.732 95.251 C 284.659 94.521,284.465 94.061,284.300 94.228 M248.806 95.700 C 248.811 96.428,248.886 96.485,249.200 96.000 C 249.701 95.224,249.701 94.800,249.200 94.800 C 248.980 94.800,248.803 95.205,248.806 95.700 M226.800 97.176 C 226.800 97.849,226.980 98.400,227.200 98.400 C 227.420 98.400,227.600 98.593,227.600 98.829 C 227.600 99.382,228.618 100.400,229.171 100.400 C 229.407 100.400,229.600 100.580,229.600 100.800 C 229.600 101.020,229.870 101.200,230.200 101.200 C 231.154 101.200,230.898 100.639,229.700 100.103 C 228.662 99.638,227.600 98.041,227.600 96.944 C 227.600 96.671,227.420 96.336,227.200 96.200 C 226.967 96.056,226.800 96.463,226.800 97.176 M290.090 102.077 C 286.729 103.197,284.049 104.182,284.134 104.267 C 284.294 104.428,296.441 100.493,296.755 100.178 C 297.149 99.784,295.937 100.129,290.090 102.077 M231.200 101.600 C 231.200 101.820,232.100 102.000,233.200 102.000 C 234.300 102.000,235.200 101.820,235.200 101.600 C 235.200 101.380,234.300 101.200,233.200 101.200 C 232.100 101.200,231.200 101.380,231.200 101.600 M281.800 104.800 C 281.508 105.273,281.899 105.273,283.000 104.800 C 283.771 104.469,283.769 104.455,282.924 104.428 C 282.442 104.413,281.936 104.580,281.800 104.800 M278.919 105.762 C 278.215 106.018,277.516 106.351,277.365 106.502 C 277.063 106.804,278.836 106.316,280.400 105.666 C 281.762 105.100,280.515 105.181,278.919 105.762 M292.602 131.916 C 290.840 132.507,289.736 133.054,290.144 133.132 C 290.552 133.211,291.082 133.078,291.322 132.838 C 291.563 132.597,292.086 132.400,292.485 132.400 C 292.884 132.400,293.523 132.239,293.905 132.041 C 294.287 131.844,295.050 131.496,295.600 131.268 C 297.520 130.473,295.775 130.850,292.602 131.916 M200.000 138.200 L 200.000 144.000 232.757 144.000 C 267.918 144.000,266.000 144.106,266.000 142.167 C 266.000 141.319,265.291 141.484,265.000 142.400 C 264.703 143.336,262.122 143.542,261.230 142.700 C 260.806 142.300,260.663 142.300,260.517 142.700 C 260.290 143.317,254.000 143.414,254.000 142.800 C 254.000 142.580,253.730 142.400,253.400 142.400 C 253.070 142.400,252.800 142.580,252.800 142.800 C 252.800 143.063,243.800 143.200,226.600 143.200 L 200.400 143.200 200.400 138.190 L 200.400 133.180 221.929 133.290 C 239.152 133.378,243.358 133.300,242.957 132.900 C 242.570 132.513,237.678 132.400,221.229 132.400 L 200.000 132.400 200.000 138.200 M244.422 135.800 C 244.427 136.329,245.542 137.791,245.769 137.565 C 245.866 137.468,245.602 136.941,245.182 136.394 C 244.761 135.847,244.420 135.580,244.422 135.800 M199.920 165.099 L 200.040 170.600 232.920 170.514 L 265.800 170.428 265.911 165.264 C 266.021 160.184,266.008 160.095,265.111 159.855 C 264.610 159.721,249.710 159.608,232.000 159.605 L 199.800 159.599 199.920 165.099 M265.000 165.400 L 265.000 169.800 232.700 169.902 L 200.400 170.005 200.400 165.400 L 200.400 160.795 232.700 160.898 L 265.000 161.000 265.000 165.400 M200.000 192.700 L 200.000 198.000 233.000 198.000 L 266.000 198.000 266.000 192.600 C 266.000 188.367,265.885 187.200,265.467 187.200 C 264.657 187.200,264.359 187.669,264.818 188.222 C 265.058 188.511,265.181 190.434,265.114 192.858 L 265.000 197.000 232.700 197.102 L 200.400 197.205 200.400 192.605 L 200.400 188.005 232.100 187.902 L 263.800 187.800 231.900 187.600 L 200.000 187.400 200.000 192.700 M199.921 219.399 L 200.041 225.200 204.844 225.200 C 207.944 225.200,209.560 225.058,209.400 224.800 C 209.260 224.573,207.263 224.400,204.776 224.400 L 200.400 224.400 200.400 219.587 L 200.400 214.774 204.900 214.887 L 209.400 215.000 209.513 219.700 C 209.666 226.078,210.400 225.845,210.400 219.419 L 210.400 214.438 208.900 214.021 C 208.075 213.792,205.690 213.603,203.600 213.602 L 199.800 213.599 199.921 219.399 M152.100 225.100 C 160.845 225.160,175.155 225.160,183.900 225.100 C 192.645 225.040,185.490 224.991,168.000 224.991 C 150.510 224.991,143.355 225.040,152.100 225.100 M200.000 246.600 L 200.000 252.000 204.567 252.000 C 210.837 252.000,210.400 252.386,210.400 246.837 C 210.400 240.970,210.632 241.200,204.720 241.200 L 200.000 241.200 200.000 246.600 M209.600 246.357 C 209.600 251.502,209.926 251.200,204.367 251.200 L 200.400 251.200 200.400 246.600 L 200.400 242.000 205.000 242.000 L 209.600 242.000 209.600 246.357 M287.200 308.338 C 287.200 310.874,289.767 310.736,241.800 310.770 L 199.800 310.799 199.998 316.299 L 200.197 321.800 200.310 316.700 L 200.424 311.600 243.076 311.600 L 285.729 311.600 286.864 310.328 C 287.983 309.075,288.381 307.600,287.600 307.600 C 287.380 307.600,287.200 307.932,287.200 308.338 M297.200 311.600 C 297.200 312.260,297.064 312.800,296.898 312.800 C 296.731 312.800,296.339 313.385,296.025 314.100 C 295.382 315.566,292.156 318.800,291.336 318.800 C 291.041 318.800,290.800 318.980,290.800 319.200 C 290.800 319.420,290.552 319.600,290.249 319.600 C 289.946 319.600,289.476 319.868,289.204 320.196 C 288.932 320.523,288.548 320.692,288.351 320.570 C 287.865 320.269,286.400 320.763,286.400 321.227 C 286.400 321.719,287.805 321.704,288.805 321.200 C 290.315 320.440,291.403 319.874,292.190 319.438 C 293.378 318.779,296.400 315.548,296.400 314.936 C 296.400 314.641,296.580 314.400,296.800 314.400 C 297.020 314.400,297.200 314.040,297.200 313.600 C 297.200 313.160,297.380 312.800,297.600 312.800 C 297.820 312.800,298.000 312.260,298.000 311.600 C 298.000 310.940,297.820 310.400,297.600 310.400 C 297.380 310.400,297.200 310.940,297.200 311.600 " stroke="none" fill="#66dcf4" fill-rule="evenodd"></path><path id="path4" d="M296.200 100.614 C 295.540 100.917,295.270 101.166,295.600 101.168 C 295.930 101.170,296.650 100.914,297.200 100.600 C 298.465 99.877,297.789 99.887,296.200 100.614 M275.000 107.600 C 274.229 107.931,274.231 107.945,275.076 107.972 C 275.558 107.987,276.064 107.820,276.200 107.600 C 276.492 107.127,276.101 107.127,275.000 107.600 M289.600 132.400 C 289.067 132.745,289.067 132.788,289.600 132.788 C 289.930 132.788,290.470 132.613,290.800 132.400 C 291.333 132.055,291.333 132.012,290.800 132.012 C 290.470 132.012,289.930 132.187,289.600 132.400 M243.274 133.300 C 243.619 133.575,244.097 134.160,244.338 134.600 C 244.674 135.215,244.778 135.252,244.788 134.762 C 244.800 134.105,243.605 132.800,242.992 132.800 C 242.802 132.800,242.929 133.025,243.274 133.300 M246.011 137.213 C 247.197 138.712,248.975 140.245,250.400 141.000 C 251.245 141.447,250.519 140.790,248.681 139.443 C 247.845 138.831,246.765 137.718,246.281 136.970 C 245.796 136.222,245.250 135.608,245.066 135.605 C 244.883 135.602,245.308 136.326,246.011 137.213 M253.800 142.329 C 254.240 142.411,254.771 142.640,254.980 142.839 C 255.537 143.368,258.556 143.279,259.672 142.700 C 260.506 142.267,260.122 142.199,256.818 142.190 C 254.718 142.185,253.360 142.247,253.800 142.329 M111.072 266.464 C 109.878 267.132,103.509 269.200,102.645 269.200 C 102.085 269.200,101.967 269.327,102.259 269.619 C 102.679 270.039,110.952 267.565,111.773 266.773 C 112.349 266.219,111.880 266.012,111.072 266.464 M110.000 297.183 C 109.670 297.367,108.050 297.932,106.400 298.437 C 104.750 298.943,103.040 299.613,102.600 299.927 C 102.160 300.241,102.071 300.409,102.402 300.299 C 102.733 300.190,104.792 299.528,106.978 298.827 C 111.396 297.412,112.717 296.817,111.400 296.836 C 110.960 296.842,110.330 296.998,110.000 297.183 " stroke="none" fill="#caf4fc" fill-rule="evenodd"></path></g></svg>