<svg id="svg" version="1.1" xmlns="http://www.w3.org/2000/svg" xmlns:xlink="http://www.w3.org/1999/xlink" width="400" height="400" viewBox="0, 0, 400,400"><g id="svgg"><path id="path0" d="M337.205 0.277 C 336.658 0.389,335.730 0.822,335.143 1.240 C 334.557 1.658,333.965 2.000,333.828 2.000 C 333.299 2.000,330.000 5.611,330.000 6.189 C 330.000 6.525,329.820 6.800,329.600 6.800 C 329.380 6.800,329.200 7.160,329.200 7.600 C 329.200 8.040,329.020 8.400,328.800 8.400 C 328.580 8.400,328.400 8.929,328.400 9.576 C 328.400 10.223,328.220 10.864,328.000 11.000 C 327.740 11.161,327.600 20.404,327.600 37.424 C 327.600 54.275,327.460 63.600,327.207 63.600 C 326.992 63.600,325.597 62.465,324.107 61.077 C 319.994 57.245,319.476 56.800,319.127 56.800 C 318.949 56.800,317.885 55.900,316.761 54.800 C 315.638 53.700,314.549 52.800,314.341 52.800 C 314.134 52.800,313.514 52.350,312.964 51.800 C 312.414 51.250,311.811 50.800,311.624 50.800 C 311.437 50.800,310.703 50.257,309.993 49.594 C 309.283 48.930,308.184 48.081,307.551 47.707 C 306.918 47.333,306.400 46.886,306.400 46.714 C 306.400 46.541,306.130 46.400,305.800 46.400 C 305.470 46.400,305.200 46.250,305.200 46.068 C 305.200 45.885,304.705 45.480,304.100 45.168 C 303.495 44.855,302.651 44.285,302.225 43.900 C 301.798 43.515,301.290 43.200,301.096 43.200 C 300.902 43.200,300.473 42.930,300.143 42.600 C 299.813 42.270,299.196 42.000,298.771 42.000 C 298.347 42.000,298.000 41.820,298.000 41.600 C 298.000 41.380,297.680 41.200,297.288 41.200 C 296.897 41.200,296.317 40.840,296.000 40.400 C 295.683 39.960,295.103 39.600,294.712 39.600 C 294.320 39.600,294.000 39.420,294.000 39.200 C 294.000 38.980,293.706 38.800,293.347 38.800 C 292.988 38.800,292.403 38.471,292.047 38.070 C 291.691 37.668,290.815 37.084,290.100 36.772 C 289.385 36.460,288.800 36.069,288.800 35.902 C 288.800 35.736,288.440 35.600,288.000 35.600 C 287.560 35.600,287.200 35.420,287.200 35.200 C 287.200 34.980,286.840 34.800,286.400 34.800 C 285.960 34.800,285.600 34.620,285.600 34.400 C 285.600 34.180,285.240 34.000,284.800 34.000 C 284.360 34.000,284.000 33.820,284.000 33.600 C 284.000 33.380,283.640 33.200,283.200 33.200 C 282.760 33.200,282.400 33.020,282.400 32.800 C 282.400 32.580,282.040 32.400,281.600 32.400 C 281.160 32.400,280.800 32.220,280.800 32.000 C 280.800 31.780,280.440 31.600,280.000 31.600 C 279.560 31.600,279.200 31.420,279.200 31.200 C 279.200 30.980,278.840 30.800,278.400 30.800 C 277.960 30.800,277.600 30.620,277.600 30.400 C 277.600 30.180,277.240 30.000,276.800 30.000 C 276.360 30.000,276.000 29.820,276.000 29.600 C 276.000 29.380,275.728 29.200,275.395 29.200 C 275.062 29.200,274.477 29.035,274.095 28.833 C 272.492 27.985,269.571 26.800,269.084 26.800 C 268.796 26.800,268.389 26.644,268.180 26.453 C 267.617 25.939,263.999 24.800,262.929 24.800 C 262.418 24.800,262.000 24.620,262.000 24.400 C 262.000 24.180,261.651 24.000,261.224 24.000 C 260.797 24.000,260.336 23.820,260.200 23.600 C 260.064 23.380,259.524 23.200,259.000 23.200 C 258.476 23.200,257.936 23.020,257.800 22.800 C 257.664 22.580,257.023 22.400,256.376 22.400 C 255.729 22.400,255.200 22.220,255.200 22.000 C 255.200 21.780,254.660 21.600,254.000 21.600 C 253.340 21.600,252.800 21.420,252.800 21.200 C 252.800 20.980,252.271 20.800,251.624 20.800 C 250.977 20.800,250.336 20.620,250.200 20.400 C 250.064 20.180,249.333 20.000,248.576 20.000 C 247.819 20.000,247.200 19.820,247.200 19.600 C 247.200 19.380,246.480 19.200,245.600 19.200 C 244.720 19.200,244.000 19.020,244.000 18.800 C 244.000 18.580,243.291 18.400,242.424 18.400 C 241.557 18.400,240.736 18.220,240.600 18.000 C 240.464 17.780,239.553 17.600,238.576 17.600 C 237.599 17.600,236.800 17.420,236.800 17.200 C 236.800 16.980,236.001 16.800,235.024 16.800 C 234.047 16.800,233.136 16.620,233.000 16.400 C 232.864 16.180,231.593 16.000,230.176 16.000 C 228.725 16.000,227.600 15.825,227.600 15.600 C 227.600 15.371,226.400 15.200,224.800 15.200 C 223.200 15.200,222.000 15.029,222.000 14.800 C 222.000 14.562,220.475 14.400,218.224 14.400 C 216.137 14.400,214.337 14.221,214.200 14.000 C 213.861 13.451,185.600 13.451,185.600 14.000 C 185.600 14.241,183.933 14.400,181.400 14.400 C 178.867 14.400,177.200 14.559,177.200 14.800 C 177.200 15.029,176.000 15.200,174.400 15.200 C 172.800 15.200,171.600 15.371,171.600 15.600 C 171.600 15.822,170.533 16.000,169.200 16.000 C 167.867 16.000,166.800 16.178,166.800 16.400 C 166.800 16.620,165.911 16.800,164.824 16.800 C 163.737 16.800,162.736 16.980,162.600 17.200 C 162.464 17.420,161.654 17.600,160.800 17.600 C 159.946 17.600,159.136 17.780,159.000 18.000 C 158.864 18.220,158.054 18.400,157.200 18.400 C 156.346 18.400,155.536 18.580,155.400 18.800 C 155.264 19.020,154.443 19.200,153.576 19.200 C 152.709 19.200,152.000 19.380,152.000 19.600 C 152.000 19.820,151.460 20.000,150.800 20.000 C 150.140 20.000,149.600 20.180,149.600 20.400 C 149.600 20.620,148.880 20.800,148.000 20.800 C 147.120 20.800,146.400 20.980,146.400 21.200 C 146.400 21.420,145.860 21.600,145.200 21.600 C 144.540 21.600,144.000 21.780,144.000 22.000 C 144.000 22.220,143.550 22.400,143.000 22.400 C 142.450 22.400,142.000 22.580,142.000 22.800 C 142.000 23.020,141.460 23.200,140.800 23.200 C 140.140 23.200,139.600 23.380,139.600 23.600 C 139.600 23.820,139.060 24.000,138.400 24.000 C 137.740 24.000,137.200 24.180,137.200 24.400 C 137.200 24.620,136.782 24.800,136.271 24.800 C 135.201 24.800,131.583 25.939,131.020 26.453 C 130.811 26.644,130.411 26.800,130.130 26.800 C 129.850 26.800,128.441 27.340,127.000 28.000 C 125.559 28.660,124.114 29.200,123.790 29.200 C 123.465 29.200,123.200 29.380,123.200 29.600 C 123.200 29.820,122.840 30.000,122.400 30.000 C 121.960 30.000,121.600 30.180,121.600 30.400 C 121.600 30.620,121.240 30.800,120.800 30.800 C 120.360 30.800,120.000 30.980,120.000 31.200 C 120.000 31.420,119.640 31.600,119.200 31.600 C 118.760 31.600,118.400 31.780,118.400 32.000 C 118.400 32.220,118.040 32.400,117.600 32.400 C 117.160 32.400,116.800 32.580,116.800 32.800 C 116.800 33.020,116.440 33.200,116.000 33.200 C 115.560 33.200,115.200 33.380,115.200 33.600 C 115.200 33.820,114.840 34.000,114.400 34.000 C 113.960 34.000,113.600 34.180,113.600 34.400 C 113.600 34.620,113.240 34.800,112.800 34.800 C 112.360 34.800,112.000 34.980,112.000 35.200 C 112.000 35.420,111.640 35.600,111.200 35.600 C 110.760 35.600,110.400 35.780,110.400 36.000 C 110.400 36.220,110.130 36.400,109.800 36.400 C 109.470 36.400,109.200 36.580,109.200 36.800 C 109.200 37.020,108.880 37.200,108.488 37.200 C 108.097 37.200,107.517 37.560,107.200 38.000 C 106.883 38.440,106.303 38.800,105.912 38.800 C 105.520 38.800,105.200 38.980,105.200 39.200 C 105.200 39.420,104.922 39.600,104.583 39.600 C 104.244 39.600,103.580 39.960,103.108 40.400 C 102.636 40.840,102.013 41.200,101.725 41.200 C 101.436 41.200,101.200 41.380,101.200 41.600 C 101.200 41.820,100.938 42.000,100.618 42.000 C 100.090 42.000,97.722 43.382,96.517 44.394 C 96.251 44.617,95.891 44.800,95.717 44.800 C 95.402 44.801,94.020 45.886,91.893 47.803 C 91.284 48.351,90.601 48.800,90.375 48.800 C 90.149 48.800,89.514 49.250,88.964 49.800 C 88.414 50.350,87.798 50.800,87.595 50.800 C 87.392 50.800,86.597 51.430,85.827 52.200 C 85.057 52.970,84.262 53.600,84.062 53.600 C 83.861 53.600,82.955 54.320,82.048 55.200 C 81.141 56.080,80.236 56.800,80.036 56.800 C 79.836 56.800,78.441 57.981,76.936 59.424 C 75.431 60.867,73.586 62.518,72.836 63.093 C 70.899 64.578,64.171 71.362,63.321 72.688 C 62.929 73.300,61.826 74.511,60.869 75.379 C 59.912 76.248,58.569 77.778,57.884 78.779 C 57.198 79.781,55.954 81.261,55.119 82.069 C 54.283 82.876,53.600 83.749,53.600 84.008 C 53.600 84.267,53.060 84.983,52.400 85.600 C 51.740 86.217,51.200 86.937,51.200 87.200 C 51.200 87.463,50.660 88.183,50.000 88.800 C 49.340 89.417,48.800 90.143,48.800 90.414 C 48.800 90.684,48.474 91.197,48.075 91.553 C 47.676 91.909,46.743 93.100,46.001 94.200 C 45.260 95.300,44.529 96.290,44.378 96.400 C 44.227 96.510,43.592 97.590,42.968 98.800 C 42.344 100.010,41.690 101.060,41.516 101.133 C 41.342 101.207,41.200 101.572,41.200 101.945 C 41.200 102.318,40.840 102.883,40.400 103.200 C 39.960 103.517,39.600 104.097,39.600 104.488 C 39.600 104.880,39.420 105.200,39.200 105.200 C 38.980 105.200,38.800 105.560,38.800 106.000 C 38.800 106.440,38.620 106.800,38.400 106.800 C 38.180 106.800,38.000 107.094,38.000 107.453 C 38.000 107.812,37.671 108.397,37.270 108.753 C 36.868 109.109,36.284 109.985,35.972 110.700 C 35.660 111.415,35.269 112.000,35.102 112.000 C 34.936 112.000,34.800 112.360,34.800 112.800 C 34.800 113.240,34.620 113.600,34.400 113.600 C 34.180 113.600,34.000 113.960,34.000 114.400 C 34.000 114.840,33.820 115.200,33.600 115.200 C 33.380 115.200,33.200 115.560,33.200 116.000 C 33.200 116.440,33.020 116.800,32.800 116.800 C 32.580 116.800,32.400 117.160,32.400 117.600 C 32.400 118.040,32.220 118.400,32.000 118.400 C 31.780 118.400,31.600 118.760,31.600 119.200 C 31.600 119.640,31.420 120.000,31.200 120.000 C 30.980 120.000,30.800 120.360,30.800 120.800 C 30.800 121.240,30.620 121.600,30.400 121.600 C 30.180 121.600,30.000 121.949,30.000 122.376 C 30.000 122.803,29.820 123.264,29.600 123.400 C 29.380 123.536,29.200 124.087,29.200 124.624 C 29.200 125.161,29.064 125.600,28.898 125.600 C 28.731 125.600,28.356 126.185,28.064 126.900 C 26.941 129.650,26.696 130.222,26.353 130.895 C 26.159 131.277,26.000 131.841,26.000 132.149 C 26.000 132.457,25.731 133.224,25.402 133.854 C 25.074 134.484,24.804 135.495,24.802 136.100 C 24.801 136.705,24.620 137.200,24.400 137.200 C 24.180 137.200,24.000 137.740,24.000 138.400 C 24.000 139.060,23.820 139.600,23.600 139.600 C 23.380 139.600,23.200 140.140,23.200 140.800 C 23.200 141.460,23.020 142.000,22.800 142.000 C 22.580 142.000,22.400 142.450,22.400 143.000 C 22.400 143.550,22.220 144.000,22.000 144.000 C 21.780 144.000,21.600 144.540,21.600 145.200 C 21.600 145.860,21.420 146.400,21.200 146.400 C 20.980 146.400,20.800 147.120,20.800 148.000 C 20.800 148.880,20.620 149.600,20.400 149.600 C 20.180 149.600,20.000 150.129,20.000 150.776 C 20.000 151.423,19.820 152.064,19.600 152.200 C 19.380 152.336,19.200 153.067,19.200 153.824 C 19.200 154.581,19.020 155.200,18.800 155.200 C 18.580 155.200,18.400 156.100,18.400 157.200 C 18.400 158.300,18.220 159.200,18.000 159.200 C 17.780 159.200,17.600 159.909,17.600 160.776 C 17.600 161.643,17.420 162.464,17.200 162.600 C 16.980 162.736,16.800 163.737,16.800 164.824 C 16.800 165.911,16.620 166.800,16.400 166.800 C 16.178 166.800,16.000 167.867,16.000 169.200 C 16.000 170.533,15.822 171.600,15.600 171.600 C 15.369 171.600,15.200 172.867,15.200 174.600 C 15.200 176.333,15.031 177.600,14.800 177.600 C 14.560 177.600,14.400 179.192,14.400 181.576 C 14.400 183.796,14.223 185.662,14.000 185.800 C 13.455 186.137,13.455 204.400,14.000 204.400 C 14.220 204.400,14.400 204.762,14.400 205.205 C 14.400 206.165,15.077 207.418,16.269 208.665 C 16.747 209.165,17.254 209.940,17.396 210.387 C 17.538 210.834,17.962 211.200,18.339 211.200 C 18.715 211.200,19.283 211.560,19.600 212.000 C 19.917 212.440,20.497 212.800,20.888 212.800 C 21.280 212.800,21.600 212.980,21.600 213.200 C 21.600 213.420,21.960 213.600,22.400 213.600 C 22.840 213.600,23.200 213.780,23.200 214.000 C 23.200 214.220,23.819 214.400,24.576 214.400 C 25.333 214.400,26.064 214.580,26.200 214.800 C 26.522 215.321,30.678 215.321,31.000 214.800 C 31.136 214.580,31.856 214.400,32.600 214.400 C 33.344 214.400,34.064 214.220,34.200 214.000 C 34.336 213.780,34.797 213.600,35.224 213.600 C 35.651 213.600,36.000 213.420,36.000 213.200 C 36.000 212.980,36.270 212.800,36.600 212.800 C 36.930 212.800,37.200 212.620,37.200 212.400 C 37.200 212.180,37.470 212.000,37.800 212.000 C 38.130 212.000,38.400 211.820,38.400 211.600 C 38.400 211.380,38.658 211.200,38.973 211.200 C 39.288 211.200,39.653 210.864,39.783 210.453 C 39.914 210.042,40.376 209.384,40.810 208.991 C 41.245 208.598,41.600 207.944,41.600 207.538 C 41.600 207.132,41.780 206.800,42.000 206.800 C 42.220 206.800,42.400 206.350,42.400 205.800 C 42.400 205.250,42.580 204.800,42.800 204.800 C 43.043 204.800,43.200 203.000,43.200 200.200 C 43.200 197.400,43.357 195.600,43.600 195.600 C 43.848 195.600,44.000 193.400,44.000 189.800 C 44.000 186.200,44.152 184.000,44.400 184.000 C 44.633 184.000,44.800 182.667,44.800 180.800 C 44.800 178.933,44.967 177.600,45.200 177.600 C 45.420 177.600,45.600 176.621,45.600 175.424 C 45.600 174.227,45.780 173.136,46.000 173.000 C 46.220 172.864,46.400 171.874,46.400 170.800 C 46.400 169.726,46.580 168.736,46.800 168.600 C 47.020 168.464,47.200 167.834,47.200 167.200 C 47.200 166.566,47.380 165.936,47.600 165.800 C 47.820 165.664,48.000 164.933,48.000 164.176 C 48.000 163.419,48.180 162.800,48.400 162.800 C 48.620 162.800,48.800 162.080,48.800 161.200 C 48.800 160.320,48.980 159.600,49.200 159.600 C 49.420 159.600,49.600 158.981,49.600 158.224 C 49.600 157.467,49.780 156.736,50.000 156.600 C 50.220 156.464,50.400 155.733,50.400 154.976 C 50.400 154.219,50.580 153.600,50.800 153.600 C 51.020 153.600,51.200 153.161,51.200 152.624 C 51.200 152.087,51.380 151.536,51.600 151.400 C 51.820 151.264,52.000 150.803,52.000 150.376 C 52.000 149.949,52.180 149.600,52.400 149.600 C 52.620 149.600,52.800 149.060,52.800 148.400 C 52.800 147.740,52.980 147.200,53.200 147.200 C 53.420 147.200,53.600 146.660,53.600 146.000 C 53.600 145.340,53.747 144.800,53.928 144.800 C 54.108 144.800,54.500 143.900,54.800 142.800 C 55.100 141.700,55.492 140.800,55.672 140.800 C 55.853 140.800,56.000 140.475,56.000 140.077 C 56.000 139.679,56.629 138.104,57.399 136.577 C 58.168 135.050,58.798 133.485,58.799 133.100 C 58.799 132.715,58.980 132.400,59.200 132.400 C 59.420 132.400,59.600 132.040,59.600 131.600 C 59.600 131.160,59.780 130.800,60.000 130.800 C 60.220 130.800,60.400 130.440,60.400 130.000 C 60.400 129.560,60.580 129.200,60.800 129.200 C 61.020 129.200,61.200 128.840,61.200 128.400 C 61.200 127.960,61.380 127.600,61.600 127.600 C 61.820 127.600,62.000 127.240,62.000 126.800 C 62.000 126.360,62.136 126.000,62.302 126.000 C 62.469 126.000,62.864 125.415,63.180 124.700 C 63.497 123.985,64.080 123.051,64.478 122.625 C 64.875 122.198,65.200 121.613,65.200 121.325 C 65.200 121.036,65.380 120.800,65.600 120.800 C 65.820 120.800,66.000 120.564,66.000 120.275 C 66.000 119.987,66.360 119.364,66.800 118.892 C 67.240 118.420,67.600 117.756,67.600 117.417 C 67.600 117.078,67.780 116.800,68.000 116.800 C 68.220 116.800,68.400 116.564,68.400 116.275 C 68.400 115.987,68.760 115.364,69.200 114.892 C 69.640 114.420,70.000 113.838,70.000 113.599 C 70.000 113.359,70.450 112.714,71.000 112.164 C 71.550 111.614,72.000 111.020,72.000 110.844 C 72.000 110.668,72.459 110.001,73.020 109.362 C 73.581 108.723,74.340 107.705,74.706 107.100 C 75.073 106.495,75.514 106.000,75.686 106.000 C 75.859 106.000,76.000 105.730,76.000 105.400 C 76.000 105.070,76.180 104.800,76.400 104.800 C 76.620 104.800,76.800 104.570,76.800 104.288 C 76.800 104.007,77.160 103.517,77.600 103.200 C 78.040 102.883,78.400 102.393,78.400 102.112 C 78.400 101.830,78.580 101.600,78.800 101.600 C 79.020 101.600,79.200 101.421,79.200 101.203 C 79.200 100.985,80.640 99.352,82.400 97.576 C 84.160 95.799,85.600 94.195,85.600 94.012 C 85.600 93.576,93.576 85.600,94.012 85.600 C 94.195 85.600,95.799 84.160,97.576 82.400 C 99.352 80.640,100.958 79.200,101.144 79.200 C 101.329 79.200,102.046 78.660,102.737 78.000 C 103.428 77.340,104.174 76.800,104.396 76.800 C 104.618 76.800,104.800 76.620,104.800 76.400 C 104.800 76.180,105.070 76.000,105.400 76.000 C 105.730 76.000,106.000 75.859,106.000 75.686 C 106.000 75.514,106.495 75.073,107.100 74.706 C 107.705 74.340,108.723 73.581,109.362 73.020 C 110.001 72.459,110.668 72.000,110.844 72.000 C 111.020 72.000,111.614 71.550,112.164 71.000 C 112.714 70.450,113.442 70.000,113.782 70.000 C 114.122 70.000,114.400 69.842,114.400 69.649 C 114.400 69.455,114.940 69.073,115.600 68.800 C 116.260 68.527,116.800 68.145,116.800 67.951 C 116.800 67.758,117.078 67.600,117.417 67.600 C 117.756 67.600,118.420 67.240,118.892 66.800 C 119.364 66.360,119.987 66.000,120.275 66.000 C 120.564 66.000,120.800 65.820,120.800 65.600 C 120.800 65.380,121.036 65.200,121.325 65.200 C 121.613 65.200,122.236 64.840,122.708 64.400 C 123.180 63.960,123.844 63.600,124.183 63.600 C 124.522 63.600,124.800 63.420,124.800 63.200 C 124.800 62.980,125.070 62.800,125.400 62.800 C 125.730 62.800,126.000 62.620,126.000 62.400 C 126.000 62.180,126.360 62.000,126.800 62.000 C 127.240 62.000,127.600 61.820,127.600 61.600 C 127.600 61.380,127.960 61.200,128.400 61.200 C 128.840 61.200,129.200 61.020,129.200 60.800 C 129.200 60.580,129.560 60.400,130.000 60.400 C 130.440 60.400,130.800 60.220,130.800 60.000 C 130.800 59.780,131.160 59.600,131.600 59.600 C 132.040 59.600,132.400 59.420,132.400 59.200 C 132.400 58.980,132.715 58.799,133.100 58.799 C 133.485 58.798,135.050 58.168,136.577 57.399 C 138.104 56.629,139.679 56.000,140.077 56.000 C 140.475 56.000,140.800 55.820,140.800 55.600 C 140.800 55.380,141.239 55.200,141.776 55.200 C 142.313 55.200,142.864 55.020,143.000 54.800 C 143.136 54.580,143.597 54.400,144.024 54.400 C 144.451 54.400,144.800 54.220,144.800 54.000 C 144.800 53.780,145.340 53.600,146.000 53.600 C 146.660 53.600,147.200 53.420,147.200 53.200 C 147.200 52.980,147.740 52.800,148.400 52.800 C 149.060 52.800,149.600 52.620,149.600 52.400 C 149.600 52.180,150.039 52.000,150.576 52.000 C 151.113 52.000,151.664 51.820,151.800 51.600 C 151.936 51.380,152.397 51.200,152.824 51.200 C 153.251 51.200,153.600 51.020,153.600 50.800 C 153.600 50.580,154.219 50.400,154.976 50.400 C 155.733 50.400,156.464 50.220,156.600 50.000 C 156.736 49.780,157.467 49.600,158.224 49.600 C 158.981 49.600,159.600 49.420,159.600 49.200 C 159.600 48.980,160.320 48.800,161.200 48.800 C 162.080 48.800,162.800 48.620,162.800 48.400 C 162.800 48.180,163.520 48.000,164.400 48.000 C 165.280 48.000,166.000 47.820,166.000 47.600 C 166.000 47.380,166.619 47.200,167.376 47.200 C 168.133 47.200,168.864 47.020,169.000 46.800 C 169.136 46.580,170.036 46.400,171.000 46.400 C 171.964 46.400,172.864 46.220,173.000 46.000 C 173.136 45.780,174.227 45.600,175.424 45.600 C 176.621 45.600,177.600 45.420,177.600 45.200 C 177.600 44.967,178.933 44.800,180.800 44.800 C 182.667 44.800,184.000 44.633,184.000 44.400 C 184.000 44.149,186.467 44.000,190.600 44.000 C 194.733 44.000,197.200 43.851,197.200 43.600 C 197.200 43.371,198.400 43.200,200.000 43.200 C 201.600 43.200,202.800 43.371,202.800 43.600 C 202.800 43.851,205.267 44.000,209.400 44.000 C 213.533 44.000,216.000 44.149,216.000 44.400 C 216.000 44.628,217.192 44.800,218.776 44.800 C 220.303 44.800,221.664 44.980,221.800 45.200 C 221.936 45.420,223.117 45.600,224.424 45.600 C 225.741 45.600,226.800 45.778,226.800 46.000 C 226.800 46.220,227.700 46.400,228.800 46.400 C 229.900 46.400,230.800 46.580,230.800 46.800 C 230.800 47.020,231.599 47.200,232.576 47.200 C 233.553 47.200,234.464 47.380,234.600 47.600 C 234.736 47.820,235.557 48.000,236.424 48.000 C 237.291 48.000,238.000 48.180,238.000 48.400 C 238.000 48.620,238.720 48.800,239.600 48.800 C 240.480 48.800,241.200 48.980,241.200 49.200 C 241.200 49.420,241.639 49.600,242.176 49.600 C 242.713 49.600,243.264 49.780,243.400 50.000 C 243.536 50.220,244.166 50.400,244.800 50.400 C 245.434 50.400,246.064 50.580,246.200 50.800 C 246.336 51.020,246.977 51.200,247.624 51.200 C 248.271 51.200,248.800 51.347,248.800 51.528 C 248.800 51.708,249.711 52.104,250.825 52.407 C 251.939 52.710,252.940 53.103,253.049 53.279 C 253.158 53.456,253.687 53.600,254.224 53.600 C 254.761 53.600,255.200 53.780,255.200 54.000 C 255.200 54.220,255.639 54.400,256.176 54.400 C 256.713 54.400,257.264 54.580,257.400 54.800 C 257.536 55.020,257.997 55.200,258.424 55.200 C 258.851 55.200,259.200 55.380,259.200 55.600 C 259.200 55.820,259.472 56.000,259.805 56.000 C 260.138 56.000,260.723 56.164,261.105 56.365 C 263.298 57.518,266.370 58.800,266.940 58.800 C 267.303 58.800,267.600 58.980,267.600 59.200 C 267.600 59.420,267.960 59.600,268.400 59.600 C 268.840 59.600,269.200 59.780,269.200 60.000 C 269.200 60.220,269.560 60.400,270.000 60.400 C 270.440 60.400,270.800 60.580,270.800 60.800 C 270.800 61.020,271.160 61.200,271.600 61.200 C 272.040 61.200,272.400 61.380,272.400 61.600 C 272.400 61.820,272.760 62.000,273.200 62.000 C 273.640 62.000,274.000 62.180,274.000 62.400 C 274.000 62.620,274.360 62.800,274.800 62.800 C 275.240 62.800,275.600 62.980,275.600 63.200 C 275.600 63.420,275.870 63.600,276.200 63.600 C 276.530 63.600,276.800 63.780,276.800 64.000 C 276.800 64.220,277.070 64.400,277.400 64.400 C 277.730 64.400,278.000 64.580,278.000 64.800 C 278.000 65.020,278.270 65.200,278.600 65.200 C 278.930 65.200,279.200 65.380,279.200 65.600 C 279.200 65.820,279.478 66.000,279.817 66.000 C 280.156 66.000,280.820 66.360,281.292 66.800 C 281.764 67.240,282.387 67.600,282.675 67.600 C 282.964 67.600,283.200 67.780,283.200 68.000 C 283.200 68.220,283.520 68.400,283.912 68.400 C 284.303 68.400,284.883 68.760,285.200 69.200 C 285.517 69.640,286.057 70.000,286.400 70.000 C 286.743 70.000,287.283 70.360,287.600 70.800 C 287.917 71.240,288.413 71.600,288.703 71.600 C 288.992 71.600,289.627 71.961,290.114 72.403 C 291.874 73.999,293.524 75.200,293.958 75.200 C 294.201 75.200,294.400 75.380,294.400 75.600 C 294.400 75.820,294.598 76.000,294.840 76.000 C 295.081 76.000,295.783 76.540,296.400 77.200 C 297.017 77.860,297.719 78.400,297.960 78.400 C 298.202 78.400,298.400 78.580,298.400 78.800 C 298.400 79.020,298.579 79.200,298.798 79.200 C 299.017 79.200,300.115 80.100,301.239 81.200 C 302.362 82.300,303.445 83.200,303.645 83.200 C 304.234 83.200,313.992 93.290,313.762 93.661 C 313.647 93.848,313.124 94.000,312.600 94.000 C 312.076 94.000,311.536 94.180,311.400 94.400 C 311.264 94.620,310.713 94.800,310.176 94.800 C 309.639 94.800,309.200 94.980,309.200 95.200 C 309.200 95.420,308.660 95.600,308.000 95.600 C 307.340 95.600,306.800 95.780,306.800 96.000 C 306.800 96.220,306.260 96.400,305.600 96.400 C 304.940 96.400,304.400 96.580,304.400 96.800 C 304.400 97.020,303.860 97.200,303.200 97.200 C 302.540 97.200,302.000 97.380,302.000 97.600 C 302.000 97.820,301.460 98.000,300.800 98.000 C 300.140 98.000,299.600 98.180,299.600 98.400 C 299.600 98.620,299.060 98.800,298.400 98.800 C 297.740 98.800,297.200 98.980,297.200 99.200 C 297.200 99.420,296.660 99.600,296.000 99.600 C 295.340 99.600,294.800 99.780,294.800 100.000 C 294.800 100.220,294.361 100.400,293.824 100.400 C 293.287 100.400,292.736 100.580,292.600 100.800 C 292.464 101.020,291.913 101.200,291.376 101.200 C 290.839 101.200,290.400 101.380,290.400 101.600 C 290.400 101.820,289.860 102.000,289.200 102.000 C 288.540 102.000,288.000 102.180,288.000 102.400 C 288.000 102.620,287.460 102.800,286.800 102.800 C 286.140 102.800,285.600 102.980,285.600 103.200 C 285.600 103.420,285.060 103.600,284.400 103.600 C 283.740 103.600,283.200 103.780,283.200 104.000 C 283.200 104.220,282.660 104.400,282.000 104.400 C 281.340 104.400,280.800 104.580,280.800 104.800 C 280.800 105.020,280.260 105.200,279.600 105.200 C 278.940 105.200,278.400 105.380,278.400 105.600 C 278.400 105.820,277.860 106.000,277.200 106.000 C 276.540 106.000,276.000 106.180,276.000 106.400 C 276.000 106.620,275.550 106.800,275.000 106.800 C 274.450 106.800,274.000 106.980,274.000 107.200 C 274.000 107.420,273.460 107.600,272.800 107.600 C 272.140 107.600,271.600 107.780,271.600 108.000 C 271.600 108.220,271.060 108.400,270.400 108.400 C 269.740 108.400,269.200 108.559,269.200 108.754 C 269.200 108.949,268.213 109.231,267.006 109.382 C 265.800 109.533,264.709 109.823,264.583 110.028 C 264.456 110.233,263.924 110.400,263.400 110.400 C 262.876 110.400,262.336 110.580,262.200 110.800 C 262.064 111.020,261.524 111.200,261.000 111.200 C 260.476 111.200,259.936 111.380,259.800 111.600 C 259.664 111.820,259.113 112.000,258.576 112.000 C 258.039 112.000,257.600 112.180,257.600 112.400 C 257.600 112.620,257.060 112.800,256.400 112.800 C 255.740 112.800,255.200 112.980,255.200 113.200 C 255.200 113.420,254.660 113.600,254.000 113.600 C 253.340 113.600,252.800 113.780,252.800 114.000 C 252.800 114.220,252.361 114.400,251.824 114.400 C 251.287 114.400,250.736 114.580,250.600 114.800 C 250.464 115.020,250.081 115.200,249.748 115.200 C 248.888 115.200,248.000 116.199,248.000 117.168 C 248.000 117.622,247.375 118.812,246.611 119.813 C 243.779 123.523,242.468 128.434,243.549 131.281 C 244.492 133.764,244.855 135.323,244.544 135.549 C 243.929 135.997,243.988 136.776,244.701 137.646 C 246.025 139.260,246.922 139.972,247.322 139.724 C 247.543 139.588,247.603 139.672,247.455 139.911 C 247.308 140.149,247.370 140.458,247.593 140.596 C 247.817 140.734,248.000 140.657,248.000 140.424 C 248.000 139.747,248.857 139.928,251.000 141.058 C 253.280 142.260,261.057 142.703,262.072 141.688 C 262.340 141.420,262.938 141.200,263.400 141.200 C 263.862 141.200,264.411 141.042,264.620 140.849 C 265.447 140.084,267.928 139.943,268.317 140.638 C 268.571 141.091,268.778 141.159,268.968 140.851 C 269.122 140.603,269.676 140.400,270.200 140.400 C 270.724 140.400,271.264 140.220,271.400 140.000 C 271.536 139.780,272.076 139.600,272.600 139.600 C 273.124 139.600,273.664 139.420,273.800 139.200 C 273.936 138.980,274.487 138.800,275.024 138.800 C 275.561 138.800,276.000 138.620,276.000 138.400 C 276.000 138.180,276.540 138.000,277.200 138.000 C 277.860 138.000,278.400 137.820,278.400 137.600 C 278.400 137.380,278.940 137.200,279.600 137.200 C 280.260 137.200,280.800 137.020,280.800 136.800 C 280.800 136.580,281.340 136.400,282.000 136.400 C 282.660 136.400,283.200 136.220,283.200 136.000 C 283.200 135.780,283.740 135.600,284.400 135.600 C 285.060 135.600,285.600 135.420,285.600 135.200 C 285.600 134.980,286.140 134.800,286.800 134.800 C 287.460 134.800,288.000 134.620,288.000 134.400 C 288.000 134.180,288.439 134.000,288.976 134.000 C 289.513 134.000,290.064 133.820,290.200 133.600 C 290.336 133.380,290.887 133.200,291.424 133.200 C 291.961 133.200,292.400 133.020,292.400 132.800 C 292.400 132.580,292.940 132.400,293.600 132.400 C 294.260 132.400,294.800 132.220,294.800 132.000 C 294.800 131.780,295.340 131.600,296.000 131.600 C 296.660 131.600,297.200 131.420,297.200 131.200 C 297.200 130.980,297.740 130.800,298.400 130.800 C 299.060 130.800,299.600 130.620,299.600 130.400 C 299.600 130.180,300.140 130.000,300.800 130.000 C 301.460 130.000,302.000 129.820,302.000 129.600 C 302.000 129.380,302.540 129.200,303.200 129.200 C 303.860 129.200,304.400 129.020,304.400 128.800 C 304.400 128.580,304.940 128.400,305.600 128.400 C 306.260 128.400,306.800 128.220,306.800 128.000 C 306.800 127.780,307.250 127.600,307.800 127.600 C 308.350 127.600,308.800 127.420,308.800 127.200 C 308.800 126.980,309.340 126.800,310.000 126.800 C 310.660 126.800,311.200 126.620,311.200 126.400 C 311.200 126.180,311.740 126.000,312.400 126.000 C 313.060 126.000,313.600 125.841,313.600 125.646 C 313.600 125.451,314.587 125.169,315.794 125.018 C 317.000 124.867,318.091 124.577,318.217 124.372 C 318.344 124.167,318.876 124.000,319.400 124.000 C 319.924 124.000,320.464 123.820,320.600 123.600 C 320.736 123.380,321.276 123.200,321.800 123.200 C 322.324 123.200,322.864 123.020,323.000 122.800 C 323.136 122.580,323.687 122.400,324.224 122.400 C 324.761 122.400,325.200 122.220,325.200 122.000 C 325.200 121.780,325.740 121.600,326.400 121.600 C 327.060 121.600,327.600 121.420,327.600 121.200 C 327.600 120.980,328.140 120.800,328.800 120.800 C 329.460 120.800,330.000 120.620,330.000 120.400 C 330.000 120.180,330.540 120.000,331.200 120.000 C 331.860 120.000,332.400 119.820,332.400 119.600 C 332.400 119.380,332.940 119.200,333.600 119.200 C 334.260 119.200,334.800 119.020,334.800 118.800 C 334.800 118.580,335.340 118.400,336.000 118.400 C 336.660 118.400,337.200 118.220,337.200 118.000 C 337.200 117.780,337.639 117.600,338.176 117.600 C 338.713 117.600,339.264 117.420,339.400 117.200 C 339.536 116.980,340.087 116.800,340.624 116.800 C 341.161 116.800,341.600 116.620,341.600 116.400 C 341.600 116.180,342.140 116.000,342.800 116.000 C 343.460 116.000,344.000 115.820,344.000 115.600 C 344.000 115.380,344.540 115.200,345.200 115.200 C 345.860 115.200,346.400 115.020,346.400 114.800 C 346.400 114.580,346.940 114.400,347.600 114.400 C 348.260 114.400,348.800 114.220,348.800 114.000 C 348.800 113.780,349.160 113.600,349.600 113.600 C 350.040 113.600,350.400 113.420,350.400 113.200 C 350.400 112.980,350.641 112.800,350.936 112.800 C 352.856 112.800,357.063 106.615,357.740 102.800 C 358.690 97.443,358.145 9.200,357.161 9.200 C 356.963 9.200,356.800 8.928,356.800 8.595 C 356.800 7.930,356.082 6.537,355.300 5.687 C 355.025 5.388,354.800 5.003,354.800 4.833 C 354.800 4.312,353.463 3.027,352.300 2.430 C 351.695 2.119,351.200 1.715,351.200 1.532 C 351.200 1.350,350.855 1.200,350.433 1.200 C 350.012 1.200,349.592 0.975,349.500 0.700 C 349.329 0.185,339.333 -0.160,337.205 0.277 M369.000 185.200 C 368.864 185.420,368.144 185.600,367.400 185.600 C 366.656 185.600,365.936 185.780,365.800 186.000 C 365.664 186.220,365.203 186.400,364.776 186.400 C 364.349 186.400,364.000 186.580,364.000 186.800 C 364.000 187.020,363.730 187.200,363.400 187.200 C 363.070 187.200,362.800 187.380,362.800 187.600 C 362.800 187.820,362.530 188.000,362.200 188.000 C 361.870 188.000,361.600 188.180,361.600 188.400 C 361.600 188.620,361.375 188.807,361.100 188.815 C 360.570 188.830,358.400 191.994,358.400 192.752 C 358.400 192.998,358.220 193.200,358.000 193.200 C 357.780 193.200,357.600 193.650,357.600 194.200 C 357.600 194.750,357.420 195.200,357.200 195.200 C 356.957 195.200,356.800 197.000,356.800 199.800 C 356.800 202.600,356.643 204.400,356.400 204.400 C 356.152 204.400,356.000 206.600,356.000 210.200 C 356.000 213.800,355.848 216.000,355.600 216.000 C 355.367 216.000,355.200 217.333,355.200 219.200 C 355.200 221.067,355.033 222.400,354.800 222.400 C 354.580 222.400,354.400 223.379,354.400 224.576 C 354.400 225.773,354.220 226.864,354.000 227.000 C 353.780 227.136,353.600 228.126,353.600 229.200 C 353.600 230.274,353.420 231.264,353.200 231.400 C 352.980 231.536,352.800 232.166,352.800 232.800 C 352.800 233.434,352.620 234.064,352.400 234.200 C 352.180 234.336,352.000 235.067,352.000 235.824 C 352.000 236.581,351.820 237.200,351.600 237.200 C 351.380 237.200,351.200 237.920,351.200 238.800 C 351.200 239.680,351.020 240.400,350.800 240.400 C 350.580 240.400,350.400 241.019,350.400 241.776 C 350.400 242.533,350.220 243.264,350.000 243.400 C 349.780 243.536,349.600 244.267,349.600 245.024 C 349.600 245.781,349.420 246.400,349.200 246.400 C 348.980 246.400,348.800 246.839,348.800 247.376 C 348.800 247.913,348.620 248.464,348.400 248.600 C 348.180 248.736,348.000 249.197,348.000 249.624 C 348.000 250.051,347.820 250.400,347.600 250.400 C 347.380 250.400,347.200 250.940,347.200 251.600 C 347.200 252.260,347.020 252.800,346.800 252.800 C 346.580 252.800,346.400 253.340,346.400 254.000 C 346.400 254.660,346.253 255.200,346.072 255.200 C 345.892 255.200,345.500 256.100,345.200 257.200 C 344.900 258.300,344.508 259.200,344.328 259.200 C 344.147 259.200,344.000 259.543,344.000 259.962 C 344.000 260.381,343.653 261.416,343.230 262.262 C 341.769 265.180,341.200 266.525,341.200 267.061 C 341.200 267.358,341.020 267.600,340.800 267.600 C 340.580 267.600,340.400 267.960,340.400 268.400 C 340.400 268.840,340.220 269.200,340.000 269.200 C 339.780 269.200,339.600 269.560,339.600 270.000 C 339.600 270.440,339.420 270.800,339.200 270.800 C 338.980 270.800,338.800 271.160,338.800 271.600 C 338.800 272.040,338.620 272.400,338.400 272.400 C 338.180 272.400,338.000 272.760,338.000 273.200 C 338.000 273.640,337.820 274.000,337.600 274.000 C 337.380 274.000,337.200 274.360,337.200 274.800 C 337.200 275.240,337.020 275.600,336.800 275.600 C 336.580 275.600,336.400 275.788,336.400 276.017 C 336.400 276.246,336.040 276.820,335.600 277.292 C 335.160 277.764,334.800 278.387,334.800 278.675 C 334.800 278.964,334.620 279.200,334.400 279.200 C 334.180 279.200,334.000 279.436,334.000 279.725 C 334.000 280.013,333.640 280.636,333.200 281.108 C 332.760 281.580,332.400 282.244,332.400 282.583 C 332.400 282.922,332.220 283.200,332.000 283.200 C 331.780 283.200,331.600 283.436,331.600 283.725 C 331.600 284.013,331.240 284.636,330.800 285.108 C 330.360 285.580,330.000 286.162,330.000 286.401 C 330.000 286.641,329.550 287.286,329.000 287.836 C 328.450 288.386,328.000 288.980,328.000 289.156 C 328.000 289.332,327.541 289.999,326.980 290.638 C 326.419 291.277,325.660 292.295,325.294 292.900 C 324.927 293.505,324.486 294.000,324.314 294.000 C 324.141 294.000,324.000 294.270,324.000 294.600 C 324.000 294.930,323.820 295.200,323.600 295.200 C 323.380 295.200,323.200 295.430,323.200 295.712 C 323.200 295.993,322.840 296.483,322.400 296.800 C 321.960 297.117,321.600 297.607,321.600 297.888 C 321.600 298.170,321.420 298.400,321.200 298.400 C 320.980 298.400,320.800 298.579,320.800 298.797 C 320.800 299.015,319.360 300.648,317.600 302.424 C 315.840 304.201,314.400 305.805,314.400 305.988 C 314.400 306.424,306.424 314.400,305.988 314.400 C 305.805 314.400,304.201 315.840,302.424 317.600 C 300.648 319.360,299.042 320.800,298.856 320.800 C 298.671 320.800,297.954 321.340,297.263 322.000 C 296.572 322.660,295.826 323.200,295.604 323.200 C 295.382 323.200,295.200 323.380,295.200 323.600 C 295.200 323.820,294.930 324.000,294.600 324.000 C 294.270 324.000,294.000 324.141,294.000 324.314 C 294.000 324.486,293.505 324.927,292.900 325.294 C 292.295 325.660,291.277 326.419,290.638 326.980 C 289.999 327.541,289.332 328.000,289.156 328.000 C 288.980 328.000,288.386 328.450,287.836 329.000 C 287.286 329.550,286.558 330.000,286.218 330.000 C 285.878 330.000,285.600 330.158,285.600 330.351 C 285.600 330.545,285.060 330.927,284.400 331.200 C 283.740 331.473,283.200 331.855,283.200 332.049 C 283.200 332.242,282.922 332.400,282.583 332.400 C 282.244 332.400,281.580 332.760,281.108 333.200 C 280.636 333.640,280.013 334.000,279.725 334.000 C 279.436 334.000,279.200 334.180,279.200 334.400 C 279.200 334.620,278.964 334.800,278.675 334.800 C 278.387 334.800,277.764 335.160,277.292 335.600 C 276.820 336.040,276.246 336.400,276.017 336.400 C 275.788 336.400,275.600 336.580,275.600 336.800 C 275.600 337.020,275.240 337.200,274.800 337.200 C 274.360 337.200,274.000 337.380,274.000 337.600 C 274.000 337.820,273.640 338.000,273.200 338.000 C 272.760 338.000,272.400 338.180,272.400 338.400 C 272.400 338.620,272.040 338.800,271.600 338.800 C 271.160 338.800,270.800 338.980,270.800 339.200 C 270.800 339.420,270.440 339.600,270.000 339.600 C 269.560 339.600,269.200 339.780,269.200 340.000 C 269.200 340.220,268.840 340.400,268.400 340.400 C 267.960 340.400,267.600 340.580,267.600 340.800 C 267.600 341.020,267.358 341.200,267.061 341.200 C 266.525 341.200,265.180 341.769,262.262 343.230 C 261.416 343.653,260.381 344.000,259.962 344.000 C 259.543 344.000,259.200 344.180,259.200 344.400 C 259.200 344.620,258.761 344.800,258.224 344.800 C 257.687 344.800,257.136 344.980,257.000 345.200 C 256.864 345.420,256.403 345.600,255.976 345.600 C 255.549 345.600,255.200 345.780,255.200 346.000 C 255.200 346.220,254.660 346.400,254.000 346.400 C 253.340 346.400,252.800 346.580,252.800 346.800 C 252.800 347.020,252.260 347.200,251.600 347.200 C 250.940 347.200,250.400 347.380,250.400 347.600 C 250.400 347.820,249.961 348.000,249.424 348.000 C 248.887 348.000,248.336 348.180,248.200 348.400 C 248.064 348.620,247.603 348.800,247.176 348.800 C 246.749 348.800,246.400 348.980,246.400 349.200 C 246.400 349.420,245.781 349.600,245.024 349.600 C 244.267 349.600,243.536 349.780,243.400 350.000 C 243.264 350.220,242.533 350.400,241.776 350.400 C 241.019 350.400,240.400 350.580,240.400 350.800 C 240.400 351.020,239.680 351.200,238.800 351.200 C 237.920 351.200,237.200 351.380,237.200 351.600 C 237.200 351.820,236.480 352.000,235.600 352.000 C 234.720 352.000,234.000 352.180,234.000 352.400 C 234.000 352.620,233.381 352.800,232.624 352.800 C 231.867 352.800,231.136 352.980,231.000 353.200 C 230.864 353.420,229.964 353.600,229.000 353.600 C 228.036 353.600,227.136 353.780,227.000 354.000 C 226.864 354.220,225.773 354.400,224.576 354.400 C 223.379 354.400,222.400 354.580,222.400 354.800 C 222.400 355.033,221.067 355.200,219.200 355.200 C 217.333 355.200,216.000 355.367,216.000 355.600 C 216.000 355.851,213.533 356.000,209.400 356.000 C 205.267 356.000,202.800 356.149,202.800 356.400 C 202.800 356.629,201.600 356.800,200.000 356.800 C 198.400 356.800,197.200 356.629,197.200 356.400 C 197.200 356.149,194.733 356.000,190.600 356.000 C 186.467 356.000,184.000 355.851,184.000 355.600 C 184.000 355.372,182.808 355.200,181.224 355.200 C 179.697 355.200,178.336 355.020,178.200 354.800 C 178.064 354.580,176.883 354.400,175.576 354.400 C 174.259 354.400,173.200 354.222,173.200 354.000 C 173.200 353.780,172.300 353.600,171.200 353.600 C 170.100 353.600,169.200 353.420,169.200 353.200 C 169.200 352.980,168.401 352.800,167.424 352.800 C 166.447 352.800,165.536 352.620,165.400 352.400 C 165.264 352.180,164.443 352.000,163.576 352.000 C 162.709 352.000,162.000 351.820,162.000 351.600 C 162.000 351.380,161.280 351.200,160.400 351.200 C 159.520 351.200,158.800 351.020,158.800 350.800 C 158.800 350.580,158.361 350.400,157.824 350.400 C 157.287 350.400,156.736 350.220,156.600 350.000 C 156.464 349.780,155.834 349.600,155.200 349.600 C 154.566 349.600,153.936 349.420,153.800 349.200 C 153.664 348.980,153.023 348.800,152.376 348.800 C 151.729 348.800,151.200 348.653,151.200 348.472 C 151.200 348.292,150.289 347.896,149.175 347.593 C 148.061 347.290,147.060 346.897,146.951 346.721 C 146.842 346.544,146.313 346.400,145.776 346.400 C 145.239 346.400,144.800 346.220,144.800 346.000 C 144.800 345.780,144.361 345.600,143.824 345.600 C 143.287 345.600,142.736 345.420,142.600 345.200 C 142.464 344.980,142.003 344.800,141.576 344.800 C 141.149 344.800,140.800 344.620,140.800 344.400 C 140.800 344.180,140.528 344.000,140.195 344.000 C 139.862 344.000,139.277 343.835,138.895 343.634 C 137.298 342.792,135.236 342.000,134.640 342.000 C 134.288 342.000,134.000 341.820,134.000 341.600 C 134.000 341.380,133.640 341.200,133.200 341.200 C 132.760 341.200,132.400 341.020,132.400 340.800 C 132.400 340.580,132.040 340.400,131.600 340.400 C 131.160 340.400,130.800 340.220,130.800 340.000 C 130.800 339.780,130.440 339.600,130.000 339.600 C 129.560 339.600,129.200 339.420,129.200 339.200 C 129.200 338.980,128.840 338.800,128.400 338.800 C 127.960 338.800,127.600 338.620,127.600 338.400 C 127.600 338.180,127.240 338.000,126.800 338.000 C 126.360 338.000,126.000 337.854,126.000 337.675 C 126.000 337.496,125.370 337.102,124.600 336.800 C 123.830 336.498,123.200 336.104,123.200 335.925 C 123.200 335.746,122.930 335.600,122.600 335.600 C 122.270 335.600,122.000 335.420,122.000 335.200 C 122.000 334.980,121.730 334.800,121.400 334.800 C 121.070 334.800,120.800 334.620,120.800 334.400 C 120.800 334.180,120.522 334.000,120.183 334.000 C 119.844 334.000,119.180 333.640,118.708 333.200 C 118.236 332.760,117.613 332.400,117.325 332.400 C 117.036 332.400,116.800 332.220,116.800 332.000 C 116.800 331.780,116.480 331.600,116.088 331.600 C 115.697 331.600,115.117 331.240,114.800 330.800 C 114.483 330.360,113.943 330.000,113.600 330.000 C 113.257 330.000,112.717 329.640,112.400 329.200 C 112.083 328.760,111.587 328.400,111.297 328.400 C 111.008 328.400,110.373 328.039,109.886 327.597 C 108.126 326.001,106.476 324.800,106.042 324.800 C 105.799 324.800,105.600 324.620,105.600 324.400 C 105.600 324.180,105.402 324.000,105.160 324.000 C 104.919 324.000,104.217 323.460,103.600 322.800 C 102.983 322.140,102.281 321.600,102.040 321.600 C 101.798 321.600,101.600 321.420,101.600 321.200 C 101.600 320.980,101.421 320.800,101.202 320.800 C 100.983 320.800,99.885 319.900,98.761 318.800 C 97.638 317.700,96.555 316.800,96.355 316.800 C 95.766 316.800,86.008 306.710,86.238 306.339 C 86.353 306.152,86.876 306.000,87.400 306.000 C 87.924 306.000,88.464 305.820,88.600 305.600 C 88.736 305.380,89.276 305.200,89.800 305.200 C 90.324 305.200,90.864 305.020,91.000 304.800 C 91.136 304.580,91.687 304.400,92.224 304.400 C 92.761 304.400,93.200 304.220,93.200 304.000 C 93.200 303.780,93.740 303.600,94.400 303.600 C 95.060 303.600,95.600 303.420,95.600 303.200 C 95.600 302.980,96.140 302.800,96.800 302.800 C 97.460 302.800,98.000 302.620,98.000 302.400 C 98.000 302.180,98.540 302.000,99.200 302.000 C 99.860 302.000,100.400 301.820,100.400 301.600 C 100.400 301.380,100.940 301.200,101.600 301.200 C 102.260 301.200,102.800 301.020,102.800 300.800 C 102.800 300.580,103.340 300.400,104.000 300.400 C 104.660 300.400,105.200 300.220,105.200 300.000 C 105.200 299.780,105.479 299.600,105.819 299.600 C 106.160 299.600,106.835 299.179,107.319 298.664 C 107.890 298.057,110.028 297.137,113.400 296.048 C 116.260 295.123,118.960 294.217,119.400 294.034 C 119.840 293.850,122.540 292.950,125.400 292.034 C 128.260 291.117,130.960 290.210,131.400 290.018 C 131.840 289.826,135.530 288.575,139.600 287.238 C 151.890 283.200,156.000 281.139,156.000 279.013 C 156.000 278.676,156.180 278.400,156.400 278.400 C 156.620 278.400,156.800 278.051,156.800 277.624 C 156.800 277.197,156.980 276.736,157.200 276.600 C 157.420 276.464,157.600 275.812,157.600 275.150 C 157.600 274.489,157.796 273.581,158.035 273.134 C 158.490 272.284,157.909 267.745,157.161 266.305 C 156.962 265.923,156.800 265.338,156.800 265.005 C 156.800 264.672,156.620 264.400,156.400 264.400 C 156.180 264.400,156.000 264.040,156.000 263.600 C 156.000 263.160,155.850 262.800,155.668 262.800 C 155.485 262.800,155.114 262.395,154.843 261.900 C 154.219 260.757,151.132 258.400,150.261 258.400 C 149.897 258.400,149.600 258.220,149.600 258.000 C 149.600 257.780,149.240 257.600,148.800 257.600 C 148.360 257.600,148.000 257.420,148.000 257.200 C 148.000 256.955,146.067 256.800,143.000 256.800 C 139.933 256.800,138.000 256.955,138.000 257.200 C 138.000 257.420,137.460 257.600,136.800 257.600 C 136.140 257.600,135.600 257.780,135.600 258.000 C 135.600 258.220,135.171 258.400,134.646 258.400 C 133.622 258.400,129.847 259.440,128.705 260.037 C 128.323 260.237,127.710 260.400,127.342 260.400 C 126.974 260.400,125.756 261.082,124.636 261.915 C 121.194 264.477,101.624 270.766,101.033 269.500 C 100.847 269.100,100.753 269.100,100.567 269.500 C 100.438 269.775,99.808 270.000,99.167 270.000 C 98.525 270.000,98.000 270.180,98.000 270.400 C 98.000 270.620,97.460 270.800,96.800 270.800 C 96.140 270.800,95.600 270.980,95.600 271.200 C 95.600 271.420,95.060 271.600,94.400 271.600 C 93.740 271.600,93.200 271.780,93.200 272.000 C 93.200 272.220,92.750 272.400,92.200 272.400 C 91.650 272.400,91.200 272.580,91.200 272.800 C 91.200 273.020,90.660 273.200,90.000 273.200 C 89.340 273.200,88.800 273.380,88.800 273.600 C 88.800 273.820,88.260 274.000,87.600 274.000 C 86.940 274.000,86.400 274.180,86.400 274.400 C 86.400 274.620,85.971 274.800,85.446 274.800 C 84.422 274.800,80.647 275.840,79.505 276.437 C 79.123 276.637,78.459 276.800,78.029 276.800 C 77.599 276.800,77.136 276.980,77.000 277.200 C 76.864 277.420,76.313 277.600,75.776 277.600 C 75.239 277.600,74.800 277.780,74.800 278.000 C 74.800 278.220,74.260 278.400,73.600 278.400 C 72.940 278.400,72.400 278.580,72.400 278.800 C 72.400 279.020,71.860 279.200,71.200 279.200 C 70.540 279.200,70.000 279.380,70.000 279.600 C 70.000 279.820,69.460 280.000,68.800 280.000 C 68.140 280.000,67.600 280.180,67.600 280.400 C 67.600 280.620,67.060 280.800,66.400 280.800 C 65.740 280.800,65.200 280.980,65.200 281.200 C 65.200 281.420,64.660 281.600,64.000 281.600 C 63.340 281.600,62.800 281.780,62.800 282.000 C 62.800 282.220,62.361 282.400,61.824 282.400 C 61.287 282.400,60.736 282.580,60.600 282.800 C 60.464 283.020,59.913 283.200,59.376 283.200 C 58.839 283.200,58.400 283.380,58.400 283.600 C 58.400 283.820,57.860 284.000,57.200 284.000 C 56.540 284.000,56.000 284.180,56.000 284.400 C 56.000 284.620,55.460 284.800,54.800 284.800 C 54.140 284.800,53.600 284.980,53.600 285.200 C 53.600 285.420,53.060 285.600,52.400 285.600 C 51.740 285.600,51.200 285.780,51.200 286.000 C 51.200 286.220,50.840 286.400,50.400 286.400 C 49.960 286.400,49.600 286.580,49.600 286.800 C 49.600 287.020,49.359 287.200,49.064 287.200 C 48.083 287.200,45.019 290.564,43.600 293.200 L 42.200 295.800 42.200 342.800 L 42.200 389.800 43.184 391.800 C 43.725 392.900,44.400 394.038,44.684 394.329 C 44.968 394.619,45.200 394.997,45.200 395.167 C 45.200 395.688,46.537 396.973,47.700 397.570 C 48.305 397.881,48.800 398.285,48.800 398.468 C 48.800 398.650,49.145 398.800,49.567 398.800 C 49.988 398.800,50.408 399.025,50.500 399.300 C 50.841 400.321,63.158 399.973,64.662 398.900 C 65.356 398.405,66.035 398.000,66.172 398.000 C 66.701 398.000,70.000 394.389,70.000 393.811 C 70.000 393.475,70.180 393.200,70.400 393.200 C 70.620 393.200,70.800 392.840,70.800 392.400 C 70.800 391.960,70.980 391.600,71.200 391.600 C 71.420 391.600,71.600 391.071,71.600 390.424 C 71.600 389.777,71.780 389.136,72.000 389.000 C 72.260 388.839,72.400 379.596,72.400 362.576 C 72.400 345.725,72.540 336.400,72.793 336.400 C 73.008 336.400,74.403 337.535,75.893 338.923 C 80.006 342.755,80.524 343.200,80.873 343.200 C 81.051 343.200,82.115 344.100,83.239 345.200 C 84.362 346.300,85.451 347.200,85.659 347.200 C 85.866 347.200,86.486 347.650,87.036 348.200 C 87.586 348.750,88.200 349.200,88.400 349.200 C 88.600 349.200,89.177 349.605,89.682 350.100 C 90.187 350.595,91.274 351.450,92.098 352.000 C 92.921 352.550,93.596 353.135,93.597 353.300 C 93.599 353.465,93.870 353.600,94.200 353.600 C 94.530 353.600,94.800 353.750,94.800 353.932 C 94.800 354.115,95.295 354.520,95.900 354.832 C 96.505 355.145,97.349 355.715,97.775 356.100 C 98.202 356.485,98.787 356.800,99.075 356.800 C 99.364 356.800,99.600 356.947,99.600 357.126 C 99.600 357.501,102.181 358.800,102.925 358.800 C 103.199 358.800,103.683 359.160,104.000 359.600 C 104.317 360.040,104.897 360.400,105.288 360.400 C 105.680 360.400,106.000 360.580,106.000 360.800 C 106.000 361.020,106.294 361.200,106.653 361.200 C 107.012 361.200,107.597 361.529,107.953 361.930 C 108.309 362.332,109.185 362.916,109.900 363.228 C 110.615 363.540,111.200 363.931,111.200 364.098 C 111.200 364.264,111.560 364.400,112.000 364.400 C 112.440 364.400,112.800 364.580,112.800 364.800 C 112.800 365.020,113.160 365.200,113.600 365.200 C 114.040 365.200,114.400 365.380,114.400 365.600 C 114.400 365.820,114.760 366.000,115.200 366.000 C 115.640 366.000,116.000 366.180,116.000 366.400 C 116.000 366.620,116.360 366.800,116.800 366.800 C 117.240 366.800,117.600 366.980,117.600 367.200 C 117.600 367.420,117.960 367.600,118.400 367.600 C 118.840 367.600,119.200 367.780,119.200 368.000 C 119.200 368.220,119.560 368.400,120.000 368.400 C 120.440 368.400,120.800 368.580,120.800 368.800 C 120.800 369.020,121.160 369.200,121.600 369.200 C 122.040 369.200,122.400 369.380,122.400 369.600 C 122.400 369.820,122.760 370.000,123.200 370.000 C 123.640 370.000,124.000 370.180,124.000 370.400 C 124.000 370.620,124.272 370.800,124.605 370.800 C 124.938 370.800,125.523 370.965,125.905 371.167 C 127.210 371.857,130.391 373.200,130.721 373.200 C 130.902 373.200,131.801 373.563,132.720 374.007 C 133.639 374.451,135.202 374.925,136.195 375.061 C 137.188 375.197,138.000 375.464,138.000 375.654 C 138.000 375.844,138.349 376.000,138.776 376.000 C 139.203 376.000,139.664 376.180,139.800 376.400 C 139.936 376.620,140.476 376.800,141.000 376.800 C 141.524 376.800,142.064 376.980,142.200 377.200 C 142.336 377.420,142.977 377.600,143.624 377.600 C 144.271 377.600,144.800 377.780,144.800 378.000 C 144.800 378.220,145.340 378.400,146.000 378.400 C 146.660 378.400,147.200 378.580,147.200 378.800 C 147.200 379.020,147.729 379.200,148.376 379.200 C 149.023 379.200,149.664 379.380,149.800 379.600 C 149.936 379.820,150.667 380.000,151.424 380.000 C 152.181 380.000,152.800 380.180,152.800 380.400 C 152.800 380.620,153.520 380.800,154.400 380.800 C 155.280 380.800,156.000 380.980,156.000 381.200 C 156.000 381.420,156.709 381.600,157.576 381.600 C 158.443 381.600,159.264 381.780,159.400 382.000 C 159.536 382.220,160.447 382.400,161.424 382.400 C 162.401 382.400,163.200 382.580,163.200 382.800 C 163.200 383.020,163.999 383.200,164.976 383.200 C 165.953 383.200,166.864 383.380,167.000 383.600 C 167.136 383.820,168.407 384.000,169.824 384.000 C 171.275 384.000,172.400 384.175,172.400 384.400 C 172.400 384.629,173.600 384.800,175.200 384.800 C 176.800 384.800,178.000 384.971,178.000 385.200 C 178.000 385.438,179.525 385.600,181.776 385.600 C 183.863 385.600,185.663 385.779,185.800 386.000 C 186.139 386.549,214.400 386.549,214.400 386.000 C 214.400 385.759,216.067 385.600,218.600 385.600 C 221.133 385.600,222.800 385.441,222.800 385.200 C 222.800 384.971,224.000 384.800,225.600 384.800 C 227.200 384.800,228.400 384.629,228.400 384.400 C 228.400 384.178,229.467 384.000,230.800 384.000 C 232.133 384.000,233.200 383.822,233.200 383.600 C 233.200 383.380,234.089 383.200,235.176 383.200 C 236.263 383.200,237.264 383.020,237.400 382.800 C 237.536 382.580,238.346 382.400,239.200 382.400 C 240.054 382.400,240.864 382.220,241.000 382.000 C 241.136 381.780,241.946 381.600,242.800 381.600 C 243.654 381.600,244.464 381.420,244.600 381.200 C 244.736 380.980,245.557 380.800,246.424 380.800 C 247.291 380.800,248.000 380.620,248.000 380.400 C 248.000 380.180,248.540 380.000,249.200 380.000 C 249.860 380.000,250.400 379.820,250.400 379.600 C 250.400 379.380,251.120 379.200,252.000 379.200 C 252.880 379.200,253.600 379.020,253.600 378.800 C 253.600 378.580,254.140 378.400,254.800 378.400 C 255.460 378.400,256.000 378.220,256.000 378.000 C 256.000 377.780,256.540 377.600,257.200 377.600 C 257.860 377.600,258.400 377.420,258.400 377.200 C 258.400 376.980,258.850 376.800,259.400 376.800 C 259.950 376.800,260.400 376.620,260.400 376.400 C 260.400 376.180,260.940 376.000,261.600 376.000 C 262.260 376.000,262.800 375.844,262.800 375.654 C 262.800 375.464,263.612 375.197,264.605 375.061 C 265.598 374.925,267.161 374.451,268.080 374.007 C 268.999 373.563,269.892 373.200,270.065 373.200 C 270.238 373.200,271.559 372.660,273.000 372.000 C 274.441 371.340,275.886 370.800,276.210 370.800 C 276.535 370.800,276.800 370.620,276.800 370.400 C 276.800 370.180,277.160 370.000,277.600 370.000 C 278.040 370.000,278.400 369.820,278.400 369.600 C 278.400 369.380,278.760 369.200,279.200 369.200 C 279.640 369.200,280.000 369.020,280.000 368.800 C 280.000 368.580,280.360 368.400,280.800 368.400 C 281.240 368.400,281.600 368.220,281.600 368.000 C 281.600 367.780,281.960 367.600,282.400 367.600 C 282.840 367.600,283.200 367.420,283.200 367.200 C 283.200 366.980,283.560 366.800,284.000 366.800 C 284.440 366.800,284.800 366.620,284.800 366.400 C 284.800 366.180,285.160 366.000,285.600 366.000 C 286.040 366.000,286.400 365.820,286.400 365.600 C 286.400 365.380,286.760 365.200,287.200 365.200 C 287.640 365.200,288.000 365.020,288.000 364.800 C 288.000 364.580,288.360 364.400,288.800 364.400 C 289.240 364.400,289.600 364.220,289.600 364.000 C 289.600 363.780,289.870 363.600,290.200 363.600 C 290.530 363.600,290.800 363.420,290.800 363.200 C 290.800 362.980,291.120 362.800,291.512 362.800 C 291.903 362.800,292.483 362.440,292.800 362.000 C 293.117 361.560,293.697 361.200,294.088 361.200 C 294.480 361.200,294.800 361.020,294.800 360.800 C 294.800 360.580,295.160 360.400,295.600 360.400 C 296.040 360.400,296.400 360.240,296.400 360.044 C 296.400 359.848,297.188 359.318,298.152 358.865 C 299.823 358.079,302.449 356.474,303.483 355.606 C 303.749 355.383,304.109 355.197,304.283 355.193 C 304.638 355.185,306.856 353.474,308.294 352.100 C 308.812 351.605,309.416 351.200,309.636 351.200 C 309.856 351.200,310.486 350.750,311.036 350.200 C 311.586 349.650,312.202 349.200,312.405 349.200 C 312.608 349.200,313.403 348.570,314.173 347.800 C 314.943 347.030,315.738 346.400,315.938 346.400 C 316.139 346.400,317.045 345.680,317.952 344.800 C 318.859 343.920,319.774 343.200,319.986 343.200 C 320.198 343.200,321.593 342.021,323.086 340.580 C 324.579 339.139,326.414 337.488,327.164 336.911 C 329.110 335.414,335.832 328.633,336.679 327.312 C 337.071 326.700,338.174 325.489,339.131 324.621 C 340.088 323.752,341.431 322.222,342.116 321.221 C 342.802 320.219,344.046 318.739,344.881 317.931 C 345.717 317.124,346.400 316.251,346.400 315.992 C 346.400 315.733,346.940 315.017,347.600 314.400 C 348.260 313.783,348.800 313.063,348.800 312.800 C 348.800 312.537,349.340 311.817,350.000 311.200 C 350.660 310.583,351.200 309.791,351.200 309.440 C 351.200 309.088,351.373 308.800,351.585 308.800 C 351.797 308.800,352.728 307.675,353.655 306.300 C 354.582 304.925,355.457 303.710,355.600 303.600 C 355.743 303.490,356.296 302.590,356.830 301.600 C 357.363 300.610,358.025 299.562,358.300 299.271 C 358.575 298.981,358.800 298.435,358.800 298.060 C 358.800 297.684,359.160 297.117,359.600 296.800 C 360.040 296.483,360.400 295.903,360.400 295.512 C 360.400 295.120,360.580 294.800,360.800 294.800 C 361.020 294.800,361.200 294.440,361.200 294.000 C 361.200 293.560,361.380 293.200,361.600 293.200 C 361.820 293.200,362.000 292.906,362.000 292.547 C 362.000 292.188,362.329 291.603,362.730 291.247 C 363.132 290.891,363.716 290.015,364.028 289.300 C 364.340 288.585,364.731 288.000,364.898 288.000 C 365.064 288.000,365.200 287.640,365.200 287.200 C 365.200 286.760,365.380 286.400,365.600 286.400 C 365.820 286.400,366.000 286.040,366.000 285.600 C 366.000 285.160,366.180 284.800,366.400 284.800 C 366.620 284.800,366.800 284.440,366.800 284.000 C 366.800 283.560,366.980 283.200,367.200 283.200 C 367.420 283.200,367.600 282.840,367.600 282.400 C 367.600 281.960,367.780 281.600,368.000 281.600 C 368.220 281.600,368.400 281.240,368.400 280.800 C 368.400 280.360,368.580 280.000,368.800 280.000 C 369.020 280.000,369.200 279.640,369.200 279.200 C 369.200 278.760,369.380 278.400,369.600 278.400 C 369.820 278.400,370.000 278.128,370.000 277.795 C 370.000 277.462,370.160 276.877,370.356 276.495 C 370.836 275.560,372.406 272.040,372.897 270.800 C 373.115 270.250,373.452 269.487,373.647 269.105 C 373.841 268.723,374.000 268.048,374.000 267.605 C 374.000 267.162,374.174 266.800,374.386 266.800 C 374.599 266.800,374.892 265.900,375.038 264.800 C 375.184 263.700,375.460 262.800,375.652 262.800 C 375.843 262.800,376.000 262.260,376.000 261.600 C 376.000 260.940,376.180 260.400,376.400 260.400 C 376.620 260.400,376.800 259.961,376.800 259.424 C 376.800 258.887,376.980 258.336,377.200 258.200 C 377.420 258.064,377.600 257.513,377.600 256.976 C 377.600 256.439,377.780 256.000,378.000 256.000 C 378.220 256.000,378.400 255.460,378.400 254.800 C 378.400 254.140,378.580 253.600,378.800 253.600 C 379.020 253.600,379.200 252.880,379.200 252.000 C 379.200 251.120,379.380 250.400,379.600 250.400 C 379.820 250.400,380.000 249.871,380.000 249.224 C 380.000 248.577,380.180 247.936,380.400 247.800 C 380.620 247.664,380.800 246.933,380.800 246.176 C 380.800 245.419,380.980 244.800,381.200 244.800 C 381.420 244.800,381.600 244.001,381.600 243.024 C 381.600 242.047,381.780 241.136,382.000 241.000 C 382.220 240.864,382.400 240.054,382.400 239.200 C 382.400 238.346,382.580 237.536,382.800 237.400 C 383.020 237.264,383.200 236.263,383.200 235.176 C 383.200 234.089,383.380 233.200,383.600 233.200 C 383.822 233.200,384.000 232.133,384.000 230.800 C 384.000 229.467,384.178 228.400,384.400 228.400 C 384.631 228.400,384.800 227.133,384.800 225.400 C 384.800 223.667,384.969 222.400,385.200 222.400 C 385.440 222.400,385.600 220.808,385.600 218.424 C 385.600 216.204,385.777 214.338,386.000 214.200 C 386.248 214.047,386.400 210.463,386.400 204.776 C 386.400 198.925,386.255 195.600,386.000 195.600 C 385.780 195.600,385.600 195.238,385.600 194.795 C 385.600 193.835,384.923 192.582,383.731 191.335 C 383.253 190.835,382.746 190.060,382.604 189.613 C 382.462 189.166,382.038 188.800,381.661 188.800 C 381.285 188.800,380.717 188.440,380.400 188.000 C 380.083 187.560,379.503 187.200,379.112 187.200 C 378.720 187.200,378.400 187.020,378.400 186.800 C 378.400 186.580,378.040 186.400,377.600 186.400 C 377.160 186.400,376.800 186.220,376.800 186.000 C 376.800 185.780,376.181 185.600,375.424 185.600 C 374.667 185.600,373.936 185.420,373.800 185.200 C 373.664 184.980,372.584 184.800,371.400 184.800 C 370.216 184.800,369.136 184.980,369.000 185.200 " stroke="none" fill="#fcfcfc" fill-rule="evenodd"></path><path id="path1" d="M200.000 79.009 L 200.000 87.217 201.100 87.658 C 203.575 88.651,204.241 89.041,205.100 89.997 C 205.594 90.549,205.999 91.315,206.000 91.700 C 206.000 92.085,206.180 92.400,206.400 92.400 C 206.642 92.400,206.800 94.133,206.800 96.800 C 206.800 100.444,206.697 101.200,206.200 101.200 C 205.870 101.200,205.600 101.020,205.600 100.800 C 205.600 100.574,204.459 100.400,202.976 100.400 C 201.329 100.400,200.445 100.549,200.600 100.800 C 200.736 101.020,200.657 101.200,200.424 101.200 C 200.139 101.200,200.000 103.895,200.000 109.400 L 200.000 117.600 203.800 117.600 C 206.067 117.600,207.600 117.761,207.600 118.000 C 207.600 118.220,208.399 118.400,209.376 118.400 C 210.353 118.400,211.264 118.580,211.400 118.800 C 211.536 119.020,212.436 119.200,213.400 119.200 C 214.364 119.200,215.264 119.380,215.400 119.600 C 215.536 119.820,216.087 120.000,216.624 120.000 C 217.161 120.000,217.600 120.180,217.600 120.400 C 217.600 120.620,218.320 120.800,219.200 120.800 C 220.080 120.800,220.800 120.980,220.800 121.200 C 220.800 121.420,221.160 121.600,221.600 121.600 C 222.040 121.600,222.400 121.780,222.400 122.000 C 222.400 122.220,222.940 122.400,223.600 122.400 C 224.260 122.400,224.800 122.580,224.800 122.800 C 224.800 123.020,225.145 123.200,225.567 123.200 C 225.988 123.200,226.393 123.335,226.467 123.500 C 226.637 123.884,229.469 125.200,230.125 125.200 C 230.399 125.200,230.883 125.560,231.200 126.000 C 231.517 126.440,232.057 126.800,232.400 126.800 C 232.743 126.800,233.283 127.160,233.600 127.600 C 233.917 128.040,234.457 128.400,234.800 128.400 C 235.143 128.400,235.683 128.760,236.000 129.200 C 236.317 129.640,236.806 130.000,237.086 130.000 C 237.366 130.000,238.692 131.080,240.032 132.400 C 242.733 135.059,243.885 135.505,243.394 133.700 C 242.914 131.933,242.707 125.536,243.101 124.630 C 244.269 121.943,245.343 120.039,246.367 118.839 C 247.525 117.482,247.569 116.731,246.551 115.700 C 246.279 115.425,245.814 115.200,245.517 115.200 C 245.220 115.200,244.717 114.840,244.400 114.400 C 244.083 113.960,243.543 113.600,243.200 113.600 C 242.857 113.600,242.317 113.240,242.000 112.800 C 241.683 112.360,241.193 112.000,240.912 112.000 C 240.630 112.000,240.400 111.841,240.400 111.647 C 240.400 111.327,236.167 109.033,235.533 109.010 C 235.387 109.004,235.132 108.865,234.967 108.700 C 234.802 108.535,234.337 108.400,233.933 108.400 C 233.530 108.400,233.200 108.220,233.200 108.000 C 233.200 107.780,232.840 107.600,232.400 107.600 C 231.960 107.600,231.600 107.420,231.600 107.200 C 231.600 106.980,231.060 106.800,230.400 106.800 C 229.740 106.800,229.200 106.620,229.200 106.400 C 229.200 106.180,228.840 106.000,228.400 106.000 C 227.960 106.000,227.600 105.820,227.600 105.600 C 227.600 105.380,227.060 105.200,226.400 105.200 C 225.740 105.200,225.200 105.020,225.200 104.800 C 225.200 104.580,224.795 104.399,224.300 104.397 L 223.400 104.394 223.336 96.181 C 223.301 91.664,223.102 87.751,222.894 87.484 C 222.686 87.218,222.271 86.145,221.971 85.100 C 221.671 84.055,221.285 83.200,221.113 83.200 C 220.941 83.200,220.800 82.964,220.800 82.675 C 220.800 82.387,220.440 81.764,220.000 81.292 C 219.560 80.820,219.200 80.273,219.200 80.076 C 219.200 79.579,216.881 77.200,216.397 77.200 C 216.178 77.200,216.000 76.900,216.000 76.533 C 216.000 76.167,215.889 75.978,215.752 76.114 C 215.616 76.250,215.242 76.099,214.920 75.777 C 214.599 75.456,214.203 75.275,214.041 75.375 C 213.878 75.475,213.493 75.207,213.185 74.779 C 212.876 74.350,212.343 74.000,212.000 74.000 C 211.657 74.000,211.117 73.640,210.800 73.200 C 210.483 72.760,209.813 72.400,209.312 72.400 C 208.810 72.400,208.400 72.220,208.400 72.000 C 208.400 71.780,208.051 71.600,207.624 71.600 C 207.197 71.600,206.736 71.420,206.600 71.200 C 206.464 70.980,204.923 70.800,203.176 70.800 L 200.000 70.800 200.000 79.009 M176.551 98.400 C 176.551 100.930,176.616 101.965,176.696 100.700 C 176.775 99.435,176.775 97.365,176.696 96.100 C 176.616 94.835,176.551 95.870,176.551 98.400 M194.400 100.800 C 194.400 101.301,194.824 101.301,195.600 100.800 C 196.085 100.486,196.028 100.411,195.300 100.406 C 194.805 100.403,194.400 100.580,194.400 100.800 M266.938 108.217 C 266.602 109.094,266.875 109.223,268.220 108.821 C 268.869 108.627,269.085 108.453,268.700 108.434 C 268.315 108.415,268.000 108.220,268.000 108.000 C 268.000 107.370,267.200 107.534,266.938 108.217 M264.000 141.648 C 259.936 143.066,259.351 143.200,257.218 143.200 C 255.085 143.200,252.130 142.554,251.420 141.933 C 250.987 141.553,248.800 141.476,248.800 141.840 C 248.800 141.971,249.340 142.583,250.000 143.200 C 250.660 143.817,251.200 144.569,251.200 144.872 C 251.200 145.175,251.560 145.683,252.000 146.000 C 252.440 146.317,252.800 146.897,252.800 147.288 C 252.800 147.680,252.980 148.000,253.200 148.000 C 253.420 148.000,253.600 148.360,253.600 148.800 C 253.600 149.240,253.780 149.600,254.000 149.600 C 254.220 149.600,254.400 149.920,254.400 150.312 C 254.400 150.703,254.760 151.283,255.200 151.600 C 255.670 151.939,256.000 152.635,256.000 153.288 C 256.000 153.900,256.180 154.400,256.400 154.400 C 256.620 154.400,256.800 154.760,256.800 155.200 C 256.800 155.640,256.935 156.001,257.100 156.003 C 257.570 156.008,258.400 158.049,258.400 159.200 C 258.400 159.772,258.616 160.456,258.880 160.720 C 259.144 160.984,259.212 161.200,259.031 161.200 C 258.850 161.200,258.902 161.440,259.146 161.734 C 259.389 162.028,259.677 162.973,259.785 163.834 C 260.050 165.951,260.614 168.576,260.905 169.046 C 261.036 169.258,261.182 170.864,261.230 172.616 C 261.278 174.367,261.465 175.897,261.645 176.015 C 261.826 176.134,262.057 185.314,262.160 196.415 C 262.349 216.887,262.567 222.296,263.231 222.980 C 263.434 223.189,263.600 224.494,263.600 225.880 C 263.600 227.293,263.776 228.400,264.000 228.400 C 264.220 228.400,264.400 229.109,264.400 229.976 C 264.400 230.843,264.580 231.664,264.800 231.800 C 265.020 231.936,265.200 232.759,265.200 233.629 C 265.200 234.499,265.358 235.523,265.551 235.905 C 266.185 237.160,266.800 239.437,266.800 240.528 C 266.800 241.118,266.980 241.600,267.200 241.600 C 267.420 241.600,267.600 242.140,267.600 242.800 C 267.600 243.460,267.780 244.000,268.000 244.000 C 268.220 244.000,268.400 244.540,268.400 245.200 C 268.400 245.860,268.580 246.400,268.800 246.400 C 269.020 246.400,269.200 246.940,269.200 247.600 C 269.200 248.260,269.380 248.800,269.600 248.800 C 269.820 248.800,270.000 249.340,270.000 250.000 C 270.000 250.660,270.180 251.200,270.400 251.200 C 270.620 251.200,270.800 251.560,270.800 252.000 C 270.800 252.440,270.980 252.800,271.200 252.800 C 271.420 252.800,271.600 253.340,271.600 254.000 C 271.600 254.660,271.780 255.200,272.000 255.200 C 272.220 255.200,272.400 255.560,272.400 256.000 C 272.400 256.440,272.580 256.800,272.800 256.800 C 273.020 256.800,273.200 257.070,273.200 257.400 C 273.200 257.730,273.380 258.000,273.600 258.000 C 273.820 258.000,274.000 258.540,274.000 259.200 C 274.000 259.860,274.180 260.400,274.400 260.400 C 274.620 260.400,274.800 260.760,274.800 261.200 C 274.800 261.640,275.010 262.000,275.267 262.000 C 275.523 262.000,275.626 262.108,275.494 262.240 C 275.262 262.471,276.242 264.748,277.457 266.800 C 277.783 267.350,278.149 268.115,278.271 268.500 C 278.393 268.885,278.652 269.200,278.847 269.200 C 279.041 269.200,279.200 269.560,279.200 270.000 C 279.200 270.440,279.336 270.800,279.502 270.800 C 279.669 270.800,280.029 271.306,280.303 271.925 C 280.576 272.544,281.160 273.436,281.600 273.908 C 282.040 274.380,282.400 275.004,282.400 275.295 C 282.400 275.586,282.760 276.083,283.200 276.400 C 283.640 276.717,284.000 277.257,284.000 277.600 C 284.000 277.943,284.360 278.483,284.800 278.800 C 285.240 279.117,285.600 279.657,285.600 280.000 C 285.600 280.343,285.960 280.883,286.400 281.200 C 286.840 281.517,287.200 281.917,287.200 282.088 C 287.200 282.260,267.580 282.400,243.600 282.400 L 200.000 282.400 200.000 290.367 C 200.000 294.749,200.109 298.619,200.243 298.967 C 200.455 299.519,201.679 299.600,209.843 299.600 C 220.315 299.600,221.043 299.946,217.500 303.243 C 217.115 303.601,216.800 304.102,216.800 304.357 C 216.800 305.043,213.321 308.400,212.611 308.400 C 212.275 308.400,211.999 308.535,211.997 308.700 C 211.994 309.102,209.681 310.400,208.968 310.400 C 208.655 310.400,208.400 310.580,208.400 310.800 C 208.400 311.020,207.961 311.200,207.424 311.200 C 206.887 311.200,206.336 311.380,206.200 311.600 C 206.064 311.820,205.164 312.000,204.200 312.000 C 203.236 312.000,202.336 312.180,202.200 312.400 C 202.064 312.620,201.513 312.800,200.976 312.800 L 200.000 312.800 200.000 321.000 L 200.000 329.200 203.976 329.200 C 206.196 329.200,208.062 329.023,208.200 328.800 C 208.336 328.580,208.887 328.400,209.424 328.400 C 209.961 328.400,210.400 328.220,210.400 328.000 C 210.400 327.780,210.940 327.600,211.600 327.600 C 212.260 327.600,212.800 327.420,212.800 327.200 C 212.800 326.980,213.340 326.800,214.000 326.800 C 214.660 326.800,215.200 326.620,215.200 326.400 C 215.200 326.180,215.560 326.000,216.000 326.000 C 216.440 326.000,216.800 325.840,216.800 325.645 C 216.800 325.449,217.398 325.177,218.130 325.040 C 218.861 324.902,219.844 324.432,220.313 323.995 C 220.783 323.558,221.309 323.200,221.483 323.200 C 221.657 323.199,222.284 322.782,222.876 322.273 C 223.468 321.764,224.413 321.002,224.976 320.579 C 225.539 320.156,226.000 319.553,226.000 319.238 C 226.000 318.924,226.107 318.774,226.239 318.905 C 226.542 319.208,230.000 315.775,230.000 315.171 C 230.000 314.923,230.540 314.217,231.200 313.600 C 231.860 312.983,232.400 312.274,232.400 312.023 C 232.400 311.772,232.760 311.180,233.200 310.708 C 233.640 310.236,234.000 309.613,234.000 309.325 C 234.000 309.036,234.180 308.800,234.400 308.800 C 234.620 308.800,234.800 308.440,234.800 308.000 C 234.800 307.560,234.980 307.200,235.200 307.200 C 235.420 307.200,235.600 306.750,235.600 306.200 C 235.600 305.650,235.780 305.200,236.000 305.200 C 236.220 305.200,236.400 304.761,236.400 304.224 C 236.400 303.687,236.580 303.136,236.800 303.000 C 237.020 302.864,237.200 302.043,237.200 301.176 L 237.200 299.600 272.200 299.600 C 295.267 299.600,307.200 299.464,307.200 299.200 C 307.200 298.980,307.654 298.800,308.209 298.800 C 308.898 298.800,309.912 298.105,311.409 296.609 L 313.600 294.417 313.600 290.809 C 313.600 288.670,313.437 287.200,313.200 287.200 C 312.980 287.200,312.800 286.954,312.800 286.654 C 312.800 286.353,311.855 285.101,310.700 283.870 C 309.545 282.640,308.202 281.131,307.715 280.517 C 305.616 277.867,304.179 276.191,303.900 276.067 C 303.735 275.993,303.600 275.751,303.600 275.527 C 303.600 275.304,303.060 274.617,302.400 274.000 C 301.740 273.383,301.200 272.663,301.200 272.400 C 301.200 272.137,300.660 271.417,300.000 270.800 C 299.340 270.183,298.800 269.431,298.800 269.128 C 298.800 268.825,298.440 268.317,298.000 268.000 C 297.560 267.683,297.200 267.103,297.200 266.712 C 297.200 266.320,297.020 266.000,296.800 266.000 C 296.580 266.000,296.400 265.680,296.400 265.288 C 296.400 264.897,296.040 264.317,295.600 264.000 C 295.160 263.683,294.800 263.103,294.800 262.712 C 294.800 262.320,294.620 262.000,294.400 262.000 C 294.180 262.000,294.000 261.640,294.000 261.200 C 294.000 260.760,293.820 260.400,293.600 260.400 C 293.380 260.400,293.200 260.170,293.200 259.888 C 293.200 259.607,292.840 259.117,292.400 258.800 C 291.960 258.483,291.600 257.847,291.600 257.387 C 291.600 256.926,291.124 255.571,290.541 254.375 C 289.959 253.179,289.479 251.975,289.474 251.700 C 289.470 251.425,289.317 251.200,289.133 251.200 C 288.950 251.200,288.800 250.840,288.800 250.400 C 288.800 249.960,288.653 249.600,288.472 249.600 C 288.292 249.600,287.900 248.700,287.600 247.600 C 287.300 246.500,286.908 245.600,286.728 245.600 C 286.547 245.600,286.400 245.274,286.400 244.875 C 286.400 244.476,286.040 243.405,285.600 242.494 C 285.160 241.584,284.800 240.380,284.800 239.819 C 284.800 239.259,284.620 238.800,284.400 238.800 C 284.180 238.800,284.000 238.260,284.000 237.600 C 284.000 236.940,283.820 236.400,283.600 236.400 C 283.380 236.400,283.200 235.860,283.200 235.200 C 283.200 234.540,283.020 234.000,282.800 234.000 C 282.580 234.000,282.400 233.201,282.400 232.224 C 282.400 231.247,282.220 230.336,282.000 230.200 C 281.780 230.064,281.600 229.333,281.600 228.576 C 281.600 227.819,281.420 227.200,281.200 227.200 C 280.978 227.200,280.800 226.133,280.800 224.800 C 280.800 223.467,280.622 222.400,280.400 222.400 C 280.180 222.400,280.000 221.410,280.000 220.200 C 280.000 218.990,279.820 218.000,279.600 218.000 C 279.354 218.000,279.200 216.000,279.200 212.800 C 279.200 209.600,279.046 207.600,278.800 207.600 C 278.539 207.600,278.400 200.800,278.400 188.000 C 278.400 175.200,278.261 168.400,278.000 168.400 C 277.780 168.400,277.600 167.500,277.600 166.400 C 277.600 165.300,277.420 164.400,277.200 164.400 C 276.980 164.400,276.800 163.410,276.800 162.200 C 276.800 160.990,276.620 160.000,276.400 160.000 C 276.180 160.000,276.000 159.460,276.000 158.800 C 276.000 158.140,275.845 157.600,275.656 157.600 C 275.466 157.600,275.201 156.669,275.066 155.531 C 274.932 154.392,274.636 153.276,274.411 153.051 C 274.185 152.825,274.000 152.237,274.000 151.744 C 274.000 151.251,273.820 150.736,273.600 150.600 C 273.380 150.464,273.200 150.003,273.200 149.576 C 273.200 149.149,273.020 148.800,272.800 148.800 C 272.580 148.800,272.400 148.510,272.400 148.154 C 272.400 147.799,272.064 146.854,271.653 146.054 C 271.242 145.255,270.658 144.060,270.355 143.400 C 269.111 140.684,267.797 140.322,264.000 141.648 " stroke="none" fill="#fcfc4d" fill-rule="evenodd"></path><path id="path2" d="M193.800 71.200 C 193.664 71.420,193.203 71.600,192.776 71.600 C 192.349 71.600,192.000 71.780,192.000 72.000 C 192.000 72.220,191.640 72.400,191.200 72.400 C 190.760 72.400,190.400 72.580,190.400 72.800 C 190.400 73.020,190.040 73.200,189.600 73.200 C 189.160 73.200,188.800 73.380,188.800 73.600 C 188.800 73.820,188.440 74.000,188.000 74.000 C 187.560 74.000,187.200 74.150,187.200 74.332 C 187.200 74.515,186.705 74.920,186.100 75.232 C 184.745 75.932,181.604 78.850,181.602 79.412 C 181.601 79.638,181.240 80.083,180.800 80.400 C 180.360 80.717,180.000 81.224,180.000 81.527 C 180.000 81.829,179.674 82.554,179.275 83.138 C 178.876 83.722,178.303 85.010,178.002 86.000 C 177.702 86.990,177.327 87.980,177.170 88.200 C 177.013 88.420,176.885 89.500,176.886 90.600 C 176.895 102.304,176.791 104.400,176.200 104.400 C 175.870 104.400,175.600 104.580,175.600 104.800 C 175.600 105.020,174.981 105.200,174.224 105.200 C 173.467 105.200,172.736 105.380,172.600 105.600 C 172.464 105.820,172.003 106.000,171.576 106.000 C 171.149 106.000,170.800 106.180,170.800 106.400 C 170.800 106.620,170.350 106.800,169.800 106.800 C 169.250 106.800,168.800 106.980,168.800 107.200 C 168.800 107.420,168.339 107.600,167.776 107.600 C 167.196 107.600,166.860 107.773,167.000 108.000 C 167.136 108.220,166.905 108.400,166.487 108.400 C 166.068 108.400,164.933 108.840,163.963 109.378 C 162.993 109.915,161.390 110.769,160.400 111.275 C 159.410 111.781,158.330 112.467,158.000 112.800 C 157.670 113.133,156.905 113.660,156.300 113.970 C 155.695 114.281,155.200 114.685,155.200 114.868 C 155.200 115.050,154.912 115.200,154.560 115.200 C 154.209 115.200,153.417 115.740,152.800 116.400 C 152.183 117.060,151.526 117.601,151.340 117.602 C 151.153 117.603,149.871 118.683,148.492 120.002 C 147.113 121.321,145.851 122.400,145.688 122.400 C 145.313 122.400,144.202 124.100,144.315 124.500 C 144.362 124.665,144.265 124.779,144.100 124.753 C 143.261 124.620,142.855 124.898,142.423 125.900 C 142.162 126.505,141.249 127.540,140.393 128.200 C 139.537 128.860,138.829 129.598,138.819 129.841 C 138.808 130.083,138.260 130.846,137.600 131.537 C 136.940 132.228,136.400 132.974,136.400 133.196 C 136.400 133.418,136.220 133.600,136.000 133.600 C 135.780 133.600,135.600 133.830,135.600 134.112 C 135.600 134.393,135.240 134.883,134.800 135.200 C 134.360 135.517,134.000 136.097,134.000 136.488 C 134.000 136.880,133.820 137.200,133.600 137.200 C 133.380 137.200,133.200 137.470,133.200 137.800 C 133.200 138.130,133.020 138.400,132.800 138.400 C 132.580 138.400,132.400 138.670,132.400 139.000 C 132.400 139.330,132.220 139.600,132.000 139.600 C 131.780 139.600,131.600 139.960,131.600 140.400 C 131.600 140.840,131.420 141.200,131.200 141.200 C 130.980 141.200,130.800 141.560,130.800 142.000 C 130.800 142.440,130.650 142.800,130.468 142.800 C 130.285 142.800,129.939 143.205,129.700 143.700 C 128.233 146.732,127.200 149.229,127.200 149.742 C 127.200 150.067,127.025 150.393,126.812 150.467 C 126.598 150.540,126.368 150.960,126.300 151.400 C 126.232 151.840,126.046 152.409,125.887 152.664 C 125.727 152.920,125.558 153.595,125.511 154.164 C 125.464 154.734,125.285 155.200,125.113 155.200 C 124.941 155.200,124.800 155.729,124.800 156.376 C 124.800 157.023,124.620 157.664,124.400 157.800 C 124.180 157.936,124.000 158.566,124.000 159.200 C 124.000 159.834,123.820 160.464,123.600 160.600 C 123.380 160.736,123.200 161.647,123.200 162.624 C 123.200 163.601,123.020 164.400,122.800 164.400 C 122.576 164.400,122.400 165.507,122.400 166.920 C 122.400 168.306,122.224 169.616,122.008 169.832 C 121.768 170.072,121.541 177.538,121.425 189.012 C 121.208 210.378,120.922 218.400,120.378 218.400 C 120.170 218.400,120.000 219.480,120.000 220.800 C 120.000 222.120,119.864 223.200,119.698 223.200 C 119.531 223.200,119.340 224.235,119.272 225.500 C 119.204 226.765,118.980 227.860,118.774 227.933 C 118.568 228.007,118.400 228.581,118.400 229.210 C 118.400 229.838,118.220 230.464,118.000 230.600 C 117.780 230.736,117.600 231.469,117.600 232.229 C 117.600 232.989,117.442 233.923,117.249 234.305 C 116.660 235.472,116.000 237.808,116.000 238.728 C 116.000 239.208,115.820 239.600,115.600 239.600 C 115.380 239.600,115.200 240.140,115.200 240.800 C 115.200 241.460,114.990 242.000,114.733 242.000 C 114.477 242.000,114.382 242.115,114.523 242.256 C 114.664 242.397,114.532 242.982,114.230 243.556 C 113.929 244.130,113.455 245.365,113.177 246.300 C 112.899 247.235,112.521 248.000,112.336 248.000 C 112.151 248.000,111.994 248.315,111.986 248.700 C 111.979 249.085,111.625 250.120,111.200 251.000 C 110.775 251.880,110.421 252.736,110.414 252.902 C 110.406 253.068,109.950 254.137,109.400 255.277 C 108.850 256.417,108.400 257.586,108.400 257.875 C 108.400 258.164,108.248 258.400,108.063 258.400 C 107.877 258.400,107.292 259.255,106.763 260.300 C 106.233 261.345,105.665 262.260,105.500 262.333 C 105.335 262.407,105.200 262.722,105.200 263.033 C 105.200 263.345,105.020 263.600,104.800 263.600 C 104.580 263.600,104.400 263.870,104.400 264.200 C 104.400 264.530,104.220 264.800,104.000 264.800 C 103.780 264.800,103.600 265.070,103.600 265.400 C 103.600 265.730,103.420 266.000,103.200 266.000 C 102.980 266.000,102.800 266.320,102.800 266.712 C 102.800 267.103,102.440 267.683,102.000 268.000 C 99.452 269.837,103.569 269.343,108.600 267.208 C 109.040 267.021,112.640 265.822,116.600 264.543 C 124.020 262.147,126.000 261.018,126.000 259.181 C 126.000 258.778,126.180 258.336,126.400 258.200 C 126.620 258.064,126.800 257.603,126.800 257.176 C 126.800 256.749,126.980 256.400,127.200 256.400 C 127.420 256.400,127.600 256.051,127.600 255.624 C 127.600 255.197,127.780 254.736,128.000 254.600 C 128.220 254.464,128.400 253.913,128.400 253.376 C 128.400 252.839,128.580 252.400,128.800 252.400 C 129.020 252.400,129.200 251.950,129.200 251.400 C 129.200 250.850,129.380 250.400,129.600 250.400 C 129.820 250.400,130.000 250.038,130.000 249.595 C 130.000 249.152,130.180 248.432,130.400 247.995 C 130.620 247.558,130.980 246.842,131.200 246.405 C 131.420 245.968,131.600 245.068,131.600 244.405 C 131.600 243.742,131.780 243.200,132.000 243.200 C 132.220 243.200,132.400 242.761,132.400 242.224 C 132.400 241.687,132.580 241.136,132.800 241.000 C 133.020 240.864,133.200 240.221,133.200 239.571 C 133.200 238.921,133.358 238.077,133.551 237.695 C 134.218 236.374,134.800 234.138,134.800 232.895 C 134.800 232.209,134.980 231.536,135.200 231.400 C 135.420 231.264,135.600 230.353,135.600 229.376 C 135.600 228.399,135.749 227.600,135.932 227.600 C 136.114 227.600,136.305 226.570,136.356 225.312 C 136.407 224.053,136.596 222.838,136.776 222.612 C 136.956 222.385,137.133 220.769,137.169 219.021 C 137.205 217.272,137.400 215.642,137.602 215.398 C 137.814 215.142,137.979 206.767,137.992 195.627 C 138.005 184.997,138.098 176.165,138.199 176.001 C 138.301 175.836,138.491 174.194,138.620 172.351 C 138.750 170.508,139.012 168.640,139.201 168.200 C 139.390 167.760,139.631 166.860,139.735 166.200 C 140.379 162.114,141.646 157.898,143.143 154.862 C 143.614 153.906,144.000 152.886,144.000 152.596 C 144.000 152.305,144.135 152.007,144.300 151.933 C 144.465 151.860,145.033 150.945,145.563 149.900 C 146.092 148.855,146.677 148.000,146.863 148.000 C 147.048 148.000,147.200 147.640,147.200 147.200 C 147.200 146.760,147.358 146.400,147.551 146.400 C 147.745 146.400,148.127 145.860,148.400 145.200 C 148.673 144.540,149.025 144.000,149.181 144.000 C 149.337 144.000,149.720 143.511,150.032 142.914 C 151.163 140.749,161.754 130.000,162.756 130.000 C 162.935 130.000,163.646 129.460,164.337 128.800 C 165.028 128.140,165.782 127.600,166.013 127.600 C 166.244 127.600,166.820 127.240,167.292 126.800 C 167.764 126.360,168.387 126.000,168.675 126.000 C 168.964 126.000,169.200 125.820,169.200 125.600 C 169.200 125.380,169.560 125.200,170.000 125.200 C 170.440 125.200,170.800 125.034,170.800 124.832 C 170.800 124.629,171.338 124.345,171.995 124.201 C 172.653 124.057,173.294 123.772,173.419 123.569 C 173.545 123.366,173.997 123.200,174.424 123.200 C 174.851 123.200,175.200 123.020,175.200 122.800 C 175.200 122.580,175.472 122.400,175.804 122.400 C 176.137 122.400,177.172 122.064,178.104 121.652 C 179.037 121.241,180.610 120.680,181.600 120.406 C 182.590 120.132,183.850 119.753,184.400 119.565 C 184.950 119.376,185.888 119.164,186.485 119.093 C 187.082 119.022,187.697 118.837,187.852 118.682 C 188.007 118.527,188.903 118.400,189.843 118.400 C 190.783 118.400,191.664 118.220,191.800 118.000 C 191.938 117.777,193.804 117.600,196.024 117.600 L 200.000 117.600 200.000 109.400 C 200.000 103.895,200.139 101.200,200.424 101.200 C 200.657 101.200,200.748 101.039,200.626 100.841 C 200.393 100.466,196.724 100.577,194.500 101.027 L 193.200 101.291 193.200 96.445 C 193.200 93.780,193.359 91.600,193.553 91.600 C 193.748 91.600,193.994 91.267,194.100 90.861 C 194.347 89.917,196.878 87.975,197.967 87.892 C 198.425 87.858,198.800 87.688,198.800 87.515 C 198.800 87.342,199.070 87.200,199.400 87.200 C 199.914 87.200,200.000 86.022,200.000 79.000 L 200.000 70.800 197.024 70.800 C 195.387 70.800,193.936 70.980,193.800 71.200 M246.644 118.457 C 245.553 119.732,243.599 122.895,243.605 123.378 C 243.607 123.610,244.071 122.990,244.635 122.000 C 245.198 121.010,245.979 119.840,246.370 119.400 C 247.135 118.539,247.731 117.600,247.513 117.600 C 247.438 117.600,247.047 117.986,246.644 118.457 M242.956 124.971 C 242.835 125.285,242.804 125.960,242.886 126.471 C 242.995 127.154,243.088 127.004,243.237 125.900 C 243.447 124.347,243.336 123.981,242.956 124.971 M242.806 131.033 C 242.809 131.675,242.996 132.470,243.221 132.800 C 243.514 133.230,243.554 132.946,243.362 131.800 C 243.030 129.816,242.798 129.496,242.806 131.033 M243.446 134.624 C 243.130 135.448,243.460 135.900,243.990 135.370 C 244.197 135.163,244.219 134.755,244.039 134.463 C 243.782 134.046,243.655 134.081,243.446 134.624 M248.800 141.200 C 248.800 141.420,249.295 141.597,249.900 141.594 C 250.757 141.589,250.868 141.502,250.400 141.200 C 249.617 140.694,248.800 140.694,248.800 141.200 M253.915 142.872 C 254.847 143.242,259.689 143.259,260.262 142.894 C 260.516 142.732,259.038 142.600,256.977 142.600 C 254.916 142.600,253.538 142.722,253.915 142.872 M152.200 283.050 C 150.898 284.065,147.633 285.487,144.000 286.621 C 142.130 287.205,139.700 288.011,138.600 288.413 C 137.500 288.814,135.880 289.358,135.000 289.621 C 134.120 289.883,133.087 290.256,132.705 290.449 C 132.323 290.642,131.659 290.800,131.229 290.800 C 130.799 290.800,130.336 290.980,130.200 291.200 C 130.064 291.420,129.524 291.600,129.000 291.600 C 128.476 291.600,127.936 291.780,127.800 292.000 C 127.664 292.220,127.124 292.400,126.600 292.400 C 126.076 292.400,125.536 292.580,125.400 292.800 C 125.264 293.020,124.724 293.200,124.200 293.200 C 123.676 293.200,123.136 293.380,123.000 293.600 C 122.864 293.820,122.324 294.000,121.800 294.000 C 121.276 294.000,120.736 294.180,120.600 294.400 C 120.464 294.620,119.924 294.800,119.400 294.800 C 118.876 294.800,118.336 294.980,118.200 295.200 C 118.064 295.420,117.524 295.600,117.000 295.600 C 116.476 295.600,115.936 295.780,115.800 296.000 C 115.664 296.220,115.124 296.400,114.600 296.400 C 114.076 296.400,113.558 296.544,113.449 296.721 C 113.340 296.897,112.339 297.290,111.225 297.593 C 110.111 297.896,109.200 298.292,109.200 298.472 C 109.200 298.653,108.750 298.800,108.200 298.800 C 107.650 298.800,107.200 298.980,107.200 299.200 C 107.200 299.463,116.733 299.600,135.000 299.600 L 162.800 299.600 162.800 300.551 C 162.800 301.074,163.063 302.131,163.384 302.900 C 163.705 303.669,163.855 304.411,163.717 304.549 C 163.580 304.687,163.677 304.800,163.933 304.800 C 164.190 304.800,164.400 305.150,164.400 305.577 C 164.400 306.384,165.938 309.300,166.487 309.533 C 166.659 309.607,166.800 310.012,166.800 310.433 C 166.800 310.855,166.968 311.200,167.173 311.200 C 167.378 311.200,167.662 311.566,167.804 312.013 C 167.946 312.460,168.453 313.226,168.931 313.716 C 169.409 314.205,170.273 315.234,170.852 316.003 C 172.054 317.600,174.400 320.098,174.400 319.781 C 174.400 319.545,175.182 320.161,176.519 321.449 C 177.749 322.634,181.898 325.200,182.584 325.200 C 182.897 325.200,183.264 325.380,183.400 325.600 C 183.536 325.820,184.087 326.000,184.624 326.000 C 185.161 326.000,185.600 326.180,185.600 326.400 C 185.600 326.620,185.960 326.800,186.400 326.800 C 186.840 326.800,187.200 326.980,187.200 327.200 C 187.200 327.420,187.729 327.600,188.376 327.600 C 189.023 327.600,189.664 327.780,189.800 328.000 C 189.936 328.220,190.487 328.400,191.024 328.400 C 191.561 328.400,192.000 328.580,192.000 328.800 C 192.000 329.040,193.600 329.200,196.000 329.200 L 200.000 329.200 200.000 321.045 L 200.000 312.891 198.900 312.685 C 198.295 312.572,196.749 312.288,195.464 312.055 C 193.102 311.625,187.600 309.287,187.600 308.712 C 187.600 308.540,187.210 308.400,186.733 308.400 C 186.257 308.400,185.977 308.289,186.113 308.154 C 186.248 308.019,185.513 307.074,184.479 306.054 C 183.446 305.034,182.345 303.705,182.032 303.100 C 181.720 302.495,181.315 302.000,181.132 302.000 C 180.950 302.000,180.800 301.539,180.800 300.976 C 180.800 300.396,180.627 300.060,180.400 300.200 C 180.180 300.336,180.000 300.257,180.000 300.024 C 180.000 299.736,183.300 299.600,190.243 299.600 C 199.419 299.600,200.460 299.534,200.243 298.967 C 200.109 298.619,200.000 294.749,200.000 290.367 L 200.000 282.400 176.500 282.413 C 155.828 282.424,152.904 282.501,152.200 283.050 " stroke="none" fill="#fcfc9b" fill-rule="evenodd"></path><path id="path3" d="M242.901 128.600 C 242.905 129.480,242.987 129.793,243.083 129.295 C 243.179 128.798,243.175 128.078,243.075 127.695 C 242.975 127.313,242.896 127.720,242.901 128.600 M119.600 263.600 C 119.067 263.945,119.067 263.988,119.600 263.988 C 119.930 263.988,120.470 263.813,120.800 263.600 C 121.333 263.255,121.333 263.212,120.800 263.212 C 120.470 263.212,119.930 263.387,119.600 263.600 M113.600 265.472 C 111.290 266.253,109.040 267.044,108.600 267.229 C 108.160 267.415,106.450 268.016,104.800 268.566 C 103.150 269.115,102.030 269.573,102.312 269.582 C 102.849 269.601,118.474 264.459,118.765 264.168 C 119.204 263.729,117.435 264.176,113.600 265.472 M149.600 284.113 C 148.610 284.614,146.218 285.537,144.285 286.164 C 142.352 286.791,140.844 287.377,140.933 287.467 C 141.346 287.880,151.600 283.975,151.600 283.405 C 151.600 283.107,151.569 283.118,149.600 284.113 M136.400 288.800 C 135.867 289.145,135.867 289.188,136.400 289.188 C 136.730 289.188,137.270 289.013,137.600 288.800 C 138.133 288.455,138.133 288.412,137.600 288.412 C 137.270 288.412,136.730 288.587,136.400 288.800 M134.000 289.600 C 133.467 289.945,133.467 289.988,134.000 289.988 C 134.330 289.988,134.870 289.813,135.200 289.600 C 135.733 289.255,135.733 289.212,135.200 289.212 C 134.870 289.212,134.330 289.387,134.000 289.600 M121.800 293.600 C 121.029 293.931,121.031 293.945,121.876 293.972 C 122.358 293.987,122.864 293.820,123.000 293.600 C 123.292 293.127,122.901 293.127,121.800 293.600 M119.400 294.400 C 118.629 294.731,118.631 294.745,119.476 294.772 C 119.958 294.787,120.464 294.620,120.600 294.400 C 120.892 293.927,120.501 293.927,119.400 294.400 M111.200 297.200 C 110.210 297.615,109.580 297.963,109.800 297.972 C 110.350 297.994,113.122 297.011,113.459 296.674 C 113.920 296.214,113.090 296.407,111.200 297.200 " stroke="none" fill="#fcfcb4" fill-rule="evenodd"></path><path id="path4" d="M246.560 119.339 C 245.358 120.948,244.443 122.408,244.892 122.000 C 245.450 121.492,248.040 117.908,247.927 117.799 C 247.857 117.732,247.242 118.425,246.560 119.339 M248.000 140.313 C 248.000 140.533,248.630 140.786,249.400 140.876 C 250.978 141.060,250.778 140.599,249.100 140.185 C 248.453 140.025,248.000 140.078,248.000 140.313 M254.449 142.454 C 255.701 142.805,258.820 142.815,259.683 142.472 C 260.058 142.322,258.821 142.197,256.932 142.194 C 255.043 142.190,253.926 142.307,254.449 142.454 M122.980 262.737 C 122.771 262.923,121.555 263.393,120.278 263.782 C 119.000 264.170,118.028 264.561,118.116 264.649 C 118.385 264.918,122.560 263.507,123.186 262.935 C 123.508 262.641,123.679 262.400,123.566 262.400 C 123.453 262.400,123.189 262.552,122.980 262.737 M116.000 265.200 C 115.467 265.545,115.467 265.588,116.000 265.588 C 116.330 265.588,116.870 265.413,117.200 265.200 C 117.733 264.855,117.733 264.812,117.200 264.812 C 116.870 264.812,116.330 264.987,116.000 265.200 M112.478 266.295 C 111.531 266.622,110.844 266.978,110.952 267.086 C 111.164 267.297,115.200 266.045,115.200 265.768 C 115.200 265.492,114.301 265.666,112.478 266.295 M108.800 267.600 C 108.267 267.945,108.267 267.988,108.800 267.988 C 109.130 267.988,109.670 267.813,110.000 267.600 C 110.533 267.255,110.533 267.212,110.000 267.212 C 109.670 267.212,109.130 267.387,108.800 267.600 M106.400 268.400 C 105.867 268.745,105.867 268.788,106.400 268.788 C 106.730 268.788,107.270 268.613,107.600 268.400 C 108.133 268.055,108.133 268.012,107.600 268.012 C 107.270 268.012,106.730 268.187,106.400 268.400 M104.000 269.200 C 103.467 269.545,103.467 269.588,104.000 269.588 C 104.330 269.588,104.870 269.413,105.200 269.200 C 105.733 268.855,105.733 268.812,105.200 268.812 C 104.870 268.812,104.330 268.987,104.000 269.200 M101.200 269.600 C 101.200 269.820,101.695 269.987,102.300 269.972 C 103.275 269.947,103.309 269.905,102.600 269.600 C 101.507 269.131,101.200 269.131,101.200 269.600 M148.000 284.400 C 147.230 284.822,146.797 285.174,147.039 285.183 C 147.540 285.202,150.000 284.029,150.000 283.771 C 150.000 283.446,149.394 283.637,148.000 284.400 M138.800 287.468 C 135.170 288.685,131.840 289.837,131.400 290.028 C 130.960 290.218,128.572 291.036,126.092 291.846 C 123.613 292.656,121.654 293.388,121.739 293.473 C 121.898 293.631,146.048 285.686,146.361 285.373 C 146.843 284.890,144.792 285.458,138.800 287.468 M119.400 294.000 C 119.108 294.473,119.499 294.473,120.600 294.000 C 121.371 293.669,121.369 293.655,120.524 293.628 C 120.042 293.613,119.536 293.780,119.400 294.000 M116.004 295.118 C 115.016 295.458,114.406 295.802,114.649 295.883 C 114.891 295.964,115.970 295.673,117.045 295.237 C 119.338 294.307,118.607 294.223,116.004 295.118 M109.361 297.348 C 107.854 297.899,106.789 298.741,106.832 299.349 C 106.851 299.632,106.938 299.614,107.065 299.300 C 107.176 299.025,107.522 298.800,107.833 298.800 C 108.145 298.800,108.400 298.620,108.400 298.400 C 108.400 298.180,108.625 297.992,108.900 297.982 C 109.175 297.972,109.940 297.717,110.600 297.414 C 112.037 296.756,111.116 296.707,109.361 297.348 " stroke="none" fill="#fcfcd0" fill-rule="evenodd"></path></g></svg>